<?xml version="1.0" encoding="UTF-8"?>
<svg width="44px" height="43px" viewBox="0 0 44 43" version="1.1" xmlns="http://www.w3.org/2000/svg" xmlns:xlink="http://www.w3.org/1999/xlink">
    <title>logo-adroll</title>
    <g id="logo-adroll" stroke="none" fill="none" transform="translate(0, 0)" fill-rule="nonzero">
        <path d="M44,21.5 C44,10.4814169 35.3337086,1.54274606 24.0427688,1.54274606 C16.5402364,1.54274606 10.0281374,5.65304898 6.61114239,11.7689816 L16.3421498,21.5 L16.3421498,21.5 C16.3421498,17.2411319 19.9324705,13.7993723 24.0427688,13.7993723 C28.4006754,13.7993723 31.7433879,17.2411319 31.7433879,21.5 C31.7433879,25.7588681 28.3759146,29.2006278 24.0427688,29.2006278 L24.018008,29.2006278 L24.018008,29.2006278 L7.45301071,29.2006278 C3.34271245,29.2006278 0,32.543344 0,36.6536469 L0,41.4572539 L24.0427688,41.4572539 C35.2594262,41.4572539 44,32.5185831 44,21.5" id="Path" fill="#0DBDFF"></path>
    </g>
</svg>