<?xml version="1.0" encoding="UTF-8"?>
<svg width="41px" height="43px" viewBox="0 0 41 43" version="1.1" xmlns="http://www.w3.org/2000/svg" xmlns:xlink="http://www.w3.org/1999/xlink">
    <title>logo-bitbucket</title>
    <defs>
        <linearGradient x1="108.63338%" y1="30.0969712%" x2="46.9265964%" y2="65.8174868%" id="linearGradient-1">
            <stop stop-color="#0052CC" offset="18%"></stop>
            <stop stop-color="#2684FF" offset="100%"></stop>
        </linearGradient>
    </defs>
    <g id="logo-bitbucket" stroke="none" stroke-width="1" fill="none" fill-rule="evenodd">
        <g id="Group" transform="translate(0.2142, 3.0687)" fill-rule="nonzero">
            <path d="M1.33017286,0.000104760815 C0.942222404,-0.00478941491 0.571915164,0.162011964 0.31858587,0.455873944 C0.0652565768,0.749735925 -0.0451633657,1.14057808 0.0169461359,1.52355719 L5.59159359,35.3654099 C5.73496518,36.2202518 6.47143346,36.8487416 7.33818514,36.8560326 L34.0820474,36.8560326 C34.7326105,36.8642954 35.2912293,36.3950556 35.3952741,35.7528118 L40.9830539,1.53668946 C41.0451634,1.15371034 40.9347434,0.762868192 40.6814141,0.469006212 C40.4280848,0.175144231 40.0577776,0.00834285236 39.6698271,0.0133464595 L1.33017286,0.000104760815 Z M24.8041006,24.459062 L16.2681269,24.459062 L13.9568478,12.3905084 L26.8724327,12.3905084 L24.8041006,24.459062 Z" id="Shape" fill="#2684FF"></path>
            <path d="M39.1970655,12.3905084 L26.8724327,12.3905084 L24.8041006,24.459062 L16.2681269,24.459062 L6.18911175,36.4291236 C6.50857199,36.7053625 6.91586956,36.8589719 7.33818514,36.8625987 L34.0886136,36.8625987 C34.7391766,36.8708616 35.2977955,36.4016217 35.4018403,35.759378 L39.1970655,12.3905084 Z" id="Path" fill="url(#linearGradient-1)"></path>
        </g>
    </g>
</svg>