<?xml version="1.0" encoding="UTF-8"?>
<svg width="44px" height="43px" viewBox="0 0 44 43" version="1.1" xmlns="http://www.w3.org/2000/svg" xmlns:xlink="http://www.w3.org/1999/xlink">
    <title>logo-linkedin</title>
    <g id="logo-linkedin" stroke="none" fill="none" transform="translate(0, 0)" fill-rule="evenodd" stroke-width="1">
        <g id="Group" transform="translate(0.5, -0)">
            <path d="M4.77778168,43.0000351 L38.2222535,43.0000351 C40.8609494,43.0000351 43.0000351,40.8609494 43.0000351,38.2222535 L43.0000351,4.77778168 C43.0000351,2.13908572 40.8609494,0 38.2222535,0 L4.77778168,0 C2.13908572,0 0,2.13908572 0,4.77778168 L0,38.2222535 C0,40.8609494 2.13908572,43.0000351 4.77778168,43.0000351 Z" id="Path" fill="#007EBB" fill-rule="nonzero"></path>
            <path d="M37.027808,37.027808 L30.6468566,37.027808 L30.6468566,26.1596178 C30.6468566,23.1798583 29.5146219,21.5146688 27.1561365,21.5146688 C24.5904118,21.5146688 23.2499268,23.2475571 23.2499268,26.1596178 L23.2499268,37.027808 L17.1004769,37.027808 L17.1004769,16.3240874 L23.2499268,16.3240874 L23.2499268,19.1128756 C23.2499268,19.1128756 25.0989065,15.691558 29.4923816,15.691558 C33.8838348,15.691558 37.027808,18.3732405 37.027808,23.9194934 L37.027808,37.027808 Z M9.76420252,13.6131024 C7.66956827,13.6131024 5.9722271,11.9024436 5.9722271,9.79266478 C5.9722271,7.68288592 7.66956827,5.9722271 9.76420252,5.9722271 C11.8588367,5.9722271 13.555167,7.68288592 13.555167,9.79266478 C13.555167,11.9024436 11.8588367,13.6131024 9.76420252,13.6131024 Z M6.58889067,37.027808 L13.0011807,37.027808 L13.0011807,16.3240874 L6.58889067,16.3240874 L6.58889067,37.027808 Z" id="Shape" fill="#FFFFFF" fill-rule="nonzero"></path>
        </g>
    </g>
</svg>