<?xml version="1.0" encoding="UTF-8"?>
<svg width="44px" height="43px" viewBox="0 0 44 43" version="1.1" xmlns="http://www.w3.org/2000/svg" xmlns:xlink="http://www.w3.org/1999/xlink">
    <title>logo-phantombuster</title>
    <g id="logo-phantombuster" stroke="none" fill="none" transform="translate(0, 0)" fill-rule="evenodd" stroke-width="1">
        <g id="Group" transform="translate(0.5, 0)">
            <path d="M21.3963512,42.3938608 L21.3622455,42.3916706 C20.91552,42.3605403 20.3414385,42.1825898 19.6397069,41.858454 C18.1555723,41.1713641 16.4965072,40.9556501 14.8860162,41.2403724 C14.6180615,41.2886006 14.3568872,41.3123191 14.1026335,41.3123191 C13.2743669,41.3123191 12.3309946,40.7904238 11.2721389,39.7470166 C10.3992445,38.88654 9.37559448,38.1938711 8.25223011,37.7035478 C6.34677839,36.8717507 5.39401388,35.7109866 5.39401388,34.2210783 L5.39401388,28.4551554 C4.23559726,27.72596 3.4269566,27.2139382 2.96809191,26.9190899 C1.50004122,25.9757786 0.603379682,25.2903084 0.603379682,23.6893792 C0.603379682,21.2622058 2.50732561,20.7506288 3.7034841,20.7506288 L5.39401388,20.7506288 C5.38936315,20.6120106 5.38694476,20.3099177 5.38595509,19.9121919 L5.38599229,18.7579024 C5.3862701,18.5879019 5.38663223,18.4135571 5.38704894,18.2373808 L5.388433,17.7058698 C5.39041731,16.9965625 5.39279849,16.2981528 5.39367159,15.7714509 L5.39401388,15.4111323 C5.39401388,8.17118232 13.0585008,0.603379682 21.5,0.603379682 L21.2323797,0.606379682 L21.5,0.603379682 C29.9414992,0.603379682 37.6059861,8.17118232 37.6059861,15.4111323 L37.6063284,15.7714509 C37.6075289,16.495666 37.6115806,17.5445162 37.6135315,18.4999575 L37.6143574,19.009331 C37.6144505,19.0918451 37.6145187,19.172959 37.6145584,19.2523587 L37.6144244,19.7056737 C37.6137994,20.2046791 37.611412,20.5889076 37.6059861,20.7506288 L39.2965159,20.7506288 C40.4926744,20.7506288 42.3966203,21.2622058 42.3966203,23.6893792 C42.3966203,25.2903084 41.4999588,25.9757786 40.0319081,26.9190899 C39.5730434,27.2139382 38.7644027,27.72596 37.6059861,28.4551554 L37.6059861,34.2210783 C37.6059861,35.7109866 36.6532216,36.8717507 34.7476926,37.7033707 C33.6244055,38.1938711 32.6007555,38.88654 31.7278611,39.7470166 C30.6690054,40.7904238 29.7256331,41.3123191 28.8973665,41.3123191 C28.6431128,41.3123191 28.3819385,41.2886006 28.1138438,41.2411638 C26.5034928,40.9556501 24.8444277,41.1713641 23.3602931,41.858454 C22.6704187,42.1771128 22.103917,42.3544849 21.6605087,42.3899669 L21.5,42.3966203 L21.3963512,42.3938608 Z" id="Combined-Shape" fill="#FFFFFF"></path>
            <path d="M21.5,0 C30.0952606,0 38.2300695,7.66234787 38.2300694,15.4331873 L38.2309731,16.0868125 L38.2311166,16.1452714 L38.2315536,16.311903 C38.2317243,16.3747749 38.2319177,16.4440841 38.232138,16.521473 L38.232883,16.7795212 C38.2332997,16.9223072 38.2337856,17.0869679 38.2343542,17.2790463 L38.2348928,17.4623592 L38.2350139,17.5041859 L38.2359713,17.8441876 L38.2360937,17.8893622 L38.2368672,18.1913008 C38.2375597,18.4771121 38.238054,18.7327319 38.2383433,18.9661641 L38.2385068,19.6824344 C38.2383721,19.8050946 38.2381397,19.9183328 38.2378019,20.0221356 L38.2375072,20.0729868 L39.2196046,20.0730473 C40.045187,20.0730473 40.8668726,20.2694153 41.5351007,20.7047173 L41.6087092,20.7540696 C42.4995747,21.3687216 43,22.357293 43,23.6813158 C43,24.6005859 42.7430891,25.331286 42.2145446,25.9661948 C41.8006322,26.4634029 41.3024983,26.8441929 40.3321465,27.4681026 C39.9269644,27.7286236 39.251354,28.1571336 38.304467,28.7541808 L38.2299758,28.8009894 L38.2300695,34.1742269 C38.2300695,36.2375293 36.7352786,37.7371685 33.9267256,38.6614554 L33.8282203,38.6934646 L33.7257845,38.7258974 C33.4899455,38.7996011 33.2807487,38.9383783 33.1232442,39.1255976 C31.5753378,40.9657503 30.1809062,41.9196922 28.8653973,41.9196922 C28.0675759,41.9196922 27.2276888,41.7200831 26.3466479,41.3284438 C26.0751499,41.2077108 25.7600384,41.2281314 25.5070104,41.3828491 C23.7917925,42.4318022 22.503048,42.9748287 21.5573425,42.9993085 L21.5,43 C21.4745702,43 21.448946,43 21.4268853,42.9989415 C21.3874783,42.9979721 21.3491978,42.9960183 21.3200433,42.9936673 C20.3972125,42.9315552 19.1424601,42.391594 17.4930295,41.3828735 C17.2399517,41.2281254 16.9247575,41.2076787 16.6533076,41.3282963 C15.7724799,41.720026 14.9325355,41.9196922 14.1346027,41.9196922 C12.8190938,41.9196922 11.4246622,40.9657503 9.87678149,39.1256281 C9.71925132,38.9383783 9.51005446,38.7996011 9.27168121,38.7251001 L9.16923699,38.692654 C6.29968609,37.7719676 4.7699305,36.2615212 4.7699305,34.1742269 L4.76980334,28.8009894 L4.695533,28.7541808 C3.78020887,28.1770352 3.1183777,27.7573782 2.70927319,27.4947146 L2.66785352,27.4681026 C1.6975017,26.8441929 1.19936776,26.4634029 0.785455412,25.9661948 C0.256910907,25.331286 0,24.6005859 0,23.6813158 C0,22.357293 0.50042535,21.3687216 1.39129084,20.7540696 C2.07226716,20.2842305 2.92423584,20.0730473 3.78039536,20.0730473 L4.76227186,20.0729868 L4.76219053,20.0200274 L4.76176333,19.8566457 L4.76143621,19.1919574 C4.76163854,18.8997905 4.7622094,18.5723825 4.76313296,18.1912405 L4.76385772,17.9074947 L4.76402872,17.8441623 L4.76487113,17.5440961 L4.76503658,17.4867135 L4.7656458,17.2790463 C4.76619861,17.0923034 4.76667326,16.9314762 4.76708211,16.7914723 L4.76781576,16.5377199 C4.76792464,16.4995523 4.76802712,16.4633211 4.76812367,16.4288379 L4.76880522,16.1761485 C4.76888552,16.1447399 4.76895913,16.1150878 4.76902683,16.0868664 L4.7699305,15.4335575 C4.7699305,7.98990144 12.250279,0.618986758 20.4572965,0.0369612583 L20.5658873,0.0303237878 L20.5671877,0 L21.5,0 Z M21.5,1.3604884 L21.3800796,1.3604884 L21.2473595,1.36306968 C13.4889038,1.50954448 6.15730785,8.51501382 6.15730775,15.4339276 L6.15715601,15.6642447 L6.1569829,15.7977923 L6.15601028,16.2441388 L6.15577055,16.3332972 L6.1551897,16.5408253 C6.1550807,16.5790373 6.15496531,16.6191873 6.15484305,16.6614644 L6.15402352,16.9421661 C6.15372046,17.0452506 6.15338628,17.1583565 6.1530173,17.2829969 L6.15285406,17.3383396 L6.15201529,17.6271405 L6.15148651,17.8163676 L6.1510634,17.9742538 L6.15098098,18.0056598 L6.15050625,18.1945345 L6.14988125,18.4700247 L6.14903333,18.9673024 C6.14893719,19.0447738 6.1488638,19.1197275 6.1488134,19.1924428 L6.14886181,19.6734908 L6.14905168,19.8074254 C6.1499049,20.2838646 6.1524892,20.5984902 6.15693309,20.7310284 L6.18049411,21.4337301 L3.78039536,21.4337301 C2.35239076,21.4337301 1.38737735,22.0995404 1.38737735,23.6813158 C1.38737735,24.7904076 1.7946392,25.2796269 3.42850911,26.3301605 C3.883066,26.6224282 4.68680142,27.1316705 5.83848044,27.8570897 L6.15730785,28.0579127 L6.15730785,34.1742269 C6.15730785,35.5718251 7.24175485,36.6425838 9.59806638,37.3986043 L9.69543353,37.4294426 C10.1852529,37.5825196 10.6197387,37.8707492 10.9469424,38.2596832 C12.2554133,39.8151947 13.3426899,40.5590094 14.1346027,40.5590094 C14.7218944,40.5590094 15.3701675,40.4049061 16.0805548,40.0889762 C16.7747836,39.7804986 17.5802798,39.8327512 18.2270742,40.228243 C19.6969242,41.1271397 20.7805869,41.5934755 21.4232298,41.6367771 C21.4347473,41.637687 21.4475024,41.638338 21.4654328,41.638789 C21.4772476,41.6393781 21.4887704,41.6393781 21.4907205,41.6393781 L21.5297173,41.6389246 C22.1485583,41.6228676 23.2543922,41.1569126 24.7729657,40.2282186 C25.4197972,39.8327041 26.2253811,39.7804986 26.9194735,40.0891561 C27.6298498,40.4049317 28.2781562,40.5590094 28.8653973,40.5590094 C29.6573101,40.5590094 30.7445867,39.8151947 32.0530833,38.2596526 C32.3802613,37.8707492 32.8147471,37.5825196 33.3020322,37.4302399 L33.3993909,37.3994148 C35.7582451,36.6425838 36.8426921,35.5718251 36.8426921,34.1742269 L36.8426921,28.0579127 L37.1615196,27.8570897 C38.3131986,27.1316705 39.116934,26.6224282 39.5714909,26.3301605 C41.2053608,25.2796269 41.6126226,24.7904076 41.6126226,23.6813158 C41.6126226,22.0995404 40.6476092,21.4337301 39.2196046,21.4337301 L36.8195059,21.4337301 L36.8430669,20.7310284 C36.8478849,20.5873334 36.8505291,20.2281849 36.8511299,19.681624 L36.8511868,19.1928816 L36.8509667,18.9674885 L36.8501188,18.470057 C36.8499327,18.3813983 36.8497243,18.2896726 36.8494939,18.1945947 L36.8490192,18.005716 L36.8489754,17.9890333 L36.8485136,17.8164053 L36.8479848,17.6271746 L36.8471459,17.3383397 C36.8470978,17.3219998 36.8470439,17.3037565 36.8469827,17.2829969 C36.8466032,17.1547954 36.8462605,17.0387968 36.8459506,16.9333543 L36.8451153,16.6470487 C36.8449912,16.6040603 36.8448742,16.5632991 36.844764,16.5245595 L36.8441789,16.314733 L36.8439897,16.2441112 L36.843017,15.7976177 C36.8430059,15.7902576 36.8429951,15.7829109 36.8429846,15.7755655 L36.8426921,15.4335575 C36.8426921,8.42640734 29.3412944,1.3604884 21.5,1.3604884 Z M17.7342615,11.5278326 C19.1572551,11.5278326 20.3108194,13.1813712 20.3108194,15.2211145 C20.3108194,17.2608577 19.1572551,18.9143963 17.7342615,18.9143963 C16.3112678,18.9143963 15.1577035,17.2608577 15.1577035,15.2211145 C15.1577035,13.1813712 16.3112678,11.5278326 17.7342615,11.5278326 Z M25.3648369,11.5278326 C26.7878306,11.5278326 27.9413949,13.1813712 27.9413949,15.2211145 C27.9413949,17.2608577 26.7878306,18.9143963 25.3648369,18.9143963 C23.9418433,18.9143963 22.788279,17.2608577 22.788279,15.2211145 C22.788279,13.1813712 23.9418433,11.5278326 25.3648369,11.5278326 Z" id="Combined-Shape" fill="#000000" fill-rule="nonzero"></path>
        </g>
    </g>
</svg>