<?xml version="1.0" encoding="UTF-8"?>
<svg width="44px" height="43px" viewBox="0 0 44 43" version="1.1" xmlns="http://www.w3.org/2000/svg" xmlns:xlink="http://www.w3.org/1999/xlink">
    <title>logo-stripe</title>
    <g id="logo-stripe" stroke="none" fill="none" fill-rule="evenodd">
        <path d="M43.5040236,22.8715221 L37.6858822,22.8715221 C37.8230345,24.2646999 38.8408483,24.7122492 39.9958143,24.7122492 C41.1796545,24.7122492 42.1325014,24.4451633 42.919322,24.0264882 L42.919322,26.4230427 C41.9208193,26.9975693 40.7782955,27.2731781 39.6276689,27.2170818 C36.7330353,27.2170818 34.6974077,25.4124474 34.6974077,21.8176157 C34.6974077,18.7930484 36.4226382,16.3892754 39.2450864,16.3892754 C42.0747531,16.3892754 43.5473348,18.7569557 43.5473348,21.8031786 C43.5473348,22.0919201 43.5184606,22.7127143 43.5040236,22.8715221 L43.5040236,22.8715221 Z M39.2306493,18.814704 C38.4871399,18.814704 37.6642266,19.3416573 37.6642266,20.6770867 L40.7321051,20.6770867 C40.7321051,19.3416573 39.9597216,18.814704 39.2306493,18.814704 Z M30.0125768,27.2170818 C28.9731073,27.2170818 28.337876,26.7839695 27.9192008,26.4663539 L27.9047638,29.8085368 L24.9307263,30.4365496 L24.9307263,16.5841759 L27.6448964,16.5841759 L27.7026447,17.3204667 C28.3321718,16.7233409 29.1665557,16.390104 30.0342324,16.3892754 C32.1276083,16.3892754 34.0910505,18.2660951 34.0910505,21.7309932 C34.0910505,25.5062884 32.1420454,27.2170818 30.0125768,27.2170818 L30.0125768,27.2170818 Z M29.3268157,19.0240416 C28.6410546,19.0240416 28.2151609,19.2694719 27.9047638,19.6087431 L27.9192008,24.0264882 C28.2079424,24.3441038 28.6266175,24.5895341 29.3268157,24.5895341 C30.4240334,24.5895341 31.1603242,23.3984754 31.1603242,21.79596 C31.1603242,20.2439745 30.4095963,19.0240416 29.3268157,19.0240416 L29.3268157,19.0240416 Z M20.8378154,16.5841759 L23.8190715,16.5841759 L23.8190715,27.0077442 L20.8378154,27.0077442 L20.8378154,16.5841759 Z M20.8378154,13.1914632 L23.8190715,12.5634504 L23.8190715,14.9888791 L20.8378154,15.6241104 L20.8378154,13.1986817 L20.8378154,13.1914632 Z M17.7194072,19.9407959 L17.7194072,27.0077442 L14.7453697,27.0077442 L14.7453697,16.5841759 L17.4162286,16.5841759 L17.5028511,17.4648375 C18.2247048,16.1871563 19.7189421,16.4470237 20.1159617,16.5841759 L20.1159617,19.3200016 C19.7405977,19.1972865 18.4629166,19.0096045 17.7194072,19.9407959 L17.7194072,19.9407959 Z M11.5475575,23.3479456 C11.5475575,25.1020503 13.4243773,24.56066 13.7997413,24.4018521 L13.7997413,26.8272808 C13.4027217,27.0438369 12.6880865,27.2170818 11.7135839,27.2170818 C10.8927763,27.2410269 10.0981235,26.9269868 9.51543467,26.3483918 C8.93274584,25.7697968 8.61311091,24.9773778 8.63126833,24.1564218 L8.63848687,14.6496078 L11.540339,14.0288136 L11.540339,16.5841759 L13.8069598,16.5841759 L13.8069598,19.1323197 L11.5475575,19.1323197 L11.5475575,23.3551642 L11.5475575,23.3479456 Z M8.00325556,23.8532433 C8.00325556,25.9971489 6.33577337,27.2170818 3.8670335,27.2170818 C2.7592175,27.2162447 1.6633934,26.9877432 0.647565721,26.5457578 L0.647565721,23.7088725 C1.64372391,24.2502628 2.88531238,24.6545009 3.8670335,24.6545009 C4.53113896,24.6545009 4.97146975,24.481256 4.97146975,23.9326472 C4.97146975,22.5033767 0.452665205,23.0375485 0.452665205,19.7458954 C0.452665205,17.6453009 2.09849178,16.3892754 4.50948335,16.3892754 C5.49120446,16.3892754 6.47292558,16.5336461 7.46186523,16.9306657 L7.46186523,19.7314583 C6.54796592,19.2504764 5.53476718,18.9885275 4.50226481,18.9662933 C3.88147057,18.9662933 3.46279539,19.1467567 3.46279539,19.6159617 C3.46279539,20.9513911 8.00325556,20.3161598 8.00325556,23.8604618 L8.00325556,23.8532433 Z" id="Shape-Copy-2" fill="#6058F7"></path>
    </g>
</svg>