<?xml version="1.0" encoding="UTF-8"?>
<svg width="44px" height="43px" viewBox="0 0 44 43" version="1.1" xmlns="http://www.w3.org/2000/svg" xmlns:xlink="http://www.w3.org/1999/xlink">
    <title>logo-azuredevops-2024</title>
    <defs>
        <linearGradient x1="58.9722146%" y1="7.41014569%" x2="37.1902812%" y2="103.761997%" id="linearGradient-1">
            <stop stop-color="#114A8B" offset="0%"></stop>
            <stop stop-color="#0669BC" offset="100%"></stop>
        </linearGradient>
        <linearGradient x1="59.7192868%" y1="52.3123607%" x2="52.6913295%" y2="54.8632965%" id="linearGradient-2">
            <stop stop-color="#000000" stop-opacity="0.3" offset="0%"></stop>
            <stop stop-color="#000000" stop-opacity="0.2" offset="7.1%"></stop>
            <stop stop-color="#000000" stop-opacity="0.1" offset="32.1%"></stop>
            <stop stop-color="#000000" stop-opacity="0.05" offset="62.3%"></stop>
            <stop stop-color="#000000" stop-opacity="0" offset="100%"></stop>
        </linearGradient>
        <linearGradient x1="37.2786975%" y1="4.59930693%" x2="62.4733292%" y2="99.9809496%" id="linearGradient-3">
            <stop stop-color="#3CCBF4" offset="0%"></stop>
            <stop stop-color="#2892DF" offset="100%"></stop>
        </linearGradient>
    </defs>
    <g id="logo-azuredevops-2024" stroke="none" stroke-width="1" fill="none" fill-rule="evenodd">
        <g id="Group" transform="translate(0.5308, 1.2708)" fill-rule="nonzero">
            <path d="M14.3144019,1.40851153e-05 L27.0203472,1.40851153e-05 L13.8308501,39.0801823 C13.5528443,39.9038188 12.7804293,40.4583511 11.9111399,40.4583511 L2.02300839,40.4583511 C1.3714131,40.4583511 0.759690891,40.1445662 0.379669328,39.6152647 C-0.000352235282,39.0859632 -0.102136603,38.4060107 0.106234386,37.7886308 L12.3946918,1.37818285 C12.6726497,0.554511108 13.4450943,1.40851153e-05 14.3144019,1.40851153e-05 L14.3144019,1.40851153e-05 Z" id="Path" fill="url(#linearGradient-1)"></path>
            <path d="M32.7778261,26.2123802 L12.6294025,26.2123802 C12.2461844,26.2123802 11.9019152,26.4466333 11.7614096,26.8031642 C11.620904,27.1596952 11.7127533,27.5658862 11.9929858,27.8272784 L24.9400648,39.9109373 C25.3169156,40.2626772 25.8131963,40.4583511 26.3286937,40.4583511 L37.7370315,40.4583511 L32.7778261,26.2123802 Z" id="Path" fill="#0078D4"></path>
            <path d="M14.3144019,0 C13.4348584,-0.00326373949 12.6553969,0.565847998 12.3906545,1.40460845 L0.121465812,37.7555988 C-0.100917095,38.3754421 -0.00727159676,39.0647703 0.372411882,39.6028227 C0.752095361,40.1408751 1.37017106,40.4601324 2.02869723,40.4583585 L12.1720927,40.4583585 C12.941448,40.3209444 13.5773029,39.7800926 13.8363554,39.0427461 L16.2825591,31.8325928 L25.0222778,39.9837913 C25.3884779,40.2868039 25.8478952,40.454395 26.3231883,40.4583585 L37.6893186,40.4583585 L32.7040546,26.2123802 L18.1718064,26.2156834 L27.066592,0 L14.3144019,0 Z" id="Path" fill="url(#linearGradient-2)"></path>
            <path d="M30.5430273,1.37598071 C30.265489,0.55366592 29.4943245,1.40851154e-05 28.6264368,1.40851154e-05 L14.4659822,1.40851154e-05 C15.3339192,1.40851154e-05 16.1051486,0.55363727 16.3827562,1.37598071 L28.6719476,37.7884473 C28.8803041,38.4058469 28.7785189,39.0858095 28.3985064,39.6151347 C28.0184939,40.1444599 27.4067829,40.4583511 26.7551736,40.4583511 L40.9156282,40.4583511 C41.5672052,40.4583511 42.1788615,40.1443763 42.5588311,39.6150602 C42.9388007,39.085744 43.0405649,38.4058162 42.8322187,37.7884473 L30.5430273,1.37598071 Z" id="Path" fill="url(#linearGradient-3)"></path>
        </g>
    </g>
</svg>