<?xml version="1.0" encoding="UTF-8"?>
<svg width="41px" height="43px" viewBox="0 0 41 43" version="1.1" xmlns="http://www.w3.org/2000/svg" xmlns:xlink="http://www.w3.org/1999/xlink">
    <title>logo-confluence</title>
    <defs>
        <linearGradient x1="99.0761438%" y1="65.7056837%" x2="33.7825079%" y2="46.9216973%" id="linearGradient-1">
            <stop stop-color="#0055CC" offset="0%"></stop>
            <stop stop-color="#1D7AFC" offset="100%"></stop>
        </linearGradient>
        <linearGradient x1="0.920682256%" y1="34.2937847%" x2="66.2143852%" y2="53.0781262%" id="linearGradient-2">
            <stop stop-color="#0055CC" offset="0%"></stop>
            <stop stop-color="#1D7AFC" offset="100%"></stop>
        </linearGradient>
    </defs>
    <g id="logo-confluence" stroke="none" stroke-width="1" fill="none" fill-rule="evenodd">
        <g id="Group-17-Copy" transform="translate(-0.0989, 1.7757)" fill-rule="nonzero">
            <path d="M1.45936789,30.1009634 C1.03564231,30.7909175 0.554424312,31.5996137 0.180699162,32.2358214 C-0.179276902,32.8495306 0.0144605905,33.6382282 0.620669907,34.0119533 L9.11260901,39.2528548 C9.73506762,39.6365793 10.5500134,39.4390924 10.9212387,38.8091343 C11.2587163,38.2379223 11.6961872,37.5029712 12.1736555,36.7130237 C15.5397317,31.158393 18.9245066,31.835848 25.0228511,34.7344053 L33.4447911,38.7378891 C34.108497,39.054118 34.9021942,38.7591376 35.2009243,38.0866824 L39.2456554,28.9547896 C39.5331363,28.3048328 39.2506551,27.5461332 38.6081978,27.2436533 C36.829566,26.4074589 33.2948011,24.7388199 30.1300115,23.2064218 C18.6295262,17.638042 8.89887322,18.0067675 1.45936789,30.1009634 Z" id="Path" fill="url(#linearGradient-1)"></path>
            <path d="M39.5406358,9.34759329 C39.9643576,8.65763917 40.4455756,7.84894294 40.8193008,7.21273525 C41.1792768,6.59902605 40.9855397,5.8103285 40.37933,5.43660335 L31.8873947,0.195726824 C31.264936,-0.187997661 30.4499902,0.00948920751 30.0787649,0.63944732 C29.7412874,1.21065934 29.3038164,1.94559797 28.8263482,2.73554545 C25.460322,8.29016361 22.0755471,7.61270865 15.9772026,4.71415138 L7.55528756,0.710692583 C6.89158169,0.39446361 6.09788446,0.689431496 5.79915433,1.36188678 L1.75442327,10.4937671 C1.46694239,11.1437239 1.7494236,11.9024234 2.39188089,12.2049033 C4.17051262,13.0410977 7.70527758,14.7097368 10.8700671,16.2421349 C22.3692775,21.8105146 32.0998805,21.443039 39.5393859,9.34759329 L39.5406358,9.34759329 Z" id="Path" fill="url(#linearGradient-2)"></path>
        </g>
    </g>
</svg>