<?xml version="1.0" encoding="UTF-8"?>
<svg width="44px" height="43px" viewBox="0 0 44 43" version="1.1" xmlns="http://www.w3.org/2000/svg" xmlns:xlink="http://www.w3.org/1999/xlink">
    <title>logo-gitlab</title>
    <g id="logo-gitlab" stroke="none" stroke-width="1" fill="none" fill-rule="evenodd">
        <g id="Group" transform="translate(0.1933, 0.5)" fill-rule="nonzero">
            <path d="M42.8796178,16.6096585 L42.8185594,16.453469 L36.8894898,0.983044462 C36.7690085,0.679633322 36.555713,0.422029606 36.2802688,0.247001911 C36.0026439,0.0717970387 35.6775898,-0.0129323823 35.3498098,0.00451150939 C35.0220298,0.0219554011 34.7077427,0.140709883 34.4502889,0.344385956 C34.1952883,0.548866147 34.0114317,0.828653958 33.9248869,1.14384064 L29.9162944,13.4118616 L13.698477,13.4118616 L9.68996641,1.14384064 C9.60340796,0.828653958 9.41952408,0.548866147 9.16455078,0.344385956 C8.9082282,0.139341521 8.59413184,0.0196929696 8.26636549,0.00222727136 C7.93858551,-0.0152384269 7.61355861,0.0703578052 7.3369014,0.247001911 C7.06018968,0.421312715 6.84606281,0.679074529 6.72541797,0.983044462 L0.789552879,16.4737764 L0.728404536,16.6277852 C-0.123689299,18.8588698 -0.228429518,21.3062482 0.429932585,23.6019346 C1.08829469,25.8976211 2.47417297,27.9175908 4.37915389,29.3579146 L4.40180546,29.3737244 L4.4538959,29.4144754 L13.4969844,36.1837794 L17.9675217,39.569658 L20.6853015,41.628198 C21.0044952,41.8694332 21.3937424,42 21.7938929,42 C22.1939072,42 22.5831544,41.8694332 22.9024843,41.628198 L25.6201279,39.569658 L30.0929276,36.1837794 L39.1881747,29.3737244 L39.2129797,29.3555977 C41.1244617,27.9166368 42.515857,25.8950316 43.1772775,23.5956653 C43.8388342,21.2964352 43.734299,18.8444229 42.8796178,16.6096585 Z" id="Path" fill="#E24329"></path>
            <path d="M42.8798904,16.6096585 L42.818832,16.453469 C39.9271448,17.0493335 37.2022778,18.2748626 34.8379006,20.0429664 L21.8178802,29.9104386 C26.2567434,33.2668783 30.1204584,36.1837794 30.1204584,36.1837794 L39.2155692,29.3737244 L39.2405104,29.3555977 C41.1472223,27.9130932 42.533166,25.8897162 43.18968,23.5907588 C43.846194,21.291665 43.7374337,18.8415608 42.8798904,16.6096585 Z" id="Path" fill="#FC6D26"></path>
            <path d="M13.5039897,36.1837794 L17.9677942,39.569658 L20.6854378,41.628198 C21.0047677,41.8694332 21.3938787,42 21.7940292,42 C22.1941797,42 22.583427,41.8694332 22.9026206,41.628198 L25.6202642,39.569658 L30.0932002,36.1837794 C30.0932002,36.1837794 26.2294852,33.2668783 21.7906219,29.9104386 L13.5039897,36.1837794 Z" id="Path" fill="#FCA326"></path>
            <path d="M8.77050609,20.0520979 C6.40671498,18.2833126 3.68153451,17.058465 0.789578775,16.4647811 L0.728430432,16.61879 C-0.125851829,18.8509649 -0.231744116,21.3002514 0.426698398,23.5978459 C1.08514091,25.8954405 2.4722649,27.9169093 4.37918115,29.3579146 L4.40183272,29.3737244 L4.45392316,29.4144754 L13.496998,36.1837794 L21.8176076,29.9104386 L8.77050609,20.0520979 Z" id="Path" fill="#FC6D26"></path>
        </g>
    </g>
</svg>