<?xml version="1.0" encoding="UTF-8"?>
<svg width="44px" height="43px" viewBox="0 0 44 43" version="1.1" xmlns="http://www.w3.org/2000/svg" xmlns:xlink="http://www.w3.org/1999/xlink">
    <title>logo-sheets</title>
    <g id="logo-sheets" stroke="none" fill="none" fill-rule="evenodd" stroke-width="1">
        <g id="Group" transform="translate(7, 1)">
            <polygon id="Path" fill="#188038" fill-rule="nonzero" points="19.6875 0 30 10.5 24.84375 11.4545455 19.6875 10.5 18.75 5.25"></polygon>
            <path d="M19.6875,10.5 L19.6875,0 L2.8125,0 C1.25859375,0 0,1.28147727 0,2.86363636 L0,39.1363636 C0,40.7185227 1.25859375,42 2.8125,42 L27.1875,42 C28.7414062,42 30,40.7185227 30,39.1363636 L30,10.5 L19.6875,10.5 Z" id="Path" fill="#34A853" fill-rule="nonzero"></path>
            <path d="M5.625,16.2272727 L5.625,30.0681818 L24.375,30.0681818 L24.375,16.2272727 L5.625,16.2272727 Z M13.828125,27.6818182 L7.96875,27.6818182 L7.96875,24.3409091 L13.828125,24.3409091 L13.828125,27.6818182 Z M13.828125,21.9545455 L7.96875,21.9545455 L7.96875,18.6136364 L13.828125,18.6136364 L13.828125,21.9545455 Z M22.03125,27.6818182 L16.171875,27.6818182 L16.171875,24.3409091 L22.03125,24.3409091 L22.03125,27.6818182 Z M22.03125,21.9545455 L16.171875,21.9545455 L16.171875,18.6136364 L22.03125,18.6136364 L22.03125,21.9545455 Z" id="Shape" fill="#FFFFFF" fill-rule="nonzero"></path>
        </g>
    </g>
</svg>