<?xml version="1.0" encoding="UTF-8"?>
<svg width="44px" height="44px" viewBox="0 0 44 44" version="1.1" xmlns="http://www.w3.org/2000/svg" xmlns:xlink="http://www.w3.org/1999/xlink">
    <title>logo-quickbooks</title>
    <g id="logo-quickbooks" stroke="none" fill="none" transform="translate(0, 0.5)" fill-rule="evenodd" stroke-width="1">
        <g id="Group" transform="translate(0.5055, 0)">
            <path d="M21.4945299,43 C33.3629753,43 42.9890599,33.3714657 42.9890599,21.5 C42.9890599,9.62853429 33.3629753,0 21.4945299,0 C9.62608458,0 0,9.62853429 0,21.5 C0,33.3714657 9.61909904,43 21.4945299,43 Z" id="Path" fill="#2CA01C" fill-rule="nonzero"></path>
            <path d="M14.3273581,13.1361716 C9.70991116,13.1361716 5.96565765,16.881378 5.96565765,21.5 C5.96565765,26.118622 9.70292561,29.8568411 14.3273581,29.8568411 L15.5218868,29.8568411 L15.5218868,26.7544686 L14.3273581,26.7544686 C11.4283559,26.7544686 9.07422632,24.39974 9.07422632,21.5 C9.07422632,18.60026 11.4283559,16.2455314 14.3273581,16.2455314 L17.1984182,16.2455314 L17.1984182,32.4910627 C17.1984182,34.2029574 18.5885421,35.5934352 20.3000013,35.5934352 L20.3000013,13.1361716 L14.3273581,13.1361716 L14.3273581,13.1361716 Z M28.6617018,29.8568411 C33.2791487,29.8568411 37.0234022,26.1116347 37.0234022,21.5 C37.0234022,16.8883653 33.2861343,13.1431589 28.6617018,13.1431589 L27.4671731,13.1431589 L27.4671731,16.2455314 L28.6617018,16.2455314 C31.560704,16.2455314 33.9148336,18.60026 33.9148336,21.5 C33.9148336,24.39974 31.560704,26.7544686 28.6617018,26.7544686 L25.7906417,26.7544686 L25.7906417,10.5089373 C25.7906417,8.79704257 24.4005177,7.40656484 22.6890586,7.40656484 L22.6890586,29.8568411 L28.6617018,29.8568411 C28.6617018,29.8568411 28.6617018,29.8568411 28.6617018,29.8568411 Z" id="Shape" fill="#FFFFFF" fill-rule="nonzero"></path>
        </g>
    </g>
</svg>