<?xml version="1.0" encoding="UTF-8"?>
<svg width="44px" height="43px" viewBox="0 0 44 43" version="1.1" xmlns="http://www.w3.org/2000/svg" xmlns:xlink="http://www.w3.org/1999/xlink">
    <title>logo-gdrive</title>
    <g id="logo-gdrive" stroke="none" stroke-width="1" fill="none" fill-rule="evenodd">
        <g id="Group" transform="translate(-0, 1.8436)" fill-rule="nonzero">
            <path d="M3.32646048,33.6930126 L5.26689576,37.0446735 C5.67010309,37.7502864 6.24971363,38.3046964 6.930126,38.7079038 L13.860252,26.7124857 L0,26.7124857 C0,27.4936999 0.201603666,28.2749141 0.604810997,28.9805269 L3.32646048,33.6930126 Z" id="Path" fill="#0066DA"></path>
            <path d="M22,12.6002291 L15.069874,0.604810997 C14.3894616,1.00801833 13.8098511,1.56242841 13.4066438,2.26804124 L0.604810997,24.4444444 C0.209019152,25.1348402 0.000526973301,25.9166859 0,26.7124857 L13.860252,26.7124857 L22,12.6002291 Z" id="Path" fill="#00AC47"></path>
            <path d="M37.069874,38.7079038 C37.7502864,38.3046964 38.3298969,37.7502864 38.7331042,37.0446735 L39.5395189,35.6586483 L43.395189,28.9805269 C43.7983963,28.2749141 44,27.4936999 44,26.7124857 L30.13874,26.7124857 L33.0882016,32.5085911 L37.069874,38.7079038 Z" id="Path" fill="#EA4335"></path>
            <path d="M22,12.6002291 L28.930126,0.604810997 C28.2497136,0.201603666 27.4684994,0 26.6620848,0 L17.3379152,0 C16.5315006,0 15.7502864,0.226804124 15.069874,0.604810997 L22,12.6002291 Z" id="Path" fill="#00832D"></path>
            <path d="M30.139748,26.7124857 L13.860252,26.7124857 L6.930126,38.7079038 C7.61053837,39.1111111 8.39175258,39.3127148 9.19816724,39.3127148 L34.8018328,39.3127148 C35.6082474,39.3127148 36.3894616,39.0859107 37.069874,38.7079038 L30.139748,26.7124857 Z" id="Path" fill="#2684FC"></path>
            <path d="M36.9942726,13.3562428 L30.5933562,2.26804124 C30.1901489,1.56242841 29.6105384,1.00801833 28.930126,0.604810997 L22,12.6002291 L30.139748,26.7124857 L43.9747995,26.7124857 C43.9747995,25.9312715 43.7731959,25.1500573 43.3699885,24.4444444 L36.9942726,13.3562428 Z" id="Path" fill="#FFBA00"></path>
        </g>
    </g>
</svg>