<?xml version="1.0" encoding="UTF-8"?>
<svg width="44px" height="43px" viewBox="0 0 44 43" version="1.1" xmlns="http://www.w3.org/2000/svg" xmlns:xlink="http://www.w3.org/1999/xlink">
    <title>logo-gohighlevel</title>
    <g id="logo-gohighlevel" stroke="none" fill="none" fill-rule="evenodd">
        <path d="M6.0661877,0 L37.8765998,0 C40.0123616,0 40.7868404,0.217718252 41.567643,0.626547614 C42.3484455,1.03537698 42.961224,1.63531745 43.3788018,2.3997619 L43.4337178,2.50253142 C43.8158481,3.23478167 44.0187567,4.01608713 44.0187567,6.0134762 L44.0187567,36.9865238 C44.0187567,39.0775405 43.7963796,39.8357937 43.3788018,40.6002381 C42.961224,41.3646825 42.3484455,41.964623 41.567643,42.3734524 L41.4626743,42.4272179 C40.7147548,42.8013424 39.9167304,43 37.8765998,43 L6.16091363,43 C4.02515185,43 3.25067303,42.7822817 2.46987045,42.3734524 C1.68906786,41.964623 1.07628943,41.3646825 0.658711639,40.6002381 L0.603795613,40.4974686 C0.227636107,39.7766597 0.0251413536,39.0083167 0.018756704,37.0792652 L0.018756704,6.0134762 C0.018756704,3.92245952 0.241133849,3.16420634 0.658711639,2.3997619 C1.07628943,1.63531745 1.68906786,1.03537698 2.46987045,0.626547614 L2.57483911,0.572782102 C3.31107233,0.204503294 4.09585695,0.00625088855 6.0661877,0 L6.0661877,0 Z" id="Rectangle-Copy" fill="#06123B"></path>
        <g id="ghl" stroke-width="1" transform="translate(7.0651, 6.9045)">
            <g id="Group" fill-rule="nonzero">
                <polygon id="Path" fill="#FDC400" points="6.36729391 0 12.7345878 6.59512549 8.31130063 6.59484346 8.3114578 29.1673638 4.42313002 29.1673638 4.42297285 6.59484346 0 6.59512549"></polygon>
                <polygon id="Path" fill="#DAA900" points="4.66768803 6.59512549 8.3114578 6.59512549 8.3114578 10.0258947"></polygon>
            </g>
            <g id="Group" transform="translate(17.1352, 0)" fill-rule="nonzero">
                <polygon id="Path" fill="#4ACF27" points="6.36729391 0 12.7345878 6.59512549 8.31130063 6.59484346 8.3114578 29.1673638 4.42313002 29.1673638 4.42297285 6.59484346 0 6.59512549"></polygon>
                <polygon id="Path" fill="#51B346" points="4.66768803 6.59512549 8.3114578 6.59512549 8.3114578 10.0258947"></polygon>
            </g>
            <g id="Group" transform="translate(8.5676, 9.27)" fill-rule="nonzero">
                <polygon id="Path" fill="#2896FB" points="6.36729391 0 12.7345878 6.59512549 8.31130063 6.59484346 8.3114578 19.9210061 4.42313002 19.9210061 4.42297285 6.59484346 0 6.59512549"></polygon>
                <polygon id="Path" fill="#1F81DB" points="4.66768803 6.59512549 8.3114578 6.59512549 8.3114578 10.0258947"></polygon>
            </g>
        </g>
    </g>
</svg>