<?xml version="1.0" encoding="UTF-8"?>
<svg width="44px" height="44px" viewBox="0 0 44 44" version="1.1" xmlns="http://www.w3.org/2000/svg" xmlns:xlink="http://www.w3.org/1999/xlink">
    <title>logo-zohocrm</title>
    <g id="logo-zohocrm" stroke="none" fill="none" transform="translate(0, 0.5)" fill-rule="nonzero">
        <path d="M30.0791753,35.5 C26.4089513,35.5 22.951142,34.0623322 20.3429918,31.4524357 L12.7203355,23.7439586 C11.8327451,22.8463751 11.3457084,21.6526659 11.3502601,20.3837745 C11.3548119,19.114883 11.8479176,17.9242424 12.7400597,17.0327963 C14.5637924,15.2100115 17.5239442,15.2192175 19.3370561,17.0527426 L26.3179163,24.1121979 C27.1357133,24.9392021 28.4693747,24.9422708 29.2902061,24.1198696 C29.692277,23.717875 29.9137952,23.1823936 29.9153125,22.6100882 C29.9168297,22.0393172 29.6983459,21.5007672 29.2977923,21.0972382 L21.6857567,13.3995013 C19.5585744,11.2713847 16.7334577,10.0991561 13.7384092,10.1083621 C10.6826708,10.1160338 7.83024367,11.3296893 5.7060958,13.5253165 C3.57891344,15.7240123 2.44097708,18.6377062 2.50166702,21.7293824 C2.62152965,27.8835827 7.67396707,32.8916379 13.7642025,32.8916379 C14.8535869,32.8916379 15.929316,32.7351362 16.9625622,32.4267357 C17.6453241,32.2226697 18.3629826,32.6169927 18.5632594,33.3074415 C18.7650534,33.9978903 18.3751206,34.7236287 17.6923588,34.9276947 C16.4224218,35.3066743 15.1008984,35.5 13.7642025,35.5 C6.27961572,35.5 0.0710349617,29.3457998 -0.0761381404,21.7815497 C-0.150483316,17.9840813 1.24841978,14.4044879 3.8626389,11.7025316 C6.47534078,9.0021097 9.98018476,7.50920598 13.7323402,7.50153433 C17.3964953,7.49232835 20.8846496,8.92999616 23.5019032,11.5490986 L31.121525,19.2545071 C32.0091154,20.1536249 32.4976694,21.3473341 32.4946349,22.6177599 C32.4916004,23.8881857 31.9969774,25.0803606 31.1048353,25.973341 C29.2780681,27.8007288 26.3133646,27.7930572 24.4957009,25.954929 L17.5148407,18.8954737 C16.7000783,18.0715382 15.3724858,18.0684695 14.5531717,18.8862677 C14.1526181,19.286728 13.9310998,19.8206751 13.9295825,20.3914461 C13.9280653,20.9606828 14.1465491,21.4976985 14.5440682,21.8996931 L22.1591383,29.602033 C24.2787344,31.7224779 27.0932303,32.8931722 30.0791753,32.8931722 C36.2847216,32.8931722 41.3386763,27.7884542 41.3447452,21.5130418 C41.3477797,18.4719985 40.1764639,15.6089375 38.0462471,13.4516686 C35.9160302,11.2943997 33.0863618,10.1068278 30.0791753,10.1068278 C29.1202743,10.1068278 28.1689595,10.2280399 27.2495069,10.4689298 C27.115989,10.5042194 26.9824712,10.5410433 26.8504706,10.5809359 C26.1677087,10.7865362 25.4500502,10.3937476 25.2467389,9.70483314 C25.0434276,9.01438435 25.4318432,8.28864595 26.1130878,8.08304565 C26.2754334,8.03394707 26.4392962,7.98791715 26.6031591,7.94495589 C27.7319919,7.6503644 28.9017905,7.5 30.0776581,7.5 C33.7736754,7.5 37.2512089,8.95914845 39.8684625,11.6089375 C42.4857161,14.2587265 43.9255849,17.7769467 43.9210439,21.5145761 C43.9134469,29.226122 37.7018317,35.4984657 30.0776581,35.4984657 L30.0791753,35.5 Z" id="Path" fill="#006EB9"></path>
    </g>
</svg>