<?xml version="1.0" encoding="UTF-8"?>
<svg width="44px" height="43px" viewBox="0 0 44 43" version="1.1" xmlns="http://www.w3.org/2000/svg" xmlns:xlink="http://www.w3.org/1999/xlink">
    <title>logo-jobber</title>
    <g id="logo-jobber" stroke="none" fill="none" fill-rule="evenodd" stroke-width="1">
        <g id="Group" transform="translate(0.5, 0)" fill="#000000">
            <g id="svg_icon_jobber-logo" transform="translate(0, 0)" fill-rule="nonzero">
                <path d="M35.8000655,0 C36.1418421,0.00181787436 36.4436237,0.152701446 36.6726867,0.37993574 L42.6192373,6.28984527 C42.8721376,6.5076916 43.0119995,6.82889015 42.9991911,7.16242496 L42.9991911,27.2390293 C42.9991911,35.9521011 35.914597,43 27.237469,43 L7.16172538,43 C6.83149091,42.9946081 6.51719057,42.8571083 6.28910408,42.6182464 L0.380730743,36.7101547 C0.12805025,36.4921464 -0.0117631202,36.1710593 0.000776888395,35.837575 L0.000776888395,15.7627885 C-0.00104107263,7.04789888 7.04537587,0 15.7206859,0 L35.8000655,0 Z M37.459558,5.78322293 C37.3014969,5.84987685 37.1995537,6.00561733 37.2017134,6.17713706 L37.2017134,27.2390293 C37.2046112,29.8922822 36.1519679,32.4377242 34.2759148,34.314029 C32.3998617,36.1903337 29.8544896,37.2433894 27.2011098,37.240974 L11.8938779,37.240974 C11.6640745,37.2389865 11.4785511,37.0526619 11.4775649,36.8228629 L11.4775649,16.3681407 C11.4835669,13.6922952 13.6519098,11.5248684 16.3278849,11.5198698 L27.1247554,11.5198698 C27.2756462,11.5198698 27.4283549,11.4053437 27.5028913,11.2544601 L28.2228039,9.36023506 C28.277621,9.23365447 28.2646264,9.08792956 28.1882772,8.97304425 C28.1119281,8.85815894 27.9826057,8.7897344 27.844668,8.79124038 L15.7588631,8.79124038 C11.9103562,8.79524997 8.79180662,11.9144643 8.7888005,15.7627885 L8.7888005,39.5151349 C8.7888005,39.7423692 8.97786845,39.933246 9.20511357,39.933246 L27.239287,39.933246 C34.2457088,39.9296102 39.93057,34.2087596 39.93057,27.200854 L39.93057,8.06954426 C39.9328424,7.95791524 39.8917806,7.84972592 39.8159414,7.76777712 L37.921626,5.87355204 C37.8003054,5.75228213 37.6176191,5.71656902 37.459558,5.78322293 Z M33.7912185,3.03037776 L15.760681,3.03037776 C12.3825525,3.0245916 9.14113938,4.36403869 6.75260885,6.75279645 C4.36407833,9.1415542 3.02503028,12.3830041 3.03129588,15.7609707 L3.03129588,34.8922804 C3.03129588,35.0049886 3.0694951,35.1195147 3.14584947,35.1940475 L5.04016486,37.0882726 C5.16125309,37.2092947 5.34348876,37.2451167 5.5013794,37.1789334 C5.65927005,37.11275 5.76148713,36.9576934 5.76007743,36.7865055 L5.75825946,15.7609707 C5.75825946,10.229179 10.2286256,5.75902596 15.7588631,5.7208506 L31.0660949,5.7208506 C31.2915221,5.7208506 31.482408,5.9117274 31.482408,6.1389617 L31.482408,26.5955018 C31.476406,29.2713473 29.3080631,31.4387741 26.632088,31.4437727 L15.8333995,31.4437727 C15.6825087,31.4437727 15.531618,31.5582988 15.4552636,31.7091824 L14.735351,33.6034075 C14.680395,33.7302865 14.6935809,33.8763825 14.7703669,33.9913723 C14.8471528,34.1063621 14.9770462,34.1745325 15.1153049,34.1724021 L27.237469,34.1724021 C29.0881559,34.1777332 30.8645803,33.444945 32.173219,32.1363687 C33.4818577,30.8277924 34.2146809,29.0514527 34.2093784,27.200854 L34.2093784,3.44850765 C34.2083538,3.21800496 34.0217322,3.03139226 33.7912185,3.03037776 Z M27.9955588,14.5484485 L16.3278849,14.5484485 C15.3043728,14.5484485 14.5099239,15.3446774 14.5099239,16.3281475 L14.5099239,27.9970829 C14.5099239,28.2243172 14.6989918,28.415194 14.924419,28.4515515 L26.632088,28.4515515 C27.6174229,28.4515515 28.4136898,27.6189651 28.4136898,26.6336772 L28.4136898,14.9665596 C28.4136898,14.7375074 28.2228039,14.5484485 27.9955588,14.5484485 Z" id="Combined-Shape"></path>
            </g>
        </g>
    </g>
</svg>