<?xml version="1.0" encoding="UTF-8"?>
<svg width="44px" height="43px" viewBox="0 0 44 43" version="1.1" xmlns="http://www.w3.org/2000/svg" xmlns:xlink="http://www.w3.org/1999/xlink">
    <title>logo-browserstack</title>
    <g id="logo-browserstack" stroke="none" fill="none" fill-rule="evenodd" stroke-width="1">
        <g id="Group" transform="translate(0.5, 0)">
            <path d="M43,21.5 C43,33.3744719 33.3744719,43 21.5,43 C9.62593545,43 0,33.3744719 0,21.5 C0,9.62593545 9.62593545,0 21.5,0 C33.3744719,0 43,9.62593545 43,21.5" id="Path" fill="#ECB360" fill-rule="nonzero"></path>
            <path d="M37.2666666,19.3499999 C37.2666666,30.0366301 28.9237698,38.7 18.6333334,38.7 C8.3425043,38.7 0,30.0366301 0,19.3499999 C0,8.66336984 8.3425043,0 18.6333334,0 C28.9237698,0 37.2666666,8.66336984 37.2666666,19.3499999" id="Path" fill="#D76835" fill-rule="nonzero"></path>
            <path d="M38.7,17.1997909 C38.7,26.6992501 31.3201146,34.3999999 22.2160656,34.3999999 C13.1132187,34.3999999 5.73333332,26.6992501 5.73333332,17.1997909 C5.73333332,7.70074991 13.1132187,0 22.2160656,0 C31.3201146,0 38.7,7.70074991 38.7,17.1997909" id="Path" fill="#D33A41" fill-rule="nonzero"></path>
            <path d="M37.2666666,18.6335416 C37.2666666,27.3407959 30.5283354,34.3999999 22.2164679,34.3999999 C13.9046002,34.3999999 7.16666665,27.3407959 7.16666665,18.6335416 C7.16666665,9.92545413 13.9046002,2.86666667 22.2164679,2.86666667 C30.5283354,2.86666667 37.2666666,9.92545413 37.2666666,18.6335416" id="Path" fill="#B6CB46" fill-rule="nonzero"></path>
            <path d="M35.8333333,20.0664622 C35.8333333,27.9825715 29.4159049,34.3999999 21.4997956,34.3999999 C13.5840951,34.3999999 7.16666665,27.9825715 7.16666665,20.0664622 C7.16666665,12.1503529 13.5840951,5.73333332 21.4997956,5.73333332 C29.4159049,5.73333332 35.8333333,12.1503529 35.8333333,20.0664622" id="Path" fill="#66AD4A" fill-rule="nonzero"></path>
            <path d="M30.0999999,17.2 C30.0999999,23.5328544 24.9661878,28.6666667 18.6333334,28.6666667 C12.3000903,28.6666667 7.16666665,23.5328544 7.16666665,17.2 C7.16666665,10.8671455 12.3000903,5.73333332 18.6333334,5.73333332 C24.9661878,5.73333332 30.0999999,10.8671455 30.0999999,17.2" id="Path" fill="#AED7DC" fill-rule="nonzero"></path>
            <path d="M31.5333333,15.7666666 C31.5333333,21.3077477 27.0413961,25.8 21.4997969,25.8 C15.9581975,25.8 11.4666667,21.3077477 11.4666667,15.7666666 C11.4666667,10.2251795 15.9581975,5.73333332 21.4997969,5.73333332 C27.0413961,5.73333332 31.5333333,10.2251795 31.5333333,15.7666666" id="Path" fill="#5BB1CF" fill-rule="nonzero"></path>
            <path d="M31.5333333,16.4831185 C31.5333333,21.6285761 27.6830958,25.8 22.9333333,25.8 C18.1835707,25.8 14.3333333,21.6285761 14.3333333,16.4831185 C14.3333333,11.3380905 18.1835707,7.16666665 22.9333333,7.16666665 C27.6830958,7.16666665 31.5333333,11.3380905 31.5333333,16.4831185" id="Path" fill="#25A8C3" fill-rule="nonzero"></path>
            <path d="M28.6666667,17.9164544 C28.6666667,22.2703582 25.4579015,25.8 21.499807,25.8 C17.5420985,25.8 14.3333333,22.2703582 14.3333333,17.9164544 C14.3333333,13.5625506 17.5420985,10.0333333 21.499807,10.0333333 C25.4579015,10.0333333 28.6666667,13.5625506 28.6666667,17.9164544" id="Path"></path>
            <path d="M21.499807,25.8 C17.5420985,25.8 14.3333333,22.2703582 14.3333333,17.9164544 C14.3333333,13.5625506 17.5420985,10.0333333 21.499807,10.0333333 C25.4579015,10.0333333 28.6666667,13.5625506 28.6666667,17.9164544 C28.6666667,22.2703582 25.4579015,25.8 21.499807,25.8 Z" id="Path" fill="#1B1A18" fill-rule="nonzero"></path>
            <path d="M25.4104559,15.643499 C24.7286502,16.7840849 23.3881509,17.4437389 22.4158686,17.1158846 C21.4435863,16.7884247 21.2082635,15.5977336 21.889544,14.4567531 C22.5713497,13.3157726 23.911849,12.6565131 24.8841313,12.9839729 C25.8564136,13.3114328 26.0917364,14.5021239 25.4104559,15.643499" id="Path" fill="#FFFFFE" fill-rule="nonzero"></path>
        </g>
    </g>
</svg>