<?xml version="1.0" encoding="UTF-8"?>
<svg width="44px" height="43px" viewBox="0 0 44 43" version="1.1" xmlns="http://www.w3.org/2000/svg" xmlns:xlink="http://www.w3.org/1999/xlink">
    <title>logo-aws</title>
    <g id="logo-aws" stroke="none" fill="none">
        <path d="M12.5052632,17.9394737 C12.5052632,18.475 12.5631579,18.9092105 12.6644737,19.2276316 C12.7802632,19.5460526 12.925,19.8934211 13.1276316,20.2697368 C13.2,20.3855263 13.2289474,20.5013158 13.2289474,20.6026316 C13.2289474,20.7473684 13.1421053,20.8921053 12.9539474,21.0368421 L12.0421053,21.6447368 C11.9118421,21.7315789 11.7815789,21.775 11.6657895,21.775 C11.5210526,21.775 11.3763158,21.7026316 11.2315789,21.5723684 C11.0289474,21.3552632 10.8552632,21.1236842 10.7105263,20.8921053 C10.5657895,20.6460526 10.4210526,20.3710526 10.2618421,20.0381579 C9.13289474,21.3697368 7.71447368,22.0355263 6.00657895,22.0355263 C4.79078947,22.0355263 3.82105263,21.6881579 3.11184211,20.9934211 C2.40263158,20.2986842 2.04078947,19.3723684 2.04078947,18.2144737 C2.04078947,16.9842105 2.475,15.9855263 3.35789474,15.2328947 C4.24078947,14.4802632 5.41315789,14.1039474 6.90394737,14.1039474 C7.39605263,14.1039474 7.90263158,14.1473684 8.43815789,14.2197368 C8.97368421,14.2921053 9.52368421,14.4078947 10.1026316,14.5381579 L10.1026316,13.4815789 C10.1026316,12.3815789 9.87105263,11.6144737 9.42236842,11.1657895 C8.95921053,10.7171053 8.17763158,10.5 7.06315789,10.5 C6.55657895,10.5 6.03552632,10.5578947 5.5,10.6881579 C4.96447368,10.8184211 4.44342105,10.9776316 3.93684211,11.1802632 C3.70526316,11.2815789 3.53157895,11.3394737 3.43026316,11.3684211 C3.32894737,11.3973684 3.25657895,11.4118421 3.19868421,11.4118421 C2.99605263,11.4118421 2.89473684,11.2671053 2.89473684,10.9631579 L2.89473684,10.2539474 C2.89473684,10.0223684 2.92368421,9.84868421 2.99605263,9.74736842 C3.06842105,9.64605263 3.19868421,9.54473684 3.40131579,9.44342105 C3.90789474,9.18289474 4.51578947,8.96578947 5.225,8.79210526 C5.93421053,8.60394737 6.68684211,8.51710526 7.48289474,8.51710526 C9.20526316,8.51710526 10.4644737,8.90789474 11.275,9.68947368 C12.0710526,10.4710526 12.4763158,11.6578947 12.4763158,13.25 L12.4763158,17.9394737 L12.5052632,17.9394737 Z M6.62894737,20.1394737 C7.10657895,20.1394737 7.59868421,20.0526316 8.11973684,19.8789474 C8.64078947,19.7052632 9.10394737,19.3868421 9.49473684,18.9526316 C9.72631579,18.6776316 9.9,18.3736842 9.98684211,18.0263158 C10.0736842,17.6789474 10.1315789,17.2592105 10.1315789,16.7671053 L10.1315789,16.1592105 C9.71184211,16.0578947 9.26315789,15.9710526 8.8,15.9131579 C8.33684211,15.8552632 7.88815789,15.8263158 7.43947368,15.8263158 C6.46973684,15.8263158 5.76052632,16.0144737 5.28289474,16.4052632 C4.80526316,16.7960526 4.57368421,17.3460526 4.57368421,18.0697368 C4.57368421,18.75 4.74736842,19.2565789 5.10921053,19.6039474 C5.45657895,19.9657895 5.96315789,20.1394737 6.62894737,20.1394737 Z M18.2513158,21.7026316 C17.9907895,21.7026316 17.8171053,21.6592105 17.7013158,21.5578947 C17.5855263,21.4710526 17.4842105,21.2684211 17.3973684,20.9934211 L13.9960526,9.80526316 C13.9092105,9.51578947 13.8657895,9.32763158 13.8657895,9.22631579 C13.8657895,8.99473684 13.9815789,8.86447368 14.2131579,8.86447368 L15.6315789,8.86447368 C15.9065789,8.86447368 16.0947368,8.90789474 16.1960526,9.00921053 C16.3118421,9.09605263 16.3986842,9.29868421 16.4855263,9.57368421 L18.9171053,19.1552632 L21.175,9.57368421 C21.2473684,9.28421053 21.3342105,9.09605263 21.45,9.00921053 C21.5657895,8.92236842 21.7684211,8.86447368 22.0289474,8.86447368 L23.1868421,8.86447368 C23.4618421,8.86447368 23.65,8.90789474 23.7657895,9.00921053 C23.8815789,9.09605263 23.9828947,9.29868421 24.0407895,9.57368421 L26.3276316,19.2710526 L28.8315789,9.57368421 C28.9184211,9.28421053 29.0197368,9.09605263 29.1210526,9.00921053 C29.2368421,8.92236842 29.425,8.86447368 29.6855263,8.86447368 L31.0315789,8.86447368 C31.2631579,8.86447368 31.3934211,8.98026316 31.3934211,9.22631579 C31.3934211,9.29868421 31.3789474,9.37105263 31.3644737,9.45789474 C31.35,9.54473684 31.3210526,9.66052632 31.2631579,9.81973684 L27.775,21.0078947 C27.6881579,21.2973684 27.5868421,21.4855263 27.4710526,21.5723684 C27.3552632,21.6592105 27.1671053,21.7171053 26.9210526,21.7171053 L25.6763158,21.7171053 C25.4013158,21.7171053 25.2131579,21.6736842 25.0973684,21.5723684 C24.9815789,21.4710526 24.8802632,21.2828947 24.8223684,20.9934211 L22.5789474,11.6578947 L20.35,20.9789474 C20.2776316,21.2684211 20.1907895,21.4565789 20.075,21.5578947 C19.9592105,21.6592105 19.7565789,21.7026316 19.4960526,21.7026316 L18.2513158,21.7026316 Z M36.85,22.0934211 C36.0973684,22.0934211 35.3447368,22.0065789 34.6210526,21.8328947 C33.8973684,21.6592105 33.3328947,21.4710526 32.9565789,21.2539474 C32.725,21.1236842 32.5657895,20.9789474 32.5078947,20.8486842 C32.45,20.7184211 32.4210526,20.5736842 32.4210526,20.4434211 L32.4210526,19.7052632 C32.4210526,19.4013158 32.5368421,19.2565789 32.7539474,19.2565789 C32.8407895,19.2565789 32.9276316,19.2710526 33.0144737,19.3 C33.1013158,19.3289474 33.2315789,19.3868421 33.3763158,19.4447368 C33.8684211,19.6618421 34.4039474,19.8355263 34.9684211,19.9513158 C35.5473684,20.0671053 36.1118421,20.125 36.6907895,20.125 C37.6026316,20.125 38.3118421,19.9657895 38.8039474,19.6473684 C39.2960526,19.3289474 39.5565789,18.8657895 39.5565789,18.2723684 C39.5565789,17.8671053 39.4263158,17.5342105 39.1657895,17.2592105 C38.9052632,16.9842105 38.4131579,16.7381579 37.7039474,16.5065789 L35.6052632,15.8552632 C34.5486842,15.5223684 33.7671053,15.0302632 33.2894737,14.3789474 C32.8118421,13.7421053 32.5657895,13.0328947 32.5657895,12.2802632 C32.5657895,11.6723684 32.6960526,11.1368421 32.9565789,10.6736842 C33.2171053,10.2105263 33.5644737,9.80526316 33.9986842,9.48684211 C34.4328947,9.15394737 34.925,8.90789474 35.5039474,8.73421053 C36.0828947,8.56052632 36.6907895,8.48815789 37.3276316,8.48815789 C37.6460526,8.48815789 37.9789474,8.50263158 38.2973684,8.54605263 C38.6302632,8.58947368 38.9342105,8.64736842 39.2381579,8.70526316 C39.5276316,8.77763158 39.8026316,8.85 40.0631579,8.93684211 C40.3236842,9.02368421 40.5263158,9.11052632 40.6710526,9.19736842 C40.8736842,9.31315789 41.0184211,9.42894737 41.1052632,9.55921053 C41.1921053,9.675 41.2355263,9.83421053 41.2355263,10.0368421 L41.2355263,10.7171053 C41.2355263,11.0210526 41.1197368,11.1802632 40.9026316,11.1802632 C40.7868421,11.1802632 40.5986842,11.1223684 40.3526316,11.0065789 C39.5276316,10.6302632 38.6013158,10.4421053 37.5736842,10.4421053 C36.7486842,10.4421053 36.0973684,10.5723684 35.6486842,10.8473684 C35.2,11.1223684 34.9684211,11.5421053 34.9684211,12.1355263 C34.9684211,12.5407895 35.1131579,12.8881579 35.4026316,13.1631579 C35.6921053,13.4381579 36.2276316,13.7131579 36.9947368,13.9592105 L39.05,14.6105263 C40.0921053,14.9434211 40.8447368,15.4065789 41.2934211,16 C41.7421053,16.5934211 41.9592105,17.2736842 41.9592105,18.0263158 C41.9592105,18.6486842 41.8289474,19.2131579 41.5828947,19.7052632 C41.3223684,20.1973684 40.975,20.6315789 40.5263158,20.9789474 C40.0776316,21.3407895 39.5421053,21.6013158 38.9197368,21.7894737 C38.2684211,21.9921053 37.5881579,22.0934211 36.85,22.0934211 Z" id="Shape" fill="#252F3E" fill-rule="nonzero"></path>
        <path d="M0.926315789,25.6684211 C7.06315789,29.2289474 14.6328947,31.3855263 22.4631579,31.3855263 C27.7460526,31.3855263 33.55,30.2855263 38.8907895,28.0276316 C39.6868421,27.6657895 40.3671053,28.5486842 39.5855263,29.1276316 C34.8236842,32.6447368 27.9052632,34.5118421 21.9565789,34.5118421 C13.6197368,34.5118421 6.10789474,31.4289474 0.434210526,26.3052632 C-0.0144736842,25.9 0.390789474,25.35 0.926315789,25.6684211 Z M43.5947368,25.3065789 C44.1157895,25.9578947 43.45,30.4302632 40.9026316,32.5723684 C40.5118421,32.9052632 40.1355263,32.7315789 40.3092105,32.2973684 C40.8881579,30.8644737 42.1763158,27.6368421 41.5684211,26.8697368 C40.9605263,26.0881579 37.5447368,26.4934211 35.9960526,26.6815789 C35.5328947,26.7394737 35.4605263,26.3342105 35.8802632,26.0302632 C38.6013158,24.1197368 43.0736842,24.6697368 43.5947368,25.3065789 Z" id="Combined-Shape" fill="#FF9900" fill-rule="evenodd"></path>
    </g>
</svg>