<?xml version="1.0" encoding="UTF-8"?>
<svg width="43px" height="43px" viewBox="0 0 43 43" version="1.1" xmlns="http://www.w3.org/2000/svg" xmlns:xlink="http://www.w3.org/1999/xlink">
    <title>ext-logo-proxycurl</title>
    <g id="ext-logo-proxycurl" stroke="none" stroke-width="1" fill="none" fill-rule="evenodd">
        <path d="M35.3566145,0 L7.64338303,0 C3.42135714,0.00239591412 1.38555833e-13,3.42535128 1.38555833e-13,7.64695196 L1.38555833e-13,35.353048 C1.38555833e-13,39.5746487 3.42135714,42.9976041 7.64338303,43 L35.3566145,43 C37.384518,43 39.3293004,42.1942032 40.7628376,40.7599966 C42.1963748,39.32579 43.0011491,37.3807466 43,35.353048 L43,7.64695196 C43.0011491,5.61925338 42.1963748,3.67420998 40.7628376,2.24000342 C39.3293004,0.805796848 37.384518,0 35.3566145,0 Z M35.8340547,17.4291482 C35.8340547,22.4889527 31.7318588,26.5907348 26.6715438,26.5907348 L20.3346107,26.5907348 L21.0724728,18.8960436 C21.1093673,18.6447432 21.3262904,18.4593575 21.5802955,18.4620509 L24.4232347,18.4620509 C24.8915467,19.9274079 26.3814088,20.8114524 27.8921353,20.5204041 C29.4028617,20.2293558 30.4575622,18.8550896 30.3478331,17.32065 C30.3218877,15.8382614 29.2295921,14.5911192 27.7634293,14.3698744 C26.2972665,14.1486297 24.8855367,15.0179131 24.4232347,16.4266249 L20.1913787,16.4266249 C19.6673842,16.4265433 19.229338,16.8250687 19.1800736,17.3466895 L17.5133734,34.63696 L17.5133734,34.7324384 L9.98283984,34.7324384 C9.69569048,34.7324384 9.42182572,34.6114893 9.22850372,34.399187 C9.03518173,34.1868847 8.94031233,33.9029366 8.9671944,33.6170771 L11.3153319,9.18762616 C11.3667024,8.66532613 11.8061048,8.26727518 12.3309774,8.26756141 L26.6715438,8.26756141 C31.7318588,8.26756141 35.8340547,12.3693436 35.8340547,17.4291482 L35.8340547,17.4291482 Z" id="Shape" fill="#325EEA" fill-rule="nonzero"></path>
    </g>
</svg>