<?xml version="1.0" encoding="UTF-8"?>
<svg width="44px" height="43px" viewBox="0 0 44 43" version="1.1" xmlns="http://www.w3.org/2000/svg" xmlns:xlink="http://www.w3.org/1999/xlink">
    <title>logo-salesforce</title>
    <g id="logo-salesforce" stroke="none" fill="none" fill-rule="evenodd" stroke-width="1">
        <g id="Salesforce-Copy" transform="translate(0, 6.3444)">
            <g id="g3003" transform="translate(22, 15.1556) scale(-1, 1) rotate(-180) translate(-22, -15.1556)" fill="#00A1E0" fill-rule="nonzero">
                <path d="M18.3101425,27.0052408 C19.7291738,28.4604653 21.7047863,29.3629636 23.8897436,29.3629636 C26.794245,29.3629636 29.3283191,27.7689406 30.6777778,25.4025815 C31.8504843,25.9182948 33.148547,26.2051449 34.514302,26.2051449 C39.7529345,26.2051449 44,21.9887568 44,16.7878252 C44,11.5862766 39.7529345,7.36988856 34.514302,7.36988856 C33.8749858,7.36988856 33.2500855,7.43281052 32.6458689,7.5531025 C31.4574929,5.46680777 29.1929345,4.05723253 26.5936752,4.05723253 C25.505584,4.05723253 24.4764103,4.30460219 23.560057,4.74443902 C22.3553846,1.95551576 19.548661,0 16.2774929,0 C12.8709402,0 9.96769231,2.121457 8.85327635,5.09667861 C8.36626781,4.99489309 7.8617094,4.94184124 7.3439886,4.94184124 C3.28809117,4.94184124 0,8.21131553 0,12.2451066 C0,14.9482832 1.47732194,17.3084735 3.67230769,18.5712309 C3.22039886,19.594638 2.96905983,20.7241488 2.96905983,21.9116466 C2.96905983,26.5505988 6.79555556,30.3111111 11.5152137,30.3111111 C14.2862108,30.3111111 16.7488319,29.0144253 18.3101425,27.0052408" id="path3005"></path>
            </g>
            <g id="g3007" transform="translate(7.8923, 14.2263) scale(-1, 1) rotate(-180) translate(-7.8923, -14.2263)translate(6.363, 12.1838)" fill="#FFFFFF" fill-rule="nonzero">
                <path d="M0.00994402604,0.550258692 C-0.0176343215,0.479317269 0.0199725161,0.464512102 0.0287474448,0.452174464 C0.111482488,0.392953797 0.195471092,0.350388943 0.280086476,0.302889034 C0.728861405,0.0684738956 1.15256511,0 1.59569901,0 C2.49826311,0 3.05860499,0.472531568 3.05860499,1.233147 L3.05860499,1.24795217 C3.05860499,1.95119758 2.42618334,2.20658671 1.83262209,2.39103441 L1.75552807,2.41570969 C1.3080067,2.5588263 0.921909838,2.68220268 0.921909838,2.9721372 L0.921909838,2.98755925 C0.921909838,3.23554579 1.14755086,3.41814284 1.49729445,3.41814284 C1.88589844,3.41814284 2.34720898,3.29106516 2.644303,3.12944209 C2.644303,3.12944209 2.73142551,3.07392272 2.76339132,3.15720178 C2.78094118,3.20161728 2.93136853,3.60012301 2.94703804,3.64330475 C2.96396112,3.69018778 2.93387565,3.72473317 2.9031634,3.74323963 C2.56407508,3.94619378 2.09524317,4.08499222 1.61011497,4.08499222 L1.51985856,4.08437534 C0.69376169,4.08437534 0.117123513,3.59333731 0.117123513,2.88947502 L0.117123513,2.87466985 C0.117123513,2.13256087 0.753305849,1.89197692 1.34937423,1.72418503 L1.44527166,1.69519158 C1.87963064,1.56379572 2.25381867,1.45090633 2.25381867,1.14986794 L2.25381867,1.13506277 C2.25381867,0.859933427 2.01062779,0.655128623 1.61826311,0.655128623 C1.46595542,0.655128623 0.980200436,0.658213032 0.455585052,0.98454358 C0.392280208,1.02093961 0.355300151,1.04746554 0.306411263,1.07645899 C0.280713257,1.09249792 0.216154852,1.12025761 0.187949724,1.03636166 L0.00994402604,0.550258692 Z" id="path3009"></path>
            </g>
            <g id="g3011" transform="translate(21.1055, 14.2263) scale(-1, 1) rotate(-180) translate(-21.1055, -14.2263)translate(19.5762, 12.1838)" fill="#FFFFFF" fill-rule="nonzero">
                <path d="M0.00994402604,0.550258692 C-0.0176343215,0.479317269 0.0199725161,0.464512102 0.0287474448,0.452174464 C0.111482488,0.392953797 0.195471092,0.350388943 0.280086476,0.302889034 C0.728861405,0.0684738956 1.15256511,0 1.59569901,0 C2.49826311,0 3.05860499,0.472531568 3.05860499,1.233147 L3.05860499,1.24795217 C3.05860499,1.95119758 2.42618334,2.20658671 1.83262209,2.39103441 L1.75552807,2.41570969 C1.3080067,2.5588263 0.921909838,2.68220268 0.921909838,2.9721372 L0.921909838,2.98755925 C0.921909838,3.23554579 1.14755086,3.41814284 1.49729445,3.41814284 C1.88589844,3.41814284 2.34720898,3.29106516 2.644303,3.12944209 C2.644303,3.12944209 2.73142551,3.07392272 2.76339132,3.15720178 C2.78094118,3.20161728 2.93136853,3.60012301 2.94703804,3.64330475 C2.96396112,3.69018778 2.93387565,3.72473317 2.9031634,3.74323963 C2.56407508,3.94619378 2.09524317,4.08499222 1.61011497,4.08499222 L1.51985856,4.08437534 C0.69376169,4.08437534 0.117123513,3.59333731 0.117123513,2.88947502 L0.117123513,2.87466985 C0.117123513,2.13256087 0.753305849,1.89197692 1.34937423,1.72418503 L1.44527166,1.69519158 C1.87963064,1.56379572 2.25444545,1.45090633 2.25444545,1.14986794 L2.25444545,1.13506277 C2.25444545,0.859933427 2.01062779,0.655128623 1.61826311,0.655128623 C1.46595542,0.655128623 0.980200436,0.658213032 0.455585052,0.98454358 C0.392280208,1.02093961 0.354673371,1.04623177 0.307038043,1.07645899 C0.290741747,1.08694598 0.21427451,1.11593943 0.187949724,1.03636166 L0.00994402604,0.550258692 Z" id="path3013"></path>
            </g>
            <g id="g3015" transform="translate(27.6308, 14.225) scale(-1, 1) rotate(-180) translate(-27.6308, -14.225)translate(25.7909, 12.1954)" fill="#FFFFFF" fill-rule="nonzero">
                <path d="M2.81549858,2.0258403 C2.81549858,1.59587358 2.73401709,1.2572054 2.57356125,1.0178552 C2.41498575,0.780972539 2.17492877,0.665615616 1.84022792,0.665615616 C1.50490028,0.665615616 1.26609687,0.780355657 1.11002849,1.0178552 C0.952079772,1.25658852 0.871851852,1.59587358 0.871851852,2.0258403 C0.871851852,2.45519013 0.952079772,2.79324143 1.11002849,3.0301241 C1.26609687,3.26453924 1.50490028,3.3786624 1.84022792,3.3786624 C2.17492877,3.3786624 2.41498575,3.26453924 2.57418803,3.0301241 C2.73401709,2.79324143 2.81549858,2.45519013 2.81549858,2.0258403 M3.56888889,2.82285177 C3.49492877,3.06898766 3.37960114,3.28613011 3.22603989,3.46687652 C3.07247863,3.64823981 2.87817664,3.79382394 2.64752137,3.89992764 C2.41749288,4.00541445 2.14547009,4.05908318 1.84022792,4.05908318 C1.53435897,4.05908318 1.26233618,4.00541445 1.03230769,3.89992764 C0.801652422,3.79382394 0.607350427,3.64823981 0.453162393,3.46687652 C0.30022792,3.28551322 0.184900285,3.06837078 0.11031339,2.82285177 C0.036980057,2.57794964 0,2.31022287 0,2.0258403 C0,1.74145772 0.036980057,1.47311408 0.11031339,1.22882883 C0.184900285,0.983309816 0.29960114,0.766167372 0.453789174,0.584804081 C0.607350427,0.40344079 0.802279202,0.258473534 1.03230769,0.155454249 C1.26296296,0.0524349651 1.53435897,0 1.84022792,0 C2.14547009,0 2.4168661,0.0524349651 2.64752137,0.155454249 C2.87754986,0.258473534 3.07247863,0.40344079 3.22603989,0.584804081 C3.37960114,0.76555049 3.49492877,0.982692934 3.56888889,1.22882883 C3.642849,1.47373096 3.67982906,1.7420746 3.67982906,2.0258403 C3.67982906,2.30960599 3.642849,2.57794964 3.56888889,2.82285177" id="path3017"></path>
            </g>
            <g id="g3019" transform="translate(34.1913, 14.2222) scale(-1, 1) rotate(-180) translate(-34.1913, -14.2222)translate(32.6452, 12.1917)" fill="#FFFFFF">
                <path d="M2.90136752,0.778505011 C2.8762963,0.850680198 2.80547009,0.823537393 2.80547009,0.823537393 C2.69578348,0.782206303 2.57920228,0.743959622 2.45509972,0.724836282 C2.32911681,0.705712942 2.19059829,0.695842831 2.04205128,0.695842831 C1.67726496,0.695842831 1.38769231,0.802563407 1.18022792,1.01353703 C0.972136752,1.22451066 0.855555556,1.56564637 0.856809117,2.02707406 C0.858062678,2.44717066 0.960854701,2.76301422 1.14575499,3.00359818 C1.32940171,3.24294837 1.60894587,3.36570788 1.98188034,3.36570788 C2.29276353,3.36570788 2.52968661,3.33054561 2.77789174,3.25343536 C2.77789174,3.25343536 2.8374359,3.2281432 2.86564103,3.30463656 C2.93145299,3.48476609 2.98034188,3.61369442 3.05054131,3.81171352 C3.07059829,3.86784978 3.0217094,3.89190817 3.00415954,3.89869387 C2.90638177,3.93632367 2.6757265,3.99739499 2.50148148,4.02330403 C2.33851852,4.0479793 2.14797721,4.06093383 1.93612536,4.06093383 C1.61960114,4.06093383 1.33754986,4.00788198 1.09623932,3.90177828 C0.855555556,3.79629147 0.651225071,3.65070733 0.48951567,3.46934404 C0.327806268,3.28798075 0.204957265,3.07083831 0.122849003,2.8253193 C0.0413675214,2.58041716 0,2.31145664 0,2.02707406 C0,1.41204277 0.168603989,0.91483592 0.501424501,0.550875574 C0.834871795,0.185681465 1.33566952,0 1.98877493,0 C2.37487179,0 2.77099715,0.0771102428 3.05555556,0.18753211 C3.05555556,0.18753211 3.11008547,0.213441152 3.08626781,0.275746228 L2.90136752,0.778505011 Z" id="path3021"></path>
            </g>
            <g id="g3023" transform="translate(37.7375, 14.2255) scale(-1, 1) rotate(-180) translate(-37.7375, -14.2255)translate(35.9734, 12.1956)" fill="#FFFFFF">
                <path d="M0.891282051,2.43854537 C0.927008547,2.67727868 0.994074074,2.87591467 1.09749288,3.03075203 C1.25356125,3.26578405 1.49173789,3.39471238 1.82643875,3.39471238 C2.1611396,3.39471238 2.38239316,3.26516717 2.54096866,3.03075203 C2.64626781,2.87591467 2.69202279,2.66864233 2.71019943,2.43854537 L0.891282051,2.43854537 Z M3.42786325,2.9635119 C3.36393162,3.20101145 3.20535613,3.44097852 3.10131054,3.55078351 C2.93709402,3.72474422 2.77663818,3.84626996 2.6174359,3.91412697 C2.40934473,4.00172421 2.15988604,4.05971111 1.88660969,4.05971111 C1.56820513,4.05971111 1.27925926,4.00727615 1.0448433,3.89870493 C0.80980057,3.7901337 0.612364672,3.64208204 0.457549858,3.45763434 C0.302735043,3.27380352 0.186153846,3.05481043 0.112193732,2.80620701 C0.0376068376,2.55883735 0,2.28925994 0,2.00487736 C0,1.71555973 0.0388603989,1.44598232 0.115954416,1.20354772 C0.193675214,0.959262471 0.317777778,0.743970673 0.485754986,0.565691792 C0.653105413,0.386179146 0.868717949,0.245530064 1.12695157,0.147445835 C1.38330484,0.0499784879 1.69481481,-0.000605831315 2.05270655,5.47544794e-06 C2.78917379,0.0024785784 3.177151,0.164101647 3.33698006,0.251082001 C3.36518519,0.26650405 3.39213675,0.293646855 3.3582906,0.37137398 L3.19156695,0.830951027 C3.16649573,0.899424922 3.09566952,0.874132763 3.09566952,0.874132763 C2.91327635,0.807509513 2.65378917,0.687834416 2.04894587,0.68906818 C1.65344729,0.689685062 1.36011396,0.804425103 1.17646724,0.983937748 C0.987806268,1.16776857 0.895669516,1.43796286 0.879373219,1.8191959 L3.42974359,1.81672837 C3.42974359,1.81672837 3.49680912,1.81796213 3.5037037,1.88211786 C3.50621083,1.90926066 3.59145299,2.39783116 3.42786325,2.9635119" id="path3025"></path>
            </g>
            <g id="g3027" transform="translate(17.3127, 14.2255) scale(-1, 1) rotate(-180) translate(-17.3127, -14.2255)translate(15.5487, 12.1956)" fill="#FFFFFF">
                <path d="M0.891282051,2.43854537 C0.927635328,2.67727868 0.994074074,2.87591467 1.09749288,3.03075203 C1.25356125,3.26578405 1.49173789,3.39471238 1.82643875,3.39471238 C2.1611396,3.39471238 2.38239316,3.26516717 2.54159544,3.03075203 C2.64626781,2.87591467 2.69202279,2.66864233 2.71019943,2.43854537 L0.891282051,2.43854537 Z M3.42723647,2.9635119 C3.36330484,3.20101145 3.20535613,3.44097852 3.10131054,3.55078351 C2.93709402,3.72474422 2.77663818,3.84626996 2.6174359,3.91412697 C2.40934473,4.00172421 2.15988604,4.05971111 1.88660969,4.05971111 C1.56883191,4.05971111 1.27925926,4.00727615 1.0448433,3.89870493 C0.80980057,3.7901337 0.612364672,3.64208204 0.457549858,3.45763434 C0.302735043,3.27380352 0.186153846,3.05481043 0.112193732,2.80620701 C0.0382336182,2.55883735 0,2.28925994 0,2.00487736 C0,1.71555973 0.0388603989,1.44598232 0.115954416,1.20354772 C0.193675214,0.959262471 0.317777778,0.743970673 0.485754986,0.565691792 C0.653105413,0.386179146 0.868717949,0.245530064 1.12695157,0.147445835 C1.38330484,0.0499784879 1.69481481,-0.000605831315 2.05270655,5.47544794e-06 C2.78917379,0.0024785784 3.177151,0.164101647 3.33698006,0.251082001 C3.36518519,0.26650405 3.39213675,0.293646855 3.3582906,0.37137398 L3.19219373,0.830951027 C3.16649573,0.899424922 3.09566952,0.874132763 3.09566952,0.874132763 C2.91327635,0.807509513 2.65441595,0.687834416 2.04831909,0.68906818 C1.65344729,0.689685062 1.36011396,0.804425103 1.17646724,0.983937748 C0.987806268,1.16776857 0.895669516,1.43796286 0.879373219,1.8191959 L3.42974359,1.81672837 C3.42974359,1.81672837 3.49680912,1.81796213 3.5037037,1.88211786 C3.50621083,1.90926066 3.59145299,2.39783116 3.42723647,2.9635119" id="path3029"></path>
            </g>
            <g id="g3031" transform="translate(11.5266, 14.2232) scale(-1, 1) rotate(-180) translate(-11.5266, -14.2232)translate(9.8775, 12.1915)" fill="#FFFFFF" fill-rule="nonzero">
                <path d="M1.04985755,0.794543942 C0.95019943,0.872887948 0.936410256,0.89262817 0.902564103,0.94321249 C0.852421652,1.02032273 0.826723647,1.13012772 0.826723647,1.26954304 C0.826723647,1.49038677 0.900683761,1.64892543 1.05424501,1.75564601 C1.05236467,1.75502913 1.27361823,1.943795 1.79384615,1.9370093 C2.15925926,1.93207424 2.48581197,1.8790224 2.48581197,1.8790224 L2.48581197,0.737790803 L2.48643875,0.737790803 C2.48643875,0.737790803 2.16239316,0.669316907 1.79760684,0.647726039 C1.27863248,0.616881942 1.04797721,0.795160823 1.04985755,0.794543942 M2.06461538,2.55820941 C1.96119658,2.565612 1.82706553,2.56993017 1.66660969,2.56993017 C1.44786325,2.56993017 1.23663818,2.54278737 1.0385755,2.4903524 C0.839259259,2.43791744 0.66,2.35587214 0.505811966,2.24730092 C0.350997151,2.13811281 0.226267806,1.99869749 0.136011396,1.83337313 C0.0457549858,1.66804877 0,1.47311408 0,1.25473787 C0,1.03266037 0.0388603989,0.839576323 0.116581197,0.681654546 C0.194301994,0.523115887 0.306495726,0.391103151 0.449401709,0.289317631 C0.591054131,0.18753211 0.765925926,0.112889395 0.969002849,0.0678570136 C1.16894587,0.0228246319 1.39584046,0 1.64404558,0 C1.90541311,0 2.16615385,0.020973986 2.41874644,0.06353884 C2.66883191,0.105486812 2.97595442,0.166558124 3.06119658,0.185681465 C3.14581197,0.205421687 3.23982906,0.230713846 3.23982906,0.230713846 C3.3031339,0.246135895 3.29811966,0.312759145 3.29811966,0.312759145 L3.2968661,2.60817685 C3.2968661,3.11155252 3.16022792,3.48476609 2.89133903,3.71609682 C2.6237037,3.94681067 2.22945869,4.06340135 1.71988604,4.06340135 C1.52871795,4.06340135 1.22096866,4.03749231 1.03669516,4.00109628 C1.03669516,4.00109628 0.479487179,3.89499258 0.25008547,3.71856435 C0.25008547,3.71856435 0.19994302,3.68772025 0.227521368,3.61862947 L0.408034188,3.14116285 C0.430598291,3.07947466 0.491396011,3.10044864 0.491396011,3.10044864 C0.491396011,3.10044864 0.510826211,3.10785122 0.533390313,3.12080575 C1.02415954,3.38359745 1.64467236,3.37557799 1.64467236,3.37557799 C1.92045584,3.37557799 2.13230769,3.32129238 2.27521368,3.21333804 C2.41435897,3.10846811 2.48518519,2.94992945 2.48518519,2.61557943 L2.48518519,2.50947574 C2.26581197,2.54031984 2.06461538,2.55820941 2.06461538,2.55820941" id="path3033"></path>
            </g>
            <g id="g3035" transform="translate(31.3371, 14.2051) scale(-1, 1) rotate(-180) translate(-31.3371, -14.2051)translate(30.1571, 12.2372)" fill="#FFFFFF">
                <path d="M2.35481481,3.76976555 C2.37424501,3.82651869 2.33350427,3.85366149 2.3165812,3.85983031 C2.27333333,3.87648612 2.05646724,3.92151851 1.88911681,3.9320055 C1.56883191,3.95112884 1.39082621,3.89807699 1.23162393,3.82775245 C1.07367521,3.75742791 0.898176638,3.64392163 0.80039886,3.51499331 L0.80039886,3.82034987 C0.80039886,3.86291472 0.76968661,3.89684323 0.727065527,3.89684323 L0.0733333333,3.89684323 C0.0307122507,3.89684323 0,3.86291472 0,3.82034987 L0,0.0764933608 C0,0.0345453888 0.0350997151,0 0.0777207977,0 L0.747749288,0 C0.79037037,0 0.824843305,0.0345453888 0.824843305,0.0764933608 L0.824843305,1.94687941 C0.824843305,2.19795036 0.853048433,2.44840443 0.909458689,2.60570932 C0.964615385,2.76116357 1.03982906,2.88577373 1.13259259,2.97522161 C1.22598291,3.06405261 1.33190883,3.12635768 1.44786325,3.16151995 C1.56632479,3.19729911 1.69732194,3.20901986 1.79008547,3.20901986 C1.92358974,3.20901986 2.07025641,3.17509136 2.07025641,3.17509136 C2.1191453,3.16953942 2.14672365,3.19914975 2.16301994,3.24294837 C2.20689459,3.35768841 2.33099715,3.70129165 2.35481481,3.76976555" id="path3037"></path>
            </g>
            <g id="g3039" transform="translate(24.0482, 14.2775) scale(-1, 1) rotate(-180) translate(-24.0482, -14.2775)translate(21.8219, 10.583)" fill="#FFFFFF">
                <path d="M4.40076647,7.3038822 C4.31928499,7.32855747 4.24532488,7.34521329 4.14880066,7.36310286 C4.05102288,7.38037556 3.93444169,7.3890119 3.80219098,7.3890119 C3.34088043,7.3890119 2.97734767,7.26070046 2.72224796,7.00777886 C2.4684018,6.75609103 2.29603713,6.37300734 2.2095414,5.8690148 L2.17820237,5.69937226 L1.59905707,5.69937226 C1.59905707,5.69937226 1.52885764,5.70183979 1.51381491,5.62658019 L1.41917103,5.10408119 C1.41227645,5.05473063 1.43421377,5.02326966 1.50190608,5.02326966 L2.06538186,5.02326966 L1.49375793,1.88210681 C1.4492565,1.62918521 1.39786049,1.42129599 1.34082345,1.26337422 C1.28503998,1.10791997 1.23051006,0.991329281 1.16281776,0.906199573 C1.09763257,0.824771157 1.03620807,0.764316726 0.929655364,0.729154456 C0.841906076,0.700161004 0.740367614,0.686589602 0.629427443,0.686589602 C0.568002942,0.686589602 0.48589468,0.696459713 0.425096959,0.708797352 C0.364926019,0.720518108 0.332960207,0.733472629 0.287205221,0.752595969 C0.287205221,0.752595969 0.221393255,0.777271247 0.195068469,0.712498643 C0.174384708,0.658829914 0.0239573579,0.252304714 0.00578071973,0.202337277 C-0.0117691378,0.15236984 0.0133020872,0.113506277 0.0452678992,0.10178552 C0.120481574,0.0758764789 0.17626505,0.0586037845 0.278430292,0.0345453888 C0.420082714,0.00185064583 0.539797814,0 0.651991546,0 C0.8864075,0 1.10076647,0.0326947429 1.27814539,0.095616701 C1.45615109,0.159155541 1.61159269,0.269577409 1.74948442,0.418862839 C1.89803143,0.580485908 1.99142175,0.74951156 2.08042459,0.980842288 C2.16880066,1.20908861 2.24464112,1.4928543 2.30481206,1.82350302 L2.87956989,5.02326966 L3.71945593,5.02326966 C3.71945593,5.02326966 3.79028214,5.02080213 3.8046981,5.09667861 L3.89996875,5.61856073 C3.90623656,5.66852817 3.88492602,5.69937226 3.81660693,5.69937226 L3.00116534,5.69937226 C3.0055528,5.71726184 3.04253286,5.99979377 3.13592317,6.26566989 C3.17603713,6.37855928 3.25125081,6.47047469 3.31455565,6.53339665 C3.37723371,6.59508484 3.44931348,6.63888346 3.52828784,6.66417562 C3.60914254,6.69008466 3.7012793,6.7024223 3.80219098,6.7024223 C3.87865821,6.7024223 3.95449867,6.69378595 4.01153571,6.6820652 C4.09051006,6.66540939 4.12122232,6.65677304 4.14190608,6.65060422 C4.2252679,6.62592894 4.23654995,6.64998734 4.25284625,6.68946778 L4.44777502,7.21628496 C4.467832,7.2730381 4.41831633,7.29709649 4.40076647,7.3038822" id="path3041"></path>
            </g>
            <g id="g3043" transform="translate(14.507, 13.4183) scale(-1, 1) rotate(-180) translate(-14.507, -13.4183)translate(14.007, 10.6639)" fill="#FFFFFF">
                <path d="M1,0.0758764789 C1,0.0339285068 0.962652439,0 0.910823171,0 L0.0884146341,0 C0.0365853659,0 0,0.0339285068 0,0.0758764789 L0,5.43287926 C0,5.47482724 0.0365853659,5.50875574 0.0884146341,5.50875574 L0.910823171,5.50875574 C0.962652439,5.50875574 1,5.47482724 1,5.43287926 L1,0.0758764789 Z" id="path3045"></path>
            </g>
        </g>
    </g>
</svg>