<?xml version="1.0" encoding="UTF-8"?>
<svg width="44px" height="43px" viewBox="0 0 44 43" version="1.1" xmlns="http://www.w3.org/2000/svg" xmlns:xlink="http://www.w3.org/1999/xlink">
    <title>logo-docusign</title>
    <g id="logo-docusign" stroke="none" fill="none" fill-rule="evenodd" stroke-width="1">
        <g id="Group" transform="translate(1, -0)">
            <path d="M30.2438799,30.9639723 L30.2438799,41.9473441 C30.2438799,42.5299461 29.7847575,43 29.2157044,43 L1.02817552,43 C0.459122402,43 0,42.5299461 0,41.9473441 L0,13.0820631 C0,12.4994611 0.459122402,12.0294072 1.02817552,12.0294072 L11.7496536,12.0294072 L11.7496536,29.9113164 C11.7496536,30.4939184 12.208776,30.9639723 12.7778291,30.9639723 L30.2438799,30.9639723 L30.2438799,30.9639723 Z" id="Path" fill="#4C00FF" fill-rule="nonzero"></path>
            <path d="M42,15.4786759 C42,24.7208622 36.7427252,30.9507313 30.2438799,30.9705928 L30.2438799,19.3317937 C30.2438799,18.9941493 30.1145497,18.6763664 29.8817552,18.4380293 L23.9842956,12.400154 C23.7515012,12.1618168 23.4411085,12.0294072 23.1113164,12.0294072 L11.7496536,12.0294072 L11.7496536,1.05265589 C11.7496536,0.470053888 12.208776,0 12.7778291,0 L28.6854503,0 C36.2189376,0 42,6.21662818 42,15.4786759 Z" id="Path" fill="#FF5252" fill-rule="nonzero"></path>
            <path d="M29.8817552,18.4380293 C30.1145497,18.6763664 30.2438799,18.9941493 30.2438799,19.3317937 L30.2438799,30.9705928 L12.7778291,30.9705928 C12.208776,30.9705928 11.7496536,30.5005389 11.7496536,29.9179369 L11.7496536,12.0294072 L23.1177829,12.0294072 C23.4475751,12.0294072 23.7579677,12.1618168 23.9907621,12.400154 L29.8817552,18.4380293 Z" id="Path" fill="#000000" fill-rule="nonzero"></path>
        </g>
    </g>
</svg>