<?xml version="1.0" encoding="UTF-8"?>
<svg width="44px" height="43px" viewBox="0 0 44 43" version="1.1" xmlns="http://www.w3.org/2000/svg" xmlns:xlink="http://www.w3.org/1999/xlink">
    <title>logo-synthesia</title>
    <g id="logo-synthesia" stroke="none" fill="none">
        <path d="M6.047431,0 L37.8578431,0 C39.9936049,0 40.7680837,0.217718252 41.5488863,0.626547614 C42.3296888,1.03537698 42.9424673,1.63531745 43.3600451,2.3997619 L43.4149611,2.50253142 C43.7970914,3.23478167 44,4.01608713 44,6.0134762 L44,36.9865238 C44,39.0775405 43.7776229,39.8357937 43.3600451,40.6002381 C42.9424673,41.3646825 42.3296888,41.964623 41.5488863,42.3734524 L41.4439176,42.4272179 C40.6959981,42.8013424 39.8979737,43 37.8578431,43 L6.14215692,43 C4.00639515,43 3.23191632,42.7822817 2.45111374,42.3734524 C1.67031116,41.964623 1.05753272,41.3646825 0.639954935,40.6002381 L0.585038909,40.4974686 C0.208879403,39.7766597 0.00638464959,39.0083167 0,37.0792652 L0,6.0134762 C0,3.92245952 0.222377145,3.16420634 0.639954935,2.3997619 C1.05753272,1.63531745 1.67031116,1.03537698 2.45111374,0.626547614 L2.55608241,0.572782102 C3.29231563,0.204503294 4.07710024,0.00625088855 6.047431,0 L6.047431,0 Z" id="Rectangle-Copy" fill="#3E57DA" fill-rule="evenodd"></path>
        <path d="M12.8497515,30.7425 L28.5195536,30.7425 C32.3798356,30.7425 34.8388881,28.4037069 35.2393264,24.8249655 L36.04,17.4140772 L30.6354022,17.4140772 L29.891963,24.1769908 C29.8061113,25.0788113 29.2343755,25.5858228 28.2906157,25.5858228 L13.364476,25.5858228 L12.8497515,30.7425 Z M13.364476,25.5858228 L14.1078949,18.8229092 C14.1937466,17.9211087 14.7656447,17.4140772 15.7092625,17.4140772 L30.6354022,17.4140772 L31.1503094,12.2575 L15.4803652,12.2575 C11.6200832,12.2575 9.1609719,14.5964131 8.76057825,18.1749345 L7.96,25.5858228 L13.364476,25.5858228 Z" id="Shape" fill="#FFFFFF" fill-rule="nonzero"></path>
    </g>
</svg>