<?xml version="1.0" encoding="UTF-8"?>
<svg width="44px" height="43px" viewBox="0 0 44 43" version="1.1" xmlns="http://www.w3.org/2000/svg" xmlns:xlink="http://www.w3.org/1999/xlink">
    <title>logo-gcalendar</title>
    <g id="logo-gcalendar" stroke="none" fill="none" fill-rule="evenodd" stroke-width="1">
        <g id="Livello_1" transform="translate(0.5, 0)">
            <polygon id="Path" fill="#FFFFFF" fill-rule="nonzero" points="32.81588 10.18412 22.63176 9.052575 10.184335 10.18412 9.052575 21.5 10.18412 32.81588 21.5 34.230365 32.81588 32.81588 33.947425 21.217275"></polygon>
            <path d="M14.826615,27.74059 C13.980805,27.16912 13.395145,26.334705 13.07544,25.231325 L15.03882,24.42228 C15.217055,25.10125 15.52816,25.627355 15.97235,26.00081 C16.413745,26.374265 16.951245,26.55809 17.57926,26.55809 C18.221465,26.55809 18.773155,26.36287 19.234115,25.97243 C19.695075,25.58199 19.927275,25.08405 19.927275,24.48162 C19.927275,23.865 19.683895,23.361255 19.19735,22.97103 C18.710805,22.580805 18.099775,22.38537 17.36985,22.38537 L16.23551,22.38537 L16.23551,20.441985 L17.25375,20.441985 C17.881765,20.441985 18.41088,20.27235 18.84088,19.932865 C19.27088,19.59338 19.48588,19.12941 19.48588,18.53816 C19.48588,18.012055 19.293455,17.593235 18.90882,17.279335 C18.524185,16.965435 18.037425,16.80698 17.446175,16.80698 C16.869115,16.80698 16.410735,16.959845 16.07125,17.268155 C15.731765,17.576465 15.48559,17.95551 15.330145,18.402495 L13.38676,17.59345 C13.644115,16.863525 14.116685,16.218525 14.80963,15.661245 C15.50279,15.103965 16.38816,14.82382 17.46316,14.82382 C18.258015,14.82382 18.97375,14.976685 19.60757,15.284995 C20.241175,15.593305 20.739115,16.02051 21.09838,16.5636 C21.457645,17.109485 21.63588,17.72073 21.63588,18.399485 C21.63588,19.092645 21.46904,19.67809 21.135145,20.159045 C20.80125,20.64 20.39103,21.00765 19.904485,21.26522 L19.904485,21.381105 C20.54669,21.649855 21.07,22.060075 21.483015,22.611765 C21.893235,23.163455 22.099635,23.822645 22.099635,24.59213 C22.099635,25.361615 21.904415,26.04897 21.513975,26.651615 C21.123535,27.25426 20.58324,27.72941 19.89868,28.074485 C19.211325,28.41956 18.439045,28.5950203 17.58184,28.5950203 C16.58897,28.597795 15.672425,28.31206 14.826615,27.74059 Z" id="Path" fill="#1A73E8" fill-rule="nonzero"></path>
            <polygon id="Path" fill="#1A73E8" fill-rule="nonzero" points="26.875 17.997865 24.73059 19.556615 23.652795 17.92154 27.52 15.13213 29.002425 15.13213 29.002425 28.289485 26.875 28.289485"></polygon>
            <polygon id="Path" fill="#EA4335" fill-rule="nonzero" points="32.81588 43 43 32.81588 37.90794 30.55279 32.81588 32.81588 30.55279 37.90794"></polygon>
            <polygon id="Path" fill="#34A853" fill-rule="nonzero" points="7.92103 37.90794 10.18412 43 32.815665 43 32.815665 32.81588 10.18412 32.81588"></polygon>
            <path d="M3.394635,0 C1.51919,0 0,1.51919 0,3.394635 L0,32.815665 L5.09206,35.078755 L10.18412,32.815665 L10.18412,10.18412 L32.815665,10.18412 L35.078755,5.09206 L32.81588,0 L3.394635,0 Z" id="Path" fill="#4285F4" fill-rule="nonzero"></path>
            <path d="M0,32.81588 L0,39.605365 C0,41.481025 1.51919,43 3.394635,43 L10.18412,43 L10.18412,32.81588 L0,32.81588 Z" id="Path" fill="#188038" fill-rule="nonzero"></path>
            <polygon id="Path" fill="#FBBC04" fill-rule="nonzero" points="32.81588 10.18412 32.81588 32.815665 43 32.815665 43 10.18412 37.90794 7.92103"></polygon>
            <path d="M43,10.18412 L43,3.394635 C43,1.518975 41.48081,0 39.605365,0 L32.81588,0 L32.81588,10.18412 L43,10.18412 Z" id="Path" fill="#1967D2" fill-rule="nonzero"></path>
        </g>
    </g>
</svg>