<?xml version="1.0" encoding="UTF-8"?>
<svg width="44px" height="43px" viewBox="0 0 44 43" version="1.1" xmlns="http://www.w3.org/2000/svg" xmlns:xlink="http://www.w3.org/1999/xlink">
    <title>logo-heroku</title>
    <g id="logo-heroku" stroke="none" fill="none" transform="translate(0, 0)" fill-rule="evenodd" stroke-width="1">
        <g id="Group" transform="translate(4.3509, 1.8482)">
            <path d="M31.543002,0 L3.75511928,0 C1.00136514,0 0,1.00136514 0,3.75511928 L0,35.5484625 C0,38.3022167 1.00136514,39.3035818 3.75511928,39.3035818 L31.543002,39.3035818 C34.2967561,39.3035818 35.2981212,38.3022167 35.2981212,35.5484625 L35.2981212,3.75511928 C35.2981212,1.00136514 34.1715855,0 31.543002,0" id="Path" fill="#440099" fill-rule="nonzero"></path>
            <path d="M8.38643306,23.1565689 C15.3959891,19.6517909 20.1524735,19.276279 21.7796918,20.0273028 C22.9062276,20.5279854 22.9062276,21.9048625 22.9062276,21.9048625 L22.9062276,34.2967561 L27.0368588,34.2967561 L27.0368588,21.7796918 C27.0368588,21.7796918 26.9116882,17.7742313 23.6572515,16.2721836 C20.4028148,14.7701358 15.8966716,16.1470129 12.6422349,17.0232074 L12.6422349,5.13199635 L8.38643306,5.13199635 M23.9075928,11.8912111 C23.9075928,11.8912111 26.6613469,9.13745692 27.0368588,5.13199635 L22.781057,5.13199635 C22.1552038,8.76194499 19.6517909,11.8912111 19.6517909,11.8912111 M8.38643306,34.1715855 L13.0177468,30.0409542 L8.38643306,25.910323" id="Shape" fill="#FFFFFF" fill-rule="nonzero"></path>
        </g>
    </g>
</svg>