<?xml version="1.0" encoding="UTF-8"?>
<svg width="44px" height="43px" viewBox="0 0 44 43" version="1.1" xmlns="http://www.w3.org/2000/svg" xmlns:xlink="http://www.w3.org/1999/xlink">
    <title>logo-tikapi</title>
    <defs>
        <linearGradient x1="18.248485%" y1="15.1516521%" x2="95.1649727%" y2="93.3329716%" id="linearGradient-1">
            <stop stop-color="#5F2DFC" offset="0%"></stop>
            <stop stop-color="#6935CE" offset="100%"></stop>
        </linearGradient>
    </defs>
    <g id="logo-tikapi" stroke="none" stroke-width="1" fill="none" fill-rule="evenodd">
        <g id="Group-23" transform="translate(0.4008, -0.06)">
            <path d="M5.9372578,2.4362964e-16 L37.168142,2.4362964e-16 C39.2649941,2.4362964e-16 40.0253633,0.218325837 40.7919411,0.628296119 C41.5585189,1.0382664 42.1601336,1.63988113 42.5701039,2.40645891 L42.6240194,2.50951523 C42.999188,3.24380897 43.1984,4.02729481 43.1984,6.03025799 L43.1984,37.089742 C43.1984,39.1865941 42.9800742,39.9469633 42.5701039,40.7135411 C42.1601336,41.4801189 41.5585189,42.0817336 40.7919411,42.4917039 L40.6888848,42.5456194 C39.954591,42.920788 39.1711052,43.12 37.168142,43.12 L6.03025799,43.12 C3.93340591,43.12 3.17303668,42.9016742 2.40645891,42.4917039 C1.63988113,42.0817336 1.0382664,41.4801189 0.628296119,40.7135411 L0.574380564,40.6104848 C0.205074001,39.8876644 0.00626833289,39.1171771 1.6241976e-16,37.1827422 L1.6241976e-16,6.03025799 C1.6241976e-16,3.93340591 0.218325837,3.17303668 0.628296119,2.40645891 C1.0382664,1.63988113 1.63988113,1.0382664 2.40645891,0.628296119 L2.50951523,0.574380564 C3.23233563,0.205074001 4.00282289,0.00626833289 5.9372578,2.4362964e-16 L5.9372578,2.4362964e-16 Z" id="Rectangle" fill="url(#linearGradient-1)"></path>
            <path d="M7.93792826,12.0247331 L8.26514491,9.69832026 C8.5373027,7.76335944 10.1929288,6.32430529 12.1469358,6.32430529 L34.0708258,6.32430529 C34.7636118,6.32430529 35.3252258,6.8859193 35.3252258,7.57870529 C35.3252258,7.61874981 35.3233083,7.65877137 35.3194798,7.69863247 L35.1072211,9.90862078 C34.914119,11.9191551 33.2249636,13.4538483 31.2051773,13.4538483 L25.2330204,13.4538483 L25.2330204,33.1718004 C25.2330204,35.1635601 23.6183802,36.7782004 21.6266204,36.7782004 L18.0543386,36.7782004 C17.8811421,36.7782004 17.7407386,36.6377969 17.7407386,36.4646004 L17.7407386,13.4538483 L9.18010134,13.4538483 C8.48731535,13.4538483 7.92570134,12.8922343 7.92570134,12.1994483 C7.92570134,12.1409962 7.92978694,12.0826155 7.93792826,12.0247331 Z" id="Path-7" fill="#FFFFFF"></path>
        </g>
    </g>
</svg>