<?xml version="1.0" encoding="UTF-8"?>
<svg width="44px" height="43px" viewBox="0 0 44 43" version="1.1" xmlns="http://www.w3.org/2000/svg" xmlns:xlink="http://www.w3.org/1999/xlink">
    <title>logo-serp</title>
    <defs>
        <linearGradient x1="86.3251036%" y1="12.837152%" x2="13.5848238%" y2="85.3908803%" id="linearGradient-1">
            <stop stop-color="#8D45F0" offset="0%"></stop>
            <stop stop-color="#377FEA" offset="100%"></stop>
        </linearGradient>
    </defs>
    <g id="logo-serp" stroke="none" stroke-width="1" fill="none" fill-rule="evenodd">
        <path d="M28.8326232,0 C33.9327849,0 35.7822268,0.531059939 37.6467697,1.52822839 C39.5113126,2.52539684 40.9746168,3.98870102 41.9717852,5.85324392 L42.018259,5.94078456 C42.771728,7.37084281 43.2504912,8.82207563 43.4252841,11.767161 L35.9563153,11.767254 C35.2278782,9.55497601 32.9984205,7.94486496 30.3611058,7.94486496 C27.1321799,7.94486496 24.5146183,10.3583694 24.5146183,13.3355779 C24.5146183,15.8838072 26.4322067,18.0190749 29.0094394,18.5815022 L29.0094394,24.3718071 C26.4322067,24.9342344 24.5146183,27.0695021 24.5146183,29.6177314 C24.5146183,32.1659607 26.4322067,34.3012283 29.0094394,34.8636556 L29.0096804,43 L28.8326232,43 L15.744887,43 L15.745009,34.8636419 C18.2964379,34.306818 20.2013501,32.2084877 20.2391932,29.6940526 L20.2397672,29.6177314 C20.2397672,26.6405228 17.6222056,24.2270184 14.3932797,24.2270184 C11.8825647,24.2270184 9.74148945,25.6862586 8.91322774,27.7350922 L0.500013605,27.7351082 L0.500013605,14.6673904 C0.500013605,9.5672287 1.03104633,7.71778681 2.02821479,5.85324392 C3.02538324,3.98870102 4.48868742,2.52539684 6.35323031,1.52822839 C7.93228265,0.683741963 9.50050433,0.173574239 13.0415442,0.0371434487 L13.0416133,8.08965369 C10.4643806,8.65208099 8.54679214,10.7873486 8.54679214,13.3355779 C8.54679214,16.3127865 11.1643538,18.7262909 14.3932797,18.7262909 C17.6222056,18.7262909 20.2397672,16.3127865 20.2397672,13.3355779 C20.2397672,10.7873694 18.3222099,8.65211573 15.745009,8.08966742 L15.744887,0 L28.8326232,0 Z M0.536363944,30.4383501 L8.61410153,30.4383501 C8.97460054,32.6146735 10.7465534,34.3628066 13.0416133,34.8636556 L13.0416133,42.9628838 C9.50050433,42.826453 7.93228265,42.3162852 6.35323031,41.4717988 C4.50733285,40.484602 3.05468945,39.0405457 2.05826962,37.2025991 L2.02821479,37.1467833 C1.1821399,35.5647608 0.671642596,33.9936098 0.536363944,30.4383501 Z M43.4999864,14.6673904 L43.4999864,28.3326368 C43.4999864,33.4327985 42.9689537,35.2822404 41.9717852,37.1467833 C40.9746168,39.0113262 39.5113126,40.4746304 37.6467697,41.4717988 C36.1845584,42.2537979 34.7316343,42.7491234 31.7128351,42.9264755 L31.7128351,34.8636419 C34.2900361,34.3011936 36.2075933,32.1659399 36.2075933,29.6177314 C36.2075933,27.0695228 34.2900361,24.9342692 31.7128351,24.3718209 L31.7128351,18.5814884 C33.8962569,18.1049785 35.6062135,16.4995732 36.0777797,14.4703393 L43.4997179,14.4703393 L43.4999864,14.6673904 Z" id="Shape" fill="url(#linearGradient-1)"></path>
    </g>
</svg>