<?xml version="1.0" encoding="UTF-8"?>
<svg width="44px" height="44px" viewBox="0 0 44 44" version="1.1" xmlns="http://www.w3.org/2000/svg" xmlns:xlink="http://www.w3.org/1999/xlink">
    <title>logo-canva</title>
    <defs>
        <linearGradient x1="40.9987731%" y1="15.3236408%" x2="69.847433%" y2="90.1212431%" id="linearGradient-1">
            <stop stop-color="#07C1CB" offset="0%"></stop>
            <stop stop-color="#1DA8D7" offset="27.209166%"></stop>
            <stop stop-color="#3F69E3" offset="64.2252285%"></stop>
            <stop stop-color="#7D2AE7" offset="100%"></stop>
        </linearGradient>
    </defs>
    <g id="logo-canva" stroke="none" fill="none" transform="translate(0, 0.5)" fill-rule="nonzero">
        <circle id="Oval" fill="url(#linearGradient-1)" cx="22" cy="21.5" r="21.5"></circle>
        <path d="M20.9761546,32.5862845 C16.6877745,32.5862845 14.1190937,29.8175738 14.1190937,24.2474249 C14.1190937,16.2056057 20.0949267,9.63523045 24.5273029,9.63523045 C26.6467436,9.63523045 27.6592154,10.9688655 27.6592154,13.0137725 C27.6592154,15.4898882 26.2597545,16.6412598 26.2597545,17.5836952 C26.2597545,17.8726495 26.5027477,18.1571583 26.9842342,18.1571583 C28.9101804,18.1571583 31.178117,15.9210969 31.178117,12.8715181 C31.178117,9.82193935 28.6716871,7.59032341 24.2393109,7.59032341 C16.9135156,7.59032341 9.54272158,14.8719706 9.54272158,24.2029704 C9.54272158,31.626872 13.250618,36.1034402 19.6629388,36.1034402 C26.2597545,36.1034402 31.9582493,30.284688 31.178117,26.1097598 C30.6248196,25.4529066 29.9850798,28.0234008 29.0117236,28.964744 C26.7091626,31.1915752 25.1020294,32.5862845 20.9761546,32.5862845 Z" id="Shape-Copy" fill="#FFFFFF"></path>
    </g>
</svg>