<?xml version="1.0" encoding="UTF-8"?>
<svg width="44px" height="43px" viewBox="0 0 44 43" version="1.1" xmlns="http://www.w3.org/2000/svg" xmlns:xlink="http://www.w3.org/1999/xlink">
    <title>logo-notion</title>
    <g id="logo-notion" stroke="none" fill="none" fill-rule="evenodd" stroke-width="1">
        <g id="Graphic" transform="translate(0.5, 0)">
            <g id="Group" transform="translate(0, -0.0005)">
                <path d="M2.58731,1.85510284 L26.3805,0.0976928424 C29.30321,-0.152997158 30.05399,0.0159928424 31.89181,1.35200284 L39.4869,6.70249284 C40.73949,7.62269284 41.15659,7.87338284 41.15659,8.87528284 L41.15659,38.2197728 C41.15659,40.0588828 40.4888,41.1467828 38.15089,41.3127628 L10.52081,42.9863228 C8.76641,43.0693128 7.93092,42.8186228 7.01201,41.6477328 L1.419,34.3747128 C0.41581,33.0361228 0,32.0342228 0,30.8629028 L0,4.77910284 C0,3.27539284 0.66779,2.02151284 2.58731,1.85510284 Z" id="Path" fill="#FFFFFF" fill-rule="nonzero"></path>
                <path d="M26.3805,0.0981228424 L2.58731,1.85553284 C0.66779,2.02151284 0,3.27582284 0,4.77910284 L0,30.8629028 C0,32.0337928 0.41581,33.0356928 1.419,34.3747128 L7.01201,41.6473028 C7.93092,42.8181928 8.76641,43.0693128 10.52081,42.9858928 L38.15132,41.3131928 C40.48751,41.1467828 41.15702,40.0588828 41.15702,38.2202028 L41.15702,8.87571284 C41.15702,7.92541284 40.78163,7.65150284 39.67653,6.84052284 L31.89181,1.35200284 C30.05442,0.0159928424 29.30321,-0.152997158 26.3805,0.0976928424 L26.3805,0.0981228424 Z M11.1456,8.39540284 C8.88939,8.54719284 8.37769,8.58159284 7.09629,7.53970284 L3.83861,4.94852284 C3.50751,4.61312284 3.67392,4.19473284 4.50812,4.11131284 L27.38111,2.43990284 C29.30192,2.27220284 30.3021,2.94171284 31.05331,3.52651284 L34.9762,6.36881284 C35.1439,6.45352284 35.561,6.95361284 35.05919,6.95361284 L11.438,8.37562284 L11.1456,8.39583284 L11.1456,8.39540284 Z M8.51529,37.9695128 L8.51529,13.0583228 C8.51529,11.9704228 8.8494,11.4686128 9.84958,11.3843328 L36.98,9.79591284 C37.9002,9.71292284 38.31601,10.2977228 38.31601,11.3839028 L38.31601,36.1291128 C38.31601,37.2170128 38.14831,38.1372128 36.64632,38.2202028 L10.68421,39.7252028 C9.18222,39.8081928 8.51572,39.3081028 8.51572,37.9695128 L8.51529,37.9695128 Z M34.14329,14.3939028 C34.3097,15.1464028 34.14329,15.8989028 33.39079,15.9849028 L32.13949,16.2330128 L32.13949,34.6254028 C31.05288,35.2102028 30.0527,35.5443128 29.21678,35.5443128 C27.88077,35.5443128 27.54709,35.1259228 26.54648,33.8729028 L18.36358,20.9987028 L18.36358,33.4545128 L20.95218,34.0406028 C20.95218,34.0406028 20.95218,35.5456028 18.86367,35.5456028 L13.10597,35.8797128 C12.93827,35.5443128 13.10597,34.7088228 13.68948,34.5424128 L15.19319,34.1253128 L15.19319,17.6563128 L13.1064,17.4873228 C12.9387,16.7348228 13.3558,15.6482128 14.5254,15.5639328 L20.70321,15.1481228 L29.21721,28.1887328 L29.21721,16.6518328 L27.047,16.4024328 C26.8793,15.4809428 27.54709,14.8114328 28.38129,14.7297328 L34.14329,14.3943328 L34.14329,14.3939028 Z" id="Shape" fill="#000000"></path>
            </g>
        </g>
    </g>
</svg>