<?xml version="1.0" encoding="UTF-8"?>
<svg width="44px" height="44px" viewBox="0 0 44 44" version="1.1" xmlns="http://www.w3.org/2000/svg" xmlns:xlink="http://www.w3.org/1999/xlink">
    <title>logo-clerk</title>
    <g id="logo-clerk" stroke="none" fill="none" transform="translate(0, 0.5)" fill-rule="evenodd" stroke-width="1">
        <g id="Group" transform="translate(4.85, -0)">
            <ellipse id="Oval" fill="#654BF6" fill-rule="nonzero" cx="21.6908024" cy="21.5" rx="6.77837575" ry="6.71875"></ellipse>
            <path d="M33.7466859,3.62409375 C34.4243202,4.07398125 34.4822753,5.02038437 33.9054355,5.59201562 L28.9519341,10.5020109 C28.5042562,10.9457844 27.80971,11.0158609 27.2461897,10.729743 C25.5799633,9.88361719 23.6916095,9.40625 21.6908024,9.40625 C14.9523174,9.40625 9.48972605,14.8207898 9.48972605,21.5 C9.48972605,23.483207 9.97132965,25.35495 10.8249644,27.0065195 C11.1136215,27.5650828 11.0429231,28.2535195 10.5952114,28.6972594 L5.64164214,33.6071875 C5.06493793,34.1789531 4.11013592,34.1215078 3.65625588,33.4498344 C1.34690054,30.032443 0,25.9221133 0,21.5 C0,9.62588594 9.71131116,0 21.6908024,0 C26.1521599,0 30.2989668,1.33505258 33.7466859,3.62409375 Z" id="Path" fill="#ADA0F6" fill-rule="nonzero"></path>
            <path d="M33.9054355,37.4079844 C34.4822753,37.97975 34.4243202,38.9260859 33.7467198,39.3759062 C30.2989668,41.6649844 26.1521938,43 21.6908024,43 C17.2294111,43 13.082638,41.6649844 9.63488497,39.3759062 C8.95725074,38.9260859 8.89936342,37.97975 9.47606762,37.4079844 L14.4296368,32.4979891 C14.8773147,32.0542156 15.5718609,31.9841055 16.1353812,32.270257 C17.8016076,33.1163828 19.6899614,33.59375 21.6908024,33.59375 C23.6916434,33.59375 25.5799972,33.1163828 27.2462236,32.270257 C27.8097439,31.9841055 28.5042562,32.0542156 28.951968,32.4979891 L33.9054355,37.4079844 Z" id="Path" fill="#654BF6" fill-rule="nonzero"></path>
        </g>
    </g>
</svg>