<?xml version="1.0" encoding="UTF-8"?>
<svg width="44px" height="44px" viewBox="0 0 44 44" version="1.1" xmlns="http://www.w3.org/2000/svg" xmlns:xlink="http://www.w3.org/1999/xlink">
    <title>logo-googleslides</title>
    <defs>
        <path d="M19.7222222,0 L2.95833333,0 C1.33125,0 0,1.33125 0,2.95833333 L0,40.4305555 C0,42.0576389 1.33125,43.3888889 2.95833333,43.3888889 L28.5972222,43.3888889 C30.2243055,43.3888889 31.5555555,42.0576389 31.5555555,40.4305555 L31.5555555,11.8333333 L19.7222222,0 Z" id="path-1"></path>
        <path d="M19.7222222,0 L2.95833333,0 C1.33125,0 0,1.33125 0,2.95833333 L0,40.4305555 C0,42.0576389 1.33125,43.3888889 2.95833333,43.3888889 L28.5972222,43.3888889 C30.2243055,43.3888889 31.5555555,42.0576389 31.5555555,40.4305555 L31.5555555,11.8333333 L19.7222222,0 Z" id="path-3"></path>
        <path d="M19.7222222,0 L2.95833333,0 C1.33125,0 0,1.33125 0,2.95833333 L0,40.4305555 C0,42.0576389 1.33125,43.3888889 2.95833333,43.3888889 L28.5972222,43.3888889 C30.2243055,43.3888889 31.5555555,42.0576389 31.5555555,40.4305555 L31.5555555,11.8333333 L19.7222222,0 Z" id="path-5"></path>
        <linearGradient x1="50.0053945%" y1="8.58610612%" x2="50.0053945%" y2="100.013939%" id="linearGradient-7">
            <stop stop-color="#BF360C" stop-opacity="0.2" offset="0%"></stop>
            <stop stop-color="#BF360C" stop-opacity="0.02" offset="100%"></stop>
        </linearGradient>
        <path d="M19.7222222,0 L2.95833333,0 C1.33125,0 0,1.33125 0,2.95833333 L0,40.4305555 C0,42.0576389 1.33125,43.3888889 2.95833333,43.3888889 L28.5972222,43.3888889 C30.2243055,43.3888889 31.5555555,42.0576389 31.5555555,40.4305555 L31.5555555,11.8333333 L19.7222222,0 Z" id="path-8"></path>
        <path d="M19.7222222,0 L2.95833333,0 C1.33125,0 0,1.33125 0,2.95833333 L0,40.4305555 C0,42.0576389 1.33125,43.3888889 2.95833333,43.3888889 L28.5972222,43.3888889 C30.2243055,43.3888889 31.5555555,42.0576389 31.5555555,40.4305555 L31.5555555,11.8333333 L19.7222222,0 Z" id="path-10"></path>
        <path d="M19.7222222,0 L2.95833333,0 C1.33125,0 0,1.33125 0,2.95833333 L0,40.4305555 C0,42.0576389 1.33125,43.3888889 2.95833333,43.3888889 L28.5972222,43.3888889 C30.2243055,43.3888889 31.5555555,42.0576389 31.5555555,40.4305555 L31.5555555,11.8333333 L19.7222222,0 Z" id="path-12"></path>
        <path d="M19.7222222,0 L2.95833333,0 C1.33125,0 0,1.33125 0,2.95833333 L0,40.4305555 C0,42.0576389 1.33125,43.3888889 2.95833333,43.3888889 L28.5972222,43.3888889 C30.2243055,43.3888889 31.5555555,42.0576389 31.5555555,40.4305555 L31.5555555,11.8333333 L19.7222222,0 Z" id="path-14"></path>
        <path d="M19.7222222,0 L2.95833333,0 C1.33125,0 0,1.33125 0,2.95833333 L0,40.4305555 C0,42.0576389 1.33125,43.3888889 2.95833333,43.3888889 L28.5972222,43.3888889 C30.2243055,43.3888889 31.5555555,42.0576389 31.5555555,40.4305555 L31.5555555,11.8333333 L19.7222222,0 Z" id="path-16"></path>
        <radialGradient cx="3.16804688%" cy="2.7174314%" fx="3.16804688%" fy="2.7174314%" r="161.248516%" gradientTransform="translate(0.0317, 0.0272), scale(1, 0.7273), translate(-0.0317, -0.0272)" id="radialGradient-18">
            <stop stop-color="#FFFFFF" stop-opacity="0.1" offset="0%"></stop>
            <stop stop-color="#FFFFFF" stop-opacity="0" offset="100%"></stop>
        </radialGradient>
    </defs>
    <g id="logo-googleslides" stroke="none" fill="none" transform="translate(0, 0.5)" fill-rule="evenodd" stroke-width="1">
        <g id="Slides-icon" transform="translate(6, -0.5)">
            <g id="Group">
                <g id="Clipped">
                    <mask id="mask-2" fill="white">
                        <use xlink:href="#path-1"></use>
                    </mask>
                    <g id="path-1"></g>
                    <path d="M19.7222222,0 L2.95833333,0 C1.33125,0 0,1.33125 0,2.95833333 L0,40.4305555 C0,42.0576389 1.33125,43.3888889 2.95833333,43.3888889 L28.5972222,43.3888889 C30.2243055,43.3888889 31.5555555,42.0576389 31.5555555,40.4305555 L31.5555555,11.8333333 L24.6527778,6.9027778 L19.7222222,0 Z" id="Path" fill="#F4B400" fill-rule="nonzero" mask="url(#mask-2)"></path>
                </g>
                <g id="Clipped">
                    <mask id="mask-4" fill="white">
                        <use xlink:href="#path-3"></use>
                    </mask>
                    <g id="path-3"></g>
                    <path d="M22.1875,19.7222222 L9.36805553,19.7222222 C8.55451387,19.7222222 7.88888887,20.3878472 7.88888887,21.2013889 L7.88888887,34.0208333 C7.88888887,34.834375 8.55451387,35.5 9.36805553,35.5 L22.1875,35.5 C23.0010417,35.5 23.6666667,34.834375 23.6666667,34.0208333 L23.6666667,21.2013889 C23.6666667,20.3878472 23.0010417,19.7222222 22.1875,19.7222222 Z M21.6944445,31.0625 L9.86111113,31.0625 L9.86111113,24.1597222 L21.6944445,24.1597222 L21.6944445,31.0625 Z" id="Shape" fill="#F1F1F1" fill-rule="nonzero" mask="url(#mask-4)"></path>
                </g>
                <g id="Clipped">
                    <mask id="mask-6" fill="white">
                        <use xlink:href="#path-5"></use>
                    </mask>
                    <g id="path-5"></g>
                    <polygon id="Path" fill="url(#linearGradient-7)" fill-rule="nonzero" mask="url(#mask-6)" points="20.5875347 10.9680209 31.5555555 21.9335764 31.5555555 11.8333333"></polygon>
                </g>
                <g id="Clipped">
                    <mask id="mask-9" fill="white">
                        <use xlink:href="#path-8"></use>
                    </mask>
                    <g id="path-8"></g>
                    <g id="Group" mask="url(#mask-9)" fill="#FADA80" fill-rule="nonzero">
                        <g transform="translate(19.7222, 0)" id="Path">
                            <path d="M0,0 L0,8.87499998 C0,10.5094792 1.32385417,11.8333333 2.95833333,11.8333333 L11.8333333,11.8333333 L0,0 Z"></path>
                        </g>
                    </g>
                </g>
                <g id="Clipped">
                    <mask id="mask-11" fill="white">
                        <use xlink:href="#path-10"></use>
                    </mask>
                    <g id="path-10"></g>
                    <polygon id="Path" fill-opacity="0.1" fill="#FFFFFF" fill-rule="nonzero" mask="url(#mask-11)" points="19.7222222 0 19.7222222 0.246527778 31.3090278 11.8333333 31.5555555 11.8333333"></polygon>
                </g>
                <g id="Clipped">
                    <mask id="mask-13" fill="white">
                        <use xlink:href="#path-12"></use>
                    </mask>
                    <g id="path-12"></g>
                    <path d="M2.95833333,0 C1.33125,0 0,1.33125 0,2.95833333 L0,3.20486111 C0,1.57777778 1.33125,0.246527778 2.95833333,0.246527778 L19.7222222,0.246527778 L19.7222222,0 L2.95833333,0 Z" id="Path" fill-opacity="0.2" fill="#FFFFFF" fill-rule="nonzero" mask="url(#mask-13)"></path>
                </g>
                <g id="Clipped">
                    <mask id="mask-15" fill="white">
                        <use xlink:href="#path-14"></use>
                    </mask>
                    <g id="path-14"></g>
                    <path d="M28.5972222,43.1423611 L2.95833333,43.1423611 C1.33125,43.1423611 0,41.8111111 0,40.1840278 L0,40.4305555 C0,42.0576389 1.33125,43.3888889 2.95833333,43.3888889 L28.5972222,43.3888889 C30.2243055,43.3888889 31.5555555,42.0576389 31.5555555,40.4305555 L31.5555555,40.1840278 C31.5555555,41.8111111 30.2243055,43.1423611 28.5972222,43.1423611 Z" id="Path" fill-opacity="0.2" fill="#BF360C" fill-rule="nonzero" mask="url(#mask-15)"></path>
                </g>
                <g id="Clipped">
                    <mask id="mask-17" fill="white">
                        <use xlink:href="#path-16"></use>
                    </mask>
                    <g id="path-16"></g>
                    <path d="M22.6805555,11.8333333 C21.0460764,11.8333333 19.7222222,10.5094792 19.7222222,8.875 L19.7222222,9.1215278 C19.7222222,10.7560069 21.0460764,12.0798611 22.6805555,12.0798611 L31.5555555,12.0798611 L31.5555555,11.8333333 L22.6805555,11.8333333 Z" id="Path" fill-opacity="0.1" fill="#BF360C" fill-rule="nonzero" mask="url(#mask-17)"></path>
                </g>
            </g>
            <path d="M19.7222222,0 L2.95833333,0 C1.33125,0 0,1.33125 0,2.95833333 L0,40.4305555 C0,42.0576389 1.33125,43.3888889 2.95833333,43.3888889 L28.5972222,43.3888889 C30.2243055,43.3888889 31.5555555,42.0576389 31.5555555,40.4305555 L31.5555555,11.8333333 L19.7222222,0 Z" id="Path" fill="url(#radialGradient-18)" fill-rule="nonzero"></path>
        </g>
    </g>
</svg>