<?xml version="1.0" encoding="UTF-8"?>
<svg width="44px" height="43px" viewBox="0 0 44 43" version="1.1" xmlns="http://www.w3.org/2000/svg" xmlns:xlink="http://www.w3.org/1999/xlink">
    <title>logo-financial-datasets</title>
    <defs>
        <linearGradient x1="0%" y1="0%" x2="100%" y2="0%" id="linearGradient-1">
            <stop stop-color="#2383F4" offset="0%"></stop>
            <stop stop-color="#8F00FF" offset="100%"></stop>
        </linearGradient>
    </defs>
    <g id="logo-financial-datasets" stroke="none" stroke-width="1" fill="none" fill-rule="evenodd">
        <path d="M6.047431,0 L37.8578431,0 C39.9936049,0 40.7680837,0.217718252 41.5488863,0.626547614 C42.3296888,1.03537698 42.9424673,1.63531745 43.3600451,2.3997619 L43.4149611,2.50253142 C43.7970914,3.23478167 44,4.01608713 44,6.0134762 L44,36.9865238 C44,39.0775405 43.7776229,39.8357937 43.3600451,40.6002381 C42.9424673,41.3646825 42.3296888,41.964623 41.5488863,42.3734524 L41.4439176,42.4272179 C40.6959981,42.8013424 39.8979737,43 37.8578431,43 L6.14215692,43 C4.00639515,43 3.23191632,42.7822817 2.45111374,42.3734524 C1.67031116,41.964623 1.05753272,41.3646825 0.639954935,40.6002381 L0.585038909,40.4974686 C0.208879403,39.7766597 0.00638464959,39.0083167 0,37.0792652 L0,6.0134762 C0,3.92245952 0.222377145,3.16420634 0.639954935,2.3997619 C1.05753272,1.63531745 1.67031116,1.03537698 2.45111374,0.626547614 L2.55608241,0.572782102 C3.29231563,0.204503294 4.07710024,0.00625088855 6.047431,0 L6.047431,0 Z" id="Rectangle" fill="url(#linearGradient-1)"></path>
        <path d="M2.87481283,21.1343906 L4.30639171,21.1343906 L4.30639171,16.8888491 L5.42804114,16.8888491 L5.42804114,15.7622802 L4.27687462,15.7622802 L4.27687462,15.3637994 C4.27687462,14.9210431 4.50317231,14.7242625 5.00496284,14.7242625 C5.20174344,14.7242625 5.37884599,14.7439406 5.47231677,14.7636186 L5.47231677,13.73544 C5.26077763,13.7010034 5.08367508,13.6813253 4.80326273,13.6813253 C3.52910833,13.6813253 2.87481283,14.1339207 2.87481283,15.2309725 L2.87481283,15.7622802 L1.99913915,15.7622802 L1.99913915,16.8888491 L2.87481283,16.8888491 L2.87481283,21.1343906 Z M6.08460856,21.1343906 L7.51618743,21.1343906 L7.51618743,15.7081655 L6.08460856,15.7081655 L6.08460856,21.1343906 Z M6.80285775,14.9505602 C7.31448732,14.9505602 7.64901434,14.6504698 7.64901434,14.2273915 C7.64901434,13.7993937 7.31448732,13.5042228 6.80285775,13.5042228 C6.28630867,13.5042228 5.95670117,13.7993937 5.95670117,14.2273915 C5.95670117,14.6504698 6.28630867,14.9505602 6.80285775,14.9505602 Z M8.46792576,21.1343906 L9.89950464,21.1343906 L9.89950464,18.005579 C9.89950464,17.2922493 10.3078244,16.8248954 10.9719589,16.8248954 C11.650852,16.8248954 11.9706205,17.2184566 11.9706205,17.9662229 L11.9706205,21.1343906 L13.4021993,21.1343906 L13.4021993,17.6267764 C13.4021993,16.3280244 12.7528234,15.5900971 11.5475422,15.5900971 C10.7456612,15.5900971 10.1946755,15.9688998 9.94378027,16.5789197 L9.855229,16.5789197 L9.855229,15.7081655 L8.46792576,15.7081655 L8.46792576,21.1343906 Z M16.2528705,20.1406485 C15.7559995,20.1406485 15.4067139,19.8946728 15.4067139,19.4912726 C15.4067139,19.1026309 15.7068043,18.8812527 16.3217437,18.8369771 L17.4187955,18.7681039 L17.4187955,19.1665846 C17.4187955,19.7175703 16.917005,20.1406485 16.2528705,20.1406485 Z M15.780597,21.2180223 C16.4840877,21.2180223 17.0744295,20.9228514 17.3548418,20.4259804 L17.4433931,20.4259804 L17.4433931,21.1343906 L18.8306964,21.1343906 L18.8306964,17.4299958 C18.8306964,16.2689902 18.0189764,15.5900971 16.582478,15.5900971 C15.2197723,15.5900971 14.299823,16.2197951 14.2063522,17.2233761 L15.5247822,17.2233761 C15.6428506,16.8986881 15.9872167,16.7215856 16.5037657,16.7215856 C17.0941075,16.7215856 17.4187955,16.9774004 17.4187955,17.4299958 L17.4187955,17.8727521 L16.105285,17.9514644 C14.7573379,18.0301766 14.0046521,18.6008403 14.0046521,19.5847433 C14.0046521,20.5784854 14.7376598,21.2180223 15.780597,21.2180223 Z M19.7430786,21.1343906 L21.1746574,21.1343906 L21.1746574,18.005579 C21.1746574,17.2922493 21.5829772,16.8248954 22.2471117,16.8248954 C22.9260048,16.8248954 23.2457733,17.2184566 23.2457733,17.9662229 L23.2457733,21.1343906 L24.6773521,21.1343906 L24.6773521,17.6267764 C24.6773521,16.3280244 24.0279762,15.5900971 22.822695,15.5900971 C22.020814,15.5900971 21.4698283,15.9688998 21.2189331,16.5789197 L21.1303818,16.5789197 L21.1303818,15.7081655 L19.7430786,15.7081655 L19.7430786,21.1343906 Z M30.371503,17.6218568 C30.2534346,16.3870586 29.3925195,15.5900971 27.9560211,15.5900971 C26.2587884,15.5900971 25.3044025,16.6084368 25.3044025,18.4089793 C25.3044025,20.2291998 26.2637079,21.2524589 27.9560211,21.2524589 C29.3679219,21.2524589 30.2534346,20.4702561 30.371503,19.2551358 L29.0333949,19.2551358 C28.9251655,19.791363 28.5414434,20.0766949 27.9560211,20.0766949 C27.1885767,20.0766949 26.7507399,19.4912726 26.7507399,18.4089793 C26.7507399,17.3414445 27.1836572,16.7658612 27.9560211,16.7658612 C28.5660409,16.7658612 28.9350046,17.1053078 29.0333949,17.6218568 L30.371503,17.6218568 Z M31.0034728,21.1343906 L32.4350517,21.1343906 L32.4350517,15.7081655 L31.0034728,15.7081655 L31.0034728,21.1343906 Z M31.721722,14.9505602 C32.2333516,14.9505602 32.5678786,14.6504698 32.5678786,14.2273915 C32.5678786,13.7993937 32.2333516,13.5042228 31.721722,13.5042228 C31.2051729,13.5042228 30.8755654,13.7993937 30.8755654,14.2273915 C30.8755654,14.6504698 31.2051729,14.9505602 31.721722,14.9505602 Z M35.344757,20.1406485 C34.847886,20.1406485 34.4986004,19.8946728 34.4986004,19.4912726 C34.4986004,19.1026309 34.7986908,18.8812527 35.4136302,18.8369771 L36.5106821,18.7681039 L36.5106821,19.1665846 C36.5106821,19.7175703 36.0088915,20.1406485 35.344757,20.1406485 Z M34.8724836,21.2180223 C35.5759742,21.2180223 36.166316,20.9228514 36.4467284,20.4259804 L36.5352796,20.4259804 L36.5352796,21.1343906 L37.9225829,21.1343906 L37.9225829,17.4299958 C37.9225829,16.2689902 37.1108629,15.5900971 35.6743645,15.5900971 C34.3116588,15.5900971 33.3917095,16.2197951 33.2982387,17.2233761 L34.6166688,17.2233761 C34.7347371,16.8986881 35.0791032,16.7215856 35.5956523,16.7215856 C36.1859941,16.7215856 36.5106821,16.9774004 36.5106821,17.4299958 L36.5106821,17.8727521 L35.1971715,17.9514644 C33.8492244,18.0301766 33.0965386,18.6008403 33.0965386,19.5847433 C33.0965386,20.5784854 33.8295464,21.2180223 34.8724836,21.2180223 Z M38.8841602,21.1343906 L40.3157391,21.1343906 L40.3157391,13.6370497 L38.8841602,13.6370497 L38.8841602,21.1343906 Z M4.39986249,29.4613406 C5.15254829,29.4613406 5.76748767,29.1120551 6.05773906,28.5266328 L6.14629033,28.5266328 L6.14629033,29.3777089 L7.53359357,29.3777089 L7.53359357,21.880368 L6.1020147,21.880368 L6.1020147,24.8173184 L6.01838294,24.8173184 C5.73797058,24.2171376 5.13287023,23.8629325 4.39986249,23.8629325 C3.03715683,23.8629325 2.19100024,24.9304673 2.19100024,26.6572171 C2.19100024,28.3888864 3.03223731,29.4613406 4.39986249,29.4613406 Z M4.88689448,25.0632942 C5.64941931,25.0632942 6.11677324,25.6782336 6.11677324,26.6670561 C6.11677324,27.6607981 5.65433883,28.2658985 4.88689448,28.2658985 C4.11945014,28.2658985 3.66193524,27.6657176 3.66193524,26.6621366 C3.66193524,25.6683945 4.12436965,25.0632942 4.88689448,25.0632942 Z M10.482655,28.3839668 C9.98578398,28.3839668 9.63649842,28.1379911 9.63649842,27.7345909 C9.63649842,27.3459492 9.93658883,27.124571 10.5515282,27.0802954 L11.6485801,27.0114221 L11.6485801,27.4099029 C11.6485801,27.9608885 11.1467895,28.3839668 10.482655,28.3839668 Z M10.0103816,29.4613406 C10.7138722,29.4613406 11.304214,29.1661697 11.5846264,28.6692987 L11.6731776,28.6692987 L11.6731776,29.3777089 L13.0604809,29.3777089 L13.0604809,25.6733141 C13.0604809,24.5123085 12.2487609,23.8334154 10.8122625,23.8334154 C9.44955685,23.8334154 8.52960753,24.4631134 8.43613675,25.4666944 L9.75456678,25.4666944 C9.87263514,25.1420064 10.2170012,24.9649039 10.7335503,24.9649039 C11.3238921,24.9649039 11.6485801,25.2207187 11.6485801,25.6733141 L11.6485801,26.1160704 L10.3350696,26.1947826 C8.98712243,26.2734949 8.23443663,26.8441586 8.23443663,27.8280616 C8.23443663,28.8218037 8.96744437,29.4613406 10.0103816,29.4613406 Z M14.3811828,22.6625708 L14.3811828,24.0055985 L13.5350262,24.0055985 L13.5350262,25.1321674 L14.3811828,25.1321674 L14.3811828,27.9116934 C14.3811828,28.9693891 14.9026514,29.3973869 16.2210815,29.3973869 C16.4965743,29.3973869 16.7622281,29.3678698 16.9393307,29.3334332 L16.9393307,28.2413009 C16.8015842,28.2560594 16.7031939,28.260979 16.5162524,28.260979 C16.0292204,28.260979 15.8127617,28.0445203 15.8127617,27.5722469 L15.8127617,25.1321674 L16.9393307,25.1321674 L16.9393307,24.0055985 L15.8127617,24.0055985 L15.8127617,22.6625708 L14.3811828,22.6625708 Z M19.5932212,28.3839668 C19.0963502,28.3839668 18.7470646,28.1379911 18.7470646,27.7345909 C18.7470646,27.3459492 19.047155,27.124571 19.6620944,27.0802954 L20.7591462,27.0114221 L20.7591462,27.4099029 C20.7591462,27.9608885 20.2573557,28.3839668 19.5932212,28.3839668 Z M19.1209477,29.4613406 C19.8244384,29.4613406 20.4147802,29.1661697 20.6951926,28.6692987 L20.7837438,28.6692987 L20.7837438,29.3777089 L22.1710471,29.3777089 L22.1710471,25.6733141 C22.1710471,24.5123085 21.3593271,23.8334154 19.9228287,23.8334154 C18.560123,23.8334154 17.6401737,24.4631134 17.5467029,25.4666944 L18.865133,25.4666944 C18.9832013,25.1420064 19.3275674,24.9649039 19.8441165,24.9649039 C20.4344583,24.9649039 20.7591462,25.2207187 20.7591462,25.6733141 L20.7591462,26.1160704 L19.4456357,26.1947826 C18.0976886,26.2734949 17.3450028,26.8441586 17.3450028,27.8280616 C17.3450028,28.8218037 18.0780106,29.4613406 19.1209477,29.4613406 Z M22.9604414,25.5454067 C22.9604414,26.3817242 23.472071,26.8835148 24.5248472,27.114732 L25.5087502,27.3361101 C25.9859431,27.43942 26.1925628,27.6017639 26.1925628,27.8674178 C26.1925628,28.2167033 25.8088406,28.4479205 25.2529354,28.4479205 C24.6822717,28.4479205 24.3329861,28.2363814 24.2247568,27.8674178 L22.8276145,27.8674178 C22.9260048,28.9103549 23.7918394,29.4957772 25.2234183,29.4957772 C26.6451582,29.4957772 27.6143026,28.7873671 27.6143026,27.7050738 C27.6143026,26.8933538 27.1420292,26.4505974 26.089253,26.2193802 L25.0709133,25.998002 C24.5691228,25.8848532 24.3379056,25.7225092 24.3379056,25.4568554 C24.3379056,25.1124893 24.7167083,24.8812721 25.2283378,24.8812721 C25.7596455,24.8812721 26.089253,25.0977308 26.1630457,25.4470164 L27.4863952,25.4470164 C27.407683,24.4089987 26.595963,23.8334154 25.2184988,23.8334154 C23.8656322,23.8334154 22.9604414,24.517228 22.9604414,25.5454067 Z M30.6420763,24.9304673 C31.3111303,24.9304673 31.7440477,25.3781432 31.7735648,26.0963923 L29.4613927,26.0963923 C29.5105878,25.3929017 29.9779418,24.9304673 30.6420763,24.9304673 Z M31.8030818,27.8329812 C31.6505769,28.1921058 31.2619352,28.3938059 30.696191,28.3938059 C29.9484247,28.3938059 29.4761512,27.8920153 29.4564732,27.0852149 L29.4564732,27.0114221 L33.1805461,27.0114221 L33.1805461,26.5735853 C33.1805461,24.851755 32.2359992,23.8334154 30.6371568,23.8334154 C29.0235558,23.8334154 28.0298138,24.9255478 28.0298138,26.6916537 C28.0298138,28.4528401 29.0038778,29.4957772 30.6568348,29.4957772 C31.9851039,29.4957772 32.9198118,28.8562403 33.1362704,27.8329812 L31.8030818,27.8329812 Z M34.2651113,22.6625708 L34.2651113,24.0055985 L33.4189547,24.0055985 L33.4189547,25.1321674 L34.2651113,25.1321674 L34.2651113,27.9116934 C34.2651113,28.9693891 34.7865799,29.3973869 36.1050099,29.3973869 C36.3805027,29.3973869 36.6461566,29.3678698 36.8232591,29.3334332 L36.8232591,28.2413009 C36.6855127,28.2560594 36.5871224,28.260979 36.4001808,28.260979 C35.9131488,28.260979 35.6966902,28.0445203 35.6966902,27.5722469 L35.6966902,25.1321674 L36.8232591,25.1321674 L36.8232591,24.0055985 L35.6966902,24.0055985 L35.6966902,22.6625708 L34.2651113,22.6625708 Z M37.3469996,25.5454067 C37.3469996,26.3817242 37.8586292,26.8835148 38.9114054,27.114732 L39.8953084,27.3361101 C40.3725014,27.43942 40.579121,27.6017639 40.579121,27.8674178 C40.579121,28.2167033 40.1953988,28.4479205 39.6394936,28.4479205 C39.0688299,28.4479205 38.7195443,28.2363814 38.611315,27.8674178 L37.2141727,27.8674178 C37.312563,28.9103549 38.1783977,29.4957772 39.6099765,29.4957772 C41.0317164,29.4957772 42.0008608,28.7873671 42.0008608,27.7050738 C42.0008608,26.8933538 41.5285874,26.4505974 40.4758112,26.2193802 L39.4574716,25.998002 C38.955681,25.8848532 38.7244638,25.7225092 38.7244638,25.4568554 C38.7244638,25.1124893 39.1032665,24.8812721 39.6148961,24.8812721 C40.1462037,24.8812721 40.4758112,25.0977308 40.5496039,25.4470164 L41.8729535,25.4470164 C41.7942412,24.4089987 40.9825212,23.8334154 39.605057,23.8334154 C38.2521904,23.8334154 37.3469996,24.517228 37.3469996,25.5454067 Z" id="Combined-Shape" fill="#FFFFFF" fill-rule="nonzero"></path>
    </g>
</svg>