<?xml version="1.0" encoding="UTF-8"?>
<svg width="44px" height="44px" viewBox="0 0 44 44" version="1.1" xmlns="http://www.w3.org/2000/svg" xmlns:xlink="http://www.w3.org/1999/xlink">
    <title>logo-slack</title>
    <g id="logo-slack" stroke="none" fill="none" transform="translate(0, 0.5)" fill-rule="evenodd" stroke-width="1">
        <g id="Group-Copy" transform="translate(0.5637, 0.0637)">
            <path d="M15.7195836,0 C13.3518139,0 11.4326192,1.91970697 11.4326192,4.28710681 C11.4314787,5.42297854 11.8824976,6.51278089 12.6864591,7.3167695 C13.4904206,8.12075811 14.5814682,8.57307432 15.7195836,8.57421361 L20.0072651,8.57421361 L20.0072651,4.28710681 C20.0092465,1.92166026 18.0897021,0.00237253074 15.7195836,0 M15.7195836,11.4322848 L4.28696656,11.4322848 C1.91919686,11.4322848 4.32383492e-06,13.3519918 4.32383492e-06,15.7201079 C4.32383492e-06,18.0875078 1.91919686,20.0072147 4.28696656,20.0072147 L15.7203013,20.0072147 C18.0873533,20.0072147 20.0072636,18.0875078 20.0072636,15.7201079 C20.0072636,13.3519918 18.0873533,11.4322848 15.7195836,11.4322848" id="Shape" fill="#44BEDF" fill-rule="nonzero"></path>
            <path d="M42.8724991,15.7201079 C42.8724991,13.3519918 40.9525874,11.4322848 38.5848176,11.4322848 C36.2170479,11.4322848 34.2978554,13.3519918 34.2978554,15.7201079 L34.2978554,20.0072147 L38.5848176,20.0072147 C40.9549362,20.0048422 42.8744805,18.0855545 42.8724991,15.7201079 M31.4398821,15.7201079 L31.4398821,4.28710681 C31.4418635,1.92166026 29.5223192,0.00237253074 27.1522006,0 C24.7844309,0 22.8652384,1.91970697 22.8652384,4.28710681 L22.8652384,15.7193916 C22.8652384,18.0882241 24.7844309,20.007931 27.1522006,20.007931 C29.5223192,20.0055585 31.4418635,18.0862708 31.4398821,15.7208242" id="Shape" fill="#2EB67D" fill-rule="nonzero"></path>
            <path d="M27.1522006,42.8725007 C29.5223192,42.8701281 31.4418635,40.9508404 31.4398821,38.5853939 C31.4418635,36.2199473 29.5223192,34.3006596 27.1522006,34.2982871 L22.8652384,34.2982871 L22.8652384,38.5853939 C22.8652384,40.9527937 24.7844309,42.8725007 27.1522006,42.8725007 M27.1522006,31.4402159 L38.5855354,31.4402159 C40.9525874,31.4402159 42.8724991,29.5205089 42.8724991,27.1523927 C42.8744805,24.7869462 40.9549362,22.8676585 38.5848176,22.8652859 L27.1522006,22.8652859 C24.7844309,22.8652859 22.8652362,24.7849929 22.8652362,27.1523927 C22.8640957,28.2882645 23.3151147,29.3780668 24.1190762,30.1820554 C24.9230377,30.9860441 26.0140853,31.4383603 27.1522006,31.4394996" id="Shape" fill="#ECB22E" fill-rule="nonzero"></path>
            <path d="M2.15782067e-06,27.1523927 C-0.00113836199,28.2882645 0.449880618,29.3780668 1.25384211,30.1820554 C2.05780361,30.9860441 3.1488512,31.4383603 4.28696656,31.4394996 C6.6570851,31.437127 8.57662942,29.5178393 8.57464806,27.1523927 L8.57464806,22.8652859 L4.28696656,22.8652859 C1.91919686,22.8652859 2.15782067e-06,24.7849929 2.15782067e-06,27.1523927 M11.4326214,27.1523927 L11.4326214,38.5846776 C11.4326214,40.9527937 13.3518139,42.8725007 15.7195836,42.8725007 C18.0897021,42.8701281 20.0092465,40.9508404 20.0072657,38.5853939 L20.0072657,27.1523927 C20.0084062,26.016397 19.5572887,24.9264862 18.753172,24.122477 C17.9490553,23.3184678 16.8578234,22.8662354 15.7195836,22.8652859 C13.3518139,22.8652859 11.4326214,24.7849929 11.4326214,27.1523927" id="Shape" fill="#E01E5A" fill-rule="nonzero"></path>
        </g>
    </g>
</svg>