<?xml version="1.0" encoding="UTF-8"?>
<svg width="44px" height="43px" viewBox="0 0 44 43" version="1.1" xmlns="http://www.w3.org/2000/svg" xmlns:xlink="http://www.w3.org/1999/xlink">
    <title>logo-twilio</title>
    <g id="logo-twilio" stroke="none" fill="none" fill-rule="nonzero">
        <path d="M22,0 C33.8966667,0 43.5,9.60333333 43.5,21.5 C43.5,33.3966667 33.8966667,43 22,43 C10.1033333,43 0.5,33.3966667 0.5,21.5 C0.5,9.60333333 10.1033333,0 22,0 Z M22,5.73333333 C13.2566667,5.73333333 6.23333333,12.7566667 6.23333333,21.5 C6.23333333,30.2433333 13.2566667,37.2666667 22,37.2666667 C30.7433333,37.2666667 37.7666667,30.2433333 37.7666667,21.5 C37.7666667,12.7566667 30.7433333,5.73333333 22,5.73333333 Z M16.6966667,22.36 C19.1333333,22.36 21.14,24.3666667 21.14,26.8033333 C21.14,29.24 19.1333333,31.2466667 16.6966667,31.2466667 C14.26,31.2466667 12.2533333,29.24 12.2533333,26.8033333 C12.2533333,24.3666667 14.26,22.36 16.6966667,22.36 Z M27.3033333,22.36 C29.74,22.36 31.7466667,24.3666667 31.7466667,26.8033333 C31.7466667,29.24 29.74,31.2466667 27.3033333,31.2466667 C24.8666667,31.2466667 22.86,29.24 22.86,26.8033333 C22.86,24.3666667 24.8666667,22.36 27.3033333,22.36 Z M16.6966667,11.7533333 C19.1333333,11.7533333 21.14,13.76 21.14,16.1966667 C21.14,18.6333333 19.1333333,20.64 16.6966667,20.64 C14.26,20.64 12.2533333,18.6333333 12.2533333,16.1966667 C12.2533333,13.76 14.26,11.7533333 16.6966667,11.7533333 Z M27.3033333,11.7533333 C29.74,11.7533333 31.7466667,13.76 31.7466667,16.1966667 C31.7466667,18.6333333 29.74,20.64 27.3033333,20.64 C24.8666667,20.64 22.86,18.6333333 22.86,16.1966667 C22.86,13.76 24.8666667,11.7533333 27.3033333,11.7533333 Z" id="Combined-Shape" fill="#F22F46"></path>
    </g>
</svg>