<?xml version="1.0" encoding="UTF-8"?>
<svg width="44px" height="43px" viewBox="0 0 44 43" version="1.1" xmlns="http://www.w3.org/2000/svg" xmlns:xlink="http://www.w3.org/1999/xlink">
    <title>logo-airtable</title>
    <g id="logo-airtable" stroke="none" stroke-width="1" fill="none" fill-rule="evenodd">
        <g id="Group" transform="translate(0.0059, 3.1007)" fill-rule="nonzero">
            <path d="M19.6422004,0.464301173 L3.24199865,7.25039437 C2.33024092,7.6280764 2.33944055,8.92348349 3.25741425,9.28724175 L19.7259917,15.8179831 C21.1729704,16.3917249 22.7843442,16.3917249 24.231323,15.8179831 L40.7001491,9.28724175 C41.6176255,8.92348349 41.6273224,7.6280764 40.7150674,7.25064301 L24.3153629,0.464301173 C22.8191495,-0.154767058 21.1384138,-0.154767058 19.6422004,0.464301173" id="Path" fill="#FCB400"></path>
            <path d="M23.4396577,19.3839579 L23.4396577,35.6988766 C23.4396577,36.474629 24.2221234,37.0062184 24.943424,36.720284 L43.2944442,29.5972855 C43.7131582,29.4311642 43.9881459,29.0263421 43.9881459,28.5758781 L43.9881459,12.261208 C43.9881459,11.4852069 43.2056802,10.9538663 42.4843796,11.2398006 L24.1333594,18.3627991 C23.7146453,18.5289205 23.4396577,18.9337426 23.4396577,19.3842065" id="Path" fill="#18BFFF"></path>
            <path d="M19.1546202,20.2258481 L13.7084404,22.8554499 L13.1554681,23.1227364 L1.65891671,28.6313245 C0.930405626,28.9828995 0,28.4518075 0,27.6422402 L0,12.3295836 C0,12.0366873 0.150177712,11.7838219 0.351574975,11.5936134 C0.43414583,11.5112793 0.527889617,11.4409714 0.630050202,11.3847569 C0.904547212,11.2199096 1.29640164,11.1759005 1.62957736,11.307679 L19.0631212,18.2153565 C19.9492691,18.5669314 20.0188879,19.8086326 19.1546202,20.2260968" id="Path" fill="#F82B60"></path>
            <path d="M19.1546202,20.2258481 L13.7084404,22.8554499 L0.351574975,11.5933647 C0.43416212,11.5111184 0.527905113,11.4408949 0.630050202,11.3847569 C0.904547212,11.2199096 1.29640164,11.1759005 1.62957736,11.307679 L19.0631212,18.2153565 C19.9492691,18.5669314 20.0188879,19.8086326 19.1546202,20.2260968" id="Path" fill-opacity="0.25" fill="#000000"></path>
        </g>
    </g>
</svg>