<?xml version="1.0" encoding="UTF-8"?>
<svg width="44px" height="43px" viewBox="0 0 44 43" version="1.1" xmlns="http://www.w3.org/2000/svg" xmlns:xlink="http://www.w3.org/1999/xlink">
    <title>logo-insighthub</title>
    <g id="logo-insighthub" stroke="none" fill="none" transform="translate(0, 0)" fill-rule="evenodd" stroke-width="1">
        <g id="Group" transform="translate(0, 0)">
            <path d="M20.0898721,42.9529152 C31.1851008,42.9529152 40.1796144,34.2040476 40.1796144,23.411592 C40.1796144,12.6192662 31.1851008,3.87025573 20.0898721,3.87025573 C8.99451366,3.87025573 0,12.6192662 0,23.411592 C0,34.2040476 8.99451366,42.9529152 20.0898721,42.9529152 Z" id="Path" fill="#84A7FF" fill-rule="nonzero"></path>
            <path d="M20.0897423,38.2350054 C28.5063646,38.2350054 35.3292739,31.598408 35.3292739,23.411592 C35.3292739,15.2249058 28.5063646,8.58817852 20.0897423,8.58817852 C11.6732498,8.58817852 4.85031457,15.2249058 4.85031457,23.411592 C4.85031457,31.598408 11.6732498,38.2350054 20.0897423,38.2350054 Z" id="Path" fill="#341B9B" fill-rule="nonzero"></path>
            <path d="M20.2694326,0 L20.2403498,23.0522113 L43.9998702,23.0805151 C44.0160809,10.3500656 33.390462,0.0158059976 20.2694326,0 Z" id="Path" fill="#84A7FF" fill-rule="nonzero" opacity="0.72"></path>
            <path d="M40.1707857,23.075971 L44,23.0805151 C44.0162107,10.3500656 33.3907217,0.0158059976 20.2695625,0 L20.2648884,3.87482589 C31.1636782,3.96550199 39.9869407,12.4959238 40.1707857,23.075971 Z" id="Path" fill="#84A7FF" fill-rule="nonzero"></path>
            <path d="M35.3203153,23.0701284 L40.1706559,23.075971 C39.986681,12.4959238 31.163029,3.96550199 20.2646288,3.87482589 L20.2586564,8.59274868 C28.4793591,8.68010103 35.1342631,15.0967596 35.3203153,23.0701284 Z" id="Path" fill="#6D7BF7" fill-rule="nonzero"></path>
            <path d="M20.2586564,8.59233321 L20.2403498,23.0522113 L35.319796,23.0701284 C35.1338736,15.0966297 28.4789696,8.67968556 20.2582669,8.59274868 L20.2586564,8.59233321 Z" id="Path" fill="#5A52E3" fill-rule="nonzero"></path>
            <polygon id="Path" fill="#FFFFFF" fill-rule="nonzero" points="21.718121 30.0178082 18.5213469 30.0178082 18.5213469 17.0828311 21.718121 17.0828311"></polygon>
        </g>
    </g>
</svg>