<?xml version="1.0" encoding="UTF-8"?>
<svg width="44px" height="43px" viewBox="0 0 44 43" version="1.1" xmlns="http://www.w3.org/2000/svg" xmlns:xlink="http://www.w3.org/1999/xlink">
    <title>logo-servicenow</title>
    <g id="logo-servicenow" stroke="none" stroke-width="1" fill="none" fill-rule="evenodd">
        <path d="M22.3070438,1.83506252 C13.2531958,1.81617178 5.10505189,7.32564123 1.75003193,15.7349433 C-1.60498803,24.1442453 0.512902358,33.7495065 7.09327308,39.968127 C8.65191018,41.4522777 11.0602491,41.5773212 12.7642083,40.2625681 C18.3510855,36.1048772 26.0038939,36.1048772 31.5907711,40.2625681 C33.3115438,41.5806726 35.7382634,41.4391035 37.2940948,39.9298496 C43.8211797,33.7359824 45.9374258,24.2012766 42.6436248,15.8276452 C39.3498239,7.45401368 31.304779,1.91629173 22.3070438,1.8291737 M22.1774897,34.9331845 C19.2384588,35.012651 16.3960267,33.8802592 14.3167801,31.8015695 C12.2375335,29.7228797 11.1043804,26.880751 11.1830597,23.9416989 C11.1830597,17.8696429 16.1054337,12.9472689 22.1774897,12.9472689 C28.2495457,12.9472689 33.1719197,17.8696429 33.1719197,23.9416989 C33.250599,26.880751 32.1174459,29.7228797 30.0381993,31.8015695 C27.9589527,33.8802592 25.1165206,35.012651 22.1774897,34.9331845" id="Shape" fill="#62D84E"></path>
    </g>
</svg>