<?xml version="1.0" encoding="UTF-8"?>
<svg width="44px" height="43px" viewBox="0 0 44 43" version="1.1" xmlns="http://www.w3.org/2000/svg" xmlns:xlink="http://www.w3.org/1999/xlink">
    <title>logo-google</title>
    <g id="logo-google" stroke="none" stroke-width="1" fill="none" fill-rule="evenodd">
        <g id="google-logo-copy" transform="translate(0.93, -0)" fill-rule="nonzero">
            <path d="M42.1399999,21.9897223 C42.1399999,28.5352777 39.7941109,34.0488332 35.7282222,37.7922222 L28.7813333,37.7922222 L28.7813333,32.3957222 C31.0579444,30.871611 32.5724999,28.5949999 33.0717776,25.9075 L21.4999999,25.9075 L21.4999999,17.5917777 L41.7482223,17.5917777 C42.0038333,18.9988333 42.1399999,20.4632222 42.1399999,21.9897223 Z" id="Path" fill="#318AF5"></path>
            <path d="M21.4999999,43 C13.0958889,43 5.82411108,38.1816109 2.28616666,31.1558888 L2.28616666,25.5849999 L9.46955556,25.5849999 C11.1608889,30.6661666 15.9004444,34.4477777 21.4999999,34.4477777 C24.3929444,34.4477777 26.8558889,33.6857222 28.7813333,32.3957222 L35.7282222,37.7922222 C32.1711666,41.0745556 27.3049999,43 21.4999999,43 Z" id="Path" fill="#3DA751"></path>
            <path d="M9.46955556,25.5849999 L2.28616666,31.1558888 C0.831333332,28.2533888 0,24.9686667 0,21.5 C0,18.0313333 0.831333332,14.7466111 2.28616666,11.8441111 L9.46955556,11.8441111 L9.46955556,17.415 C9.03955555,18.705 8.79588888,20.0833888 8.79588888,21.5 C8.79588888,22.916611 9.03955555,24.295 9.46955556,25.5849999 Z" id="Path" fill="#FDB900"></path>
            <path d="M21.4999999,8.55222221 C15.9004444,8.55222221 11.1608889,12.3338333 9.46955556,17.415 L2.28616666,11.8441111 C5.82411108,4.8183889 13.0958889,0 21.4999999,0 C27.2954444,0 32.161611,2.13088889 35.885889,5.59955555 L29.7177777,11.7652777 C27.4913332,9.63677774 24.6557221,8.55222221 21.4999999,8.55222221 Z" id="Path" fill="#EA3E36"></path>
        </g>
    </g>
</svg>