<?xml version="1.0" encoding="UTF-8"?>
<svg width="44px" height="44px" viewBox="0 0 44 44" version="1.1" xmlns="http://www.w3.org/2000/svg" xmlns:xlink="http://www.w3.org/1999/xlink">
    <title>logo-facebook</title>
    <defs>
        <linearGradient x1="50.0025%" y1="97.0073366%" x2="50.0025%" y2="-0.0185132663%" id="linearGradient-1">
            <stop stop-color="#0062E0" offset="0%"></stop>
            <stop stop-color="#19AFFF" offset="100%"></stop>
        </linearGradient>
    </defs>
    <g id="logo-facebook" stroke="none" fill="none" transform="translate(0, 0.5)" fill-rule="evenodd" stroke-width="1">
        <g id="Layer_1" transform="translate(0.5, 0)">
            <path d="M17.9525,42.785 C7.74,40.9575 0,32.1425 0,21.5 C0,9.675 9.675,0 21.5,0 C33.325,0 43,9.675 43,21.5 C43,32.1425 35.26,40.9575 25.0475,42.785 L23.865,41.8175 L19.135,41.8175 L17.9525,42.785 Z" id="Path" fill="url(#linearGradient-1)" fill-rule="nonzero"></path>
            <path d="M29.885,27.52 L30.8525,21.5 L25.155,21.5 L25.155,17.3075 C25.155,15.5875 25.8,14.2975 28.38,14.2975 L31.175,14.2975 L31.175,8.815 C29.67,8.6 27.95,8.385 26.445,8.385 C21.5,8.385 18.06,11.395 18.06,16.77 L18.06,21.5 L12.685,21.5 L12.685,27.52 L18.06,27.52 L18.06,42.6775 C19.2425,42.8925 20.425,43 21.6075,43 C22.79,43 23.9725,42.8925 25.155,42.6775 L25.155,27.52 L29.885,27.52 Z" id="Path" fill="#FFFFFF" fill-rule="nonzero"></path>
        </g>
    </g>
</svg>