<?xml version="1.0" encoding="UTF-8"?>
<svg width="44px" height="43px" viewBox="0 0 44 43" version="1.1" xmlns="http://www.w3.org/2000/svg" xmlns:xlink="http://www.w3.org/1999/xlink">
    <title>logo-gmail</title>
    <g id="logo-gmail" stroke="none" stroke-width="1" fill="none" fill-rule="evenodd">
        <g id="Group" transform="translate(0, 4.9957)" fill-rule="nonzero">
            <path d="M3,33.0085104 L10,33.0085104 L10,16.0085104 L0,8.50851045 L0,30.0085104 C0,31.6685104 1.345,33.0085104 3,33.0085104" id="Path" fill="#4285F4"></path>
            <path d="M34,33.0085104 L41,33.0085104 C42.66,33.0085104 44,31.6635104 44,30.0085104 L44,8.50851045 L34,16.0085104" id="Path" fill="#34A853"></path>
            <path d="M34,3.00851045 L34,16.0085104 L44,8.50851045 L44,4.50851045 C44,0.798510449 39.765,-1.31648955 36.8,0.908510449" id="Path" fill="#FBBC04"></path>
            <polyline id="Path" fill="#EA4335" points="10 16.0085104 10 3.00851045 22 12.0085104 34 3.00851045 34 16.0085104 22 25.0085104"></polyline>
            <path d="M0,4.50851045 L0,8.50851045 L10,16.0085104 L10,3.00851045 L7.2,0.908510449 C4.23,-1.31648955 0,0.798510449 0,4.50851045" id="Path" fill="#C5221F"></path>
        </g>
    </g>
</svg>