<?xml version="1.0" encoding="UTF-8"?>
<svg width="44px" height="43px" viewBox="0 0 44 43" version="1.1" xmlns="http://www.w3.org/2000/svg" xmlns:xlink="http://www.w3.org/1999/xlink">
    <title>logo-github</title>
    <g id="logo-github" stroke="none" stroke-width="1" fill="none" fill-rule="evenodd">
        <g id="Group-Copy-13" transform="translate(0, 0.0427)" fill="#FFFFFF" fill-rule="nonzero">
            <path d="M22,0 C34.1550007,0 44,9.86460839 44,22.0438176 C43.9975836,31.5144042 37.9677274,39.9286731 29.012501,42.9578896 C27.9125011,43.1783278 27.5,42.4894585 27.5,41.9108083 C27.5,41.1668294 27.5275011,38.797119 27.5275011,35.8487584 C27.5275011,33.7821505 26.8400012,32.4595215 26.0425012,31.7706522 C30.9375009,31.2195567 36.0800006,29.3458322 36.0800006,20.8865172 C36.0800006,18.4616973 35.2275006,16.5053084 33.8250007,14.9622412 C34.0450007,14.4111458 34.8150006,12.1516545 33.6050007,9.12062954 C33.6050007,9.12062954 31.7625009,8.51442456 27.5550011,11.3801208 C25.7950013,10.884135 23.9250014,10.636142 22.0550015,10.636142 C20.1850017,10.636142 18.3150018,10.884135 16.5550019,11.3801208 C12.3475022,8.54197933 10.5050023,9.12062954 10.5050023,9.12062954 C9.29500241,12.1516545 10.0650024,14.4111458 10.2850023,14.9622412 C8.88250244,16.5053084 8.0300025,18.489252 8.0300025,20.8865172 C8.0300025,29.3182774 13.1450021,31.2195567 18.0400018,31.7706522 C17.4075018,32.3217476 16.8300019,33.2861646 16.6375019,34.7190128 C15.372502,35.297663 12.2100022,36.2345252 10.2300023,32.9003978 C9.81750237,32.2390833 8.58000246,30.6133517 6.84750258,30.6409065 C5.00500271,30.6684613 6.10500263,31.6879878 6.87500258,32.1013094 C7.81000251,32.6248501 8.88250244,34.5812389 9.13000242,35.2149987 C9.57000239,36.4549634 11,38.8246738 16.5275019,37.8051472 C16.5275019,39.651317 16.5550019,41.3872676 16.5550019,41.9108083 C16.5550019,42.4894585 16.1425019,43.150773 15.042502,42.9578896 C6.0559987,39.9606978 -0.00496903347,31.5339387 2.28319039e-16,22.0438176 C2.28319039e-16,9.86460839 9.84500237,0 22,0 L22,0 Z" id="Path"></path>
        </g>
    </g>
</svg>