<?xml version="1.0" encoding="UTF-8"?>
<svg width="44px" height="44px" viewBox="0 0 44 44" version="1.1" xmlns="http://www.w3.org/2000/svg" xmlns:xlink="http://www.w3.org/1999/xlink">
    <title>logo-youtube</title>
    <g id="logo-youtube" stroke="none" fill="none" transform="translate(0, 0.5)" fill-rule="nonzero">
        <path d="M21.9863256,6.10404937 C21.9863256,6.10404937 8.23454782,6.10404937 4.78303478,7.00092154 C2.93497559,7.51728648 1.41324233,9.0390365 0.896872165,10.9142756 C0,14.3657911 0,21.5135958 0,21.5135958 C0,21.5135958 0,28.6885349 0.896872165,32.0857252 C1.41324233,33.9609389 2.90779761,35.4555116 4.78303478,35.9718892 C8.26172581,36.8959506 21.9863256,36.8959506 21.9863256,36.8959506 C21.9863256,36.8959506 35.7653662,36.8959506 39.2168076,35.99908 C41.0920583,35.4827133 42.5865831,34.0153119 43.0757786,32.1129161 C43.9999214,28.6885436 43.9999214,21.5407867 43.9999214,21.5407867 C43.9999214,21.5407867 44.0269982,14.3657911 43.0757786,10.9142756 C42.5865831,9.0390365 41.0920583,7.54449927 39.2168076,7.05530317 C35.7653662,6.10404937 21.9863256,6.10404937 21.9863256,6.10404937 L21.9863256,6.10404937 Z M17.6107291,14.9096248 L29.0525405,21.5135958 L17.6107291,28.090376 L17.6107291,14.9096248 L17.6107291,14.9096248 Z" id="Shape" fill="#FF0000"></path>
    </g>
</svg>