<?xml version="1.0" encoding="UTF-8"?>
<svg width="44px" height="43px" viewBox="0 0 44 43" version="1.1" xmlns="http://www.w3.org/2000/svg" xmlns:xlink="http://www.w3.org/1999/xlink">
    <title>logo-wordpress</title>
    <g id="logo-wordpress" stroke="none" stroke-width="1" fill="none" fill-rule="evenodd">
        <g id="Group" transform="translate(0.5, 0)" fill="#000000" fill-rule="nonzero">
            <path d="M21.4999801,1.29000119 C25.5419838,1.29000119 29.4764875,2.49401027 32.8089906,4.75151236 C36.0554936,6.94451439 38.6139959,10.0405173 40.1404974,13.6525206 C42.8064998,19.9519787 42.0969992,27.1544853 38.2699956,32.8089906 C36.0769936,36.0554936 32.9809907,38.6139959 29.3689874,40.1404974 C23.0694815,42.8064998 15.8669749,42.0969992 10.2125015,38.2699956 C6.96599849,36.0769936 4.40749612,32.9809907 2.8809947,29.3689874 C0.215000199,23.0694815 0.924500856,15.8669749 4.75149644,10.2125174 C6.94449847,6.96601441 10.0405173,4.40751204 13.6525047,2.88101063 C16.1249751,1.82750966 18.8124776,1.29000119 21.4999801,1.29000119 Z M21.4999801,0 C9.63200096,0 0,9.63201688 0,21.4999801 C0,33.3679911 9.63200096,43 21.4999801,43 C33.3679911,43 43,33.3679911 43,21.4999801 C43,9.63201688 33.3679911,0 21.4999801,0 Z" id="Shape"></path>
            <path d="M3.59111647,21.4996616 C3.59111647,28.3581679 7.5041201,34.6361737 13.6961258,37.6246765 L5.13911791,14.2112185 C4.10711695,16.511657 3.59111647,18.9841592 3.59111647,21.4996616 Z M33.6051283,20.5966607 C33.6051283,18.3821587 32.8096276,16.8556573 32.121627,15.6517199 C31.4336263,14.4477187 30.3586253,12.9212173 30.3586253,11.459216 C30.3586253,9.99721463 31.6056265,8.27721303 33.3686281,8.27721303 L33.6051283,8.27721303 C26.3166216,1.59070684 14.986127,2.0852073 8.29962083,9.39521407 C7.65462024,10.1047147 7.05261968,10.8572154 6.5366192,11.6527162 L7.69762028,11.6527162 C9.56812201,11.6527162 12.4706247,11.4162159 12.4706247,11.4162159 C13.4381256,11.3517159 13.5456257,12.7707172 12.5781248,12.8997173 C12.5781248,12.8997173 11.6106239,13.0072174 10.5356229,13.0717175 L17.050113,32.4861717 L20.9631166,20.7256609 L18.168114,13.0717175 C17.2006131,13.0072174 16.2976123,12.8997173 16.2976123,12.8997173 C15.3301273,12.8352173 15.4376274,11.3732159 16.4051124,11.4162159 C16.4051124,11.4162159 19.3721152,11.6527162 21.1136168,11.6527162 C22.8551184,11.6527162 25.8866212,11.4162159 25.8866212,11.4162159 C26.8541221,11.3517159 26.9616222,12.7707172 25.9941213,12.8997173 C25.9941213,12.8997173 25.0266204,13.0072174 23.9516194,13.0717175 L30.4231254,32.3356716 L32.2721271,26.4876662 C33.0891279,23.9291638 33.5836283,22.1231622 33.5836283,20.5751607 L33.6051283,20.5966607 Z M21.8016174,23.047663 L16.4266124,38.6781775 C20.0386158,39.7316785 23.8871193,39.6456784 27.4346226,38.3986772 L27.3056225,38.162177 L21.8016174,23.047663 Z M37.2171317,12.8997173 C37.3031318,13.5017179 37.3461318,14.1252184 37.3461318,14.748719 C37.3461318,16.576157 37.0021315,18.6186589 35.9916305,21.1556613 L30.5091255,36.9796759 C38.8941332,32.0991714 41.882636,21.4136615 37.2171317,12.8997173 Z" id="Shape"></path>
        </g>
    </g>
</svg>