<?xml version="1.0" encoding="UTF-8"?>
<svg width="42px" height="43px" viewBox="0 0 42 43" version="1.1" xmlns="http://www.w3.org/2000/svg" xmlns:xlink="http://www.w3.org/1999/xlink">
    <title>logo-pinecone</title>
    <g id="logo-pinecone" stroke="none" stroke-width="1" fill="none" fill-rule="evenodd">
        <path d="M18.1016354,38.078822 C19.4605812,38.078822 20.5622244,39.1804652 20.5622244,40.539411 C20.5622244,41.8983568 19.4605812,43 18.1016354,43 C16.7426897,43 15.6410464,41.8983568 15.6410464,40.539411 C15.6410464,39.1804652 16.7426897,38.078822 18.1016354,38.078822 Z M31.752989,33.5893421 L34.1845654,34.3098092 L33.8243319,35.5255974 L32.4235769,40.252 L32.2543855,40.8241664 C32.0857296,41.3933801 31.5447203,41.7693821 30.9524187,41.7290346 L30.3585769,41.689 L30.3416391,41.7001521 L30.3325769,41.687 L25.4123195,41.3516436 L24.1472177,41.265465 L24.3195749,38.7352615 L25.5846767,38.8214401 L28.4805769,39.017 L26.4792467,36.1293938 L25.756747,35.0873269 L27.8408808,33.6423275 L28.5633805,34.6843943 L30.5695769,37.578 L31.3927554,34.8051303 L31.752989,33.5893421 Z M5.28764392,29.0859569 L7.81737075,29.2651746 L7.7277619,30.530038 L7.5215769,33.427 L10.4033217,31.4223092 L11.4442571,30.6981803 L12.892515,32.780051 L8.9655769,35.512 L11.7575281,36.3341317 L12.9738711,36.6924877 L12.2571591,39.1251736 L11.0408161,38.7668176 L5.7120559,37.1968713 C5.14064348,37.0285231 4.76345212,36.4851258 4.80554848,35.8909194 L5.19803507,30.3508203 L5.28764392,29.0859569 Z M21.6212826,25.5426053 L22.0145769,26.017 L25.3348096,30.0260098 L26.1870024,31.0548767 L24.1292686,32.7592624 L23.2770758,31.7303954 L21.4125769,29.48 L20.7611555,33.206544 L20.5311078,34.5225523 L17.8990912,34.0624569 L18.129139,32.7464486 L18.7815769,29.011 L16.2738799,30.4895134 L15.122814,31.1676337 L13.7665734,28.8655021 L14.9176392,28.1873817 L19.9142954,25.2437323 C20.4794996,24.910757 21.2028331,25.037404 21.6212826,25.5426053 Z M36.675943,20.6034521 L37.2963861,21.7438196 L39.6995769,26.162 L39.9985053,26.7102845 C40.2895664,27.2452514 40.1696262,27.9106347 39.7100907,28.3103011 L35.4229295,32.0389237 L34.4433561,32.8908766 L32.7394503,30.9317298 L33.7190237,30.0797769 L35.9625769,28.127 L32.438536,27.4912686 L31.1609178,27.2608785 L31.6216982,24.7056421 L32.8993163,24.9360323 L36.4225769,25.571 L35.015651,22.9847059 L34.3952079,21.8443383 L36.675943,20.6034521 Z M7.49804125,15.4597231 L9.2161377,17.4064372 L8.24278064,18.2654854 L6.0345769,20.212 L9.56919297,20.8287129 L10.8481169,21.0517406 L10.4020617,23.6095885 L9.12313775,23.3865609 L5.5835769,22.769 L7.0252552,25.373891 L7.65367573,26.509882 L5.38169381,27.766723 L4.75327328,26.6307321 L2.00586715,21.6642671 C1.71112438,21.1314629 1.82628445,20.4654017 2.28280989,20.0624895 L2.7475769,19.652 L2.75016983,19.6395645 L2.7595769,19.641 L6.52468418,16.3187713 L7.49804125,15.4597231 Z M23.7651565,13.4513534 L27.4635878,17.9196622 L28.3154265,18.9488224 L26.2571061,20.6524997 L25.4052675,19.6233395 L23.5405769,17.371 L22.8896405,21.0998423 L22.6595928,22.4158506 L20.0275762,21.9557551 L20.2576239,20.6397469 L20.9065769,16.923 L18.4148738,18.3843316 L17.262288,19.0598653 L15.9112207,16.7546937 L17.0638065,16.07916 L21.5095769,13.472 L21.514175,13.4515354 L21.5385769,13.455 L22.0604627,13.1506062 C22.6255837,12.8193872 23.3474939,12.9467488 23.7651565,13.4513534 Z M30.6239378,8.34954705 L31.8230136,8.84714625 L36.4745769,10.777 L36.4838526,10.7729975 L36.4895769,10.783 L37.0612,11.0209181 C37.6230589,11.2540815 37.9476725,11.8461171 37.842141,12.4452111 L37.7365769,13.041 L36.8609245,18.0155015 L36.6357074,19.2940417 L34.078627,18.8436075 L34.3038441,17.5650673 L34.8145769,14.659 L31.6812045,16.3907105 L30.5447113,17.0182221 L29.289688,14.7452356 L30.4261813,14.1177239 L33.5675769,12.382 L30.8278152,11.2452979 L29.6287394,10.7476987 L30.6239378,8.34954705 Z M17.3658111,6.02190875 L17.4764922,8.61599838 L16.1794474,8.67133896 L13.2235769,8.797 L15.5764612,11.485872 L16.4313483,12.4628858 L14.4773207,14.1726599 L13.6224336,13.1956461 L11.2655769,10.502 L10.7448746,13.4146902 L10.5162992,14.6926343 L7.96041099,14.2354835 L8.18898636,12.9575394 L9.0755769,7.999 L9.06911523,7.99185369 L9.0775769,7.983 L9.18529848,7.38724899 C9.29234909,6.78873875 9.80044616,6.34469766 10.407902,6.31877954 L11.0105769,6.292 L11.0231428,6.28207956 L11.0305769,6.291 L16.0687663,6.07724933 L17.3658111,6.02190875 Z M26.0642032,0.489678322 L26.4535769,0.966 L29.7475389,4.98817847 L30.5938995,6.02184837 L28.5265597,7.71456956 L27.6801991,6.68089966 L25.8375769,4.431 L25.1679188,8.15434166 L24.9313143,9.4691869 L22.3016238,8.99597782 L22.5382283,7.68113257 L23.2095769,3.946 L20.6927989,5.41806582 L19.5393258,6.09208325 L18.1912909,3.78513701 L19.3447641,3.11111958 L24.3565159,0.182565796 C24.923817,-0.148929402 25.6479462,-0.0187011309 26.0642032,0.489678322 Z" id="Combined-Shape" fill="#201D1E" fill-rule="nonzero"></path>
    </g>
</svg>