<?xml version="1.0" encoding="UTF-8"?>
<svg width="42px" height="43px" viewBox="0 0 42 43" version="1.1" xmlns="http://www.w3.org/2000/svg" xmlns:xlink="http://www.w3.org/1999/xlink">
    <title>logo-opensearch</title>
    <g id="logo-opensearch" stroke="none" stroke-width="1" fill="none" fill-rule="evenodd">
        <g id="Group" transform="translate(0.0001, 0.5)" fill-rule="nonzero">
            <path d="M40.5149826,15.4219488 C39.6949692,15.4219488 39.0302189,16.0866991 39.0302189,16.9068345 C39.0302189,29.1253753 29.1252436,39.0303506 16.9067028,39.0303506 C16.0865674,39.0303506 15.4218171,39.6951009 15.4218171,40.5152363 C15.4218171,41.3352497 16.0865674,42 16.9067028,42 C30.7652703,42 41.9998683,30.765402 41.9998683,16.9068345 C41.9998683,16.0866991 41.335118,15.4219488 40.5149826,15.4219488 Z" id="Path" fill="#005EB8"></path>
            <path d="M31.5533034,24.9374238 C32.9811862,22.6081122 34.362197,19.5022415 34.0904868,15.1541445 C33.5276583,6.1472779 25.3698803,-0.685540154 17.6666616,0.0549497276 C14.6509948,0.344835069 11.5544495,2.80297097 11.8295532,7.20593491 C11.9491252,9.11929534 12.8856103,10.2485897 14.4076029,11.1168176 C15.8561141,11.9431782 17.7173174,12.4667026 19.8271613,13.0600466 C22.3755743,13.7769175 25.3317969,14.5820393 27.6038613,16.2563654 C30.3269453,18.2630668 32.1883927,20.5893268 31.5533034,24.9374238 Z" id="Path" fill="#003B5C"></path>
            <path d="M2.5715804,9.18773558 C1.14368302,11.5170593 -0.237237542,14.6229301 0.0344484579,18.9710271 C0.597232852,27.9778693 8.75506457,34.8106629 16.4582466,34.070234 C19.4739135,33.7803365 22.5705075,31.3222494 22.2953795,26.9192244 C22.1757586,25.0059006 21.239298,23.8765819 19.7173053,23.008354 C18.2687941,22.1819934 16.4075908,21.6584689 14.297747,21.0651249 C11.7493339,20.3482541 8.79313574,19.5431323 6.52110796,17.8688061 C3.79801181,15.8621048 1.93653999,13.5358448 2.5715804,9.18773558 Z" id="Path" fill="#005EB8"></path>
        </g>
    </g>
</svg>