<?xml version="1.0" encoding="UTF-8"?>
<svg width="44px" height="44px" viewBox="0 0 44 44" version="1.1" xmlns="http://www.w3.org/2000/svg" xmlns:xlink="http://www.w3.org/1999/xlink">
    <title>logo-playwrite</title>
    <g id="logo-playwrite" stroke="none" fill="none" transform="translate(0, 0.5)" fill-rule="evenodd" stroke-width="1">
        <g id="Group" transform="translate(0, 5.0146)">
            <path d="M14.5028568,18.6229327 C12.8603491,19.0890704 11.7827641,19.9063728 11.0729143,20.723038 C11.75281,20.1280336 12.6635439,19.5819757 13.8920469,19.2337426 C15.1485921,18.8776068 16.2205686,18.880156 17.1063195,19.051086 L17.1063195,18.3584438 C16.3507099,18.289358 15.4844611,18.3444227 14.5028568,18.6229327 Z M10.9978377,12.8003537 L4.89783218,14.4074263 C4.89783218,14.4074263 5.00900673,14.5644626 5.21486192,14.7740142 L10.3869002,13.4111636 C10.3869002,13.4111636 10.3136082,14.3555482 9.6771396,15.200383 C10.8810802,14.2895216 10.9978377,12.8003537 10.9978377,12.8003537 Z M16.1039386,27.136415 C7.51961152,29.4484938 2.97792345,19.5001434 1.60288726,14.336556 C0.967604131,11.9530971 0.690279589,10.1479446 0.616362918,8.98304645 C0.608421879,8.86208263 0.612092857,8.76011102 0.620645726,8.66667953 C0.175335703,8.69357454 -0.0378614421,8.9250501 0.0055147317,9.59398386 C0.0794314029,10.7582447 0.356755944,12.5632697 0.992039078,14.9474934 C2.36646343,20.1103161 6.90876333,30.0586664 15.4931286,27.7465876 C17.3616309,27.2432302 18.7653976,26.326378 19.8191468,25.1559988 C18.8478672,26.0332096 17.6322381,26.7240673 16.1039386,27.136415 Z M17.7171295,6.71188375 L17.7171295,7.32282117 L21.0842321,7.32282117 C21.0151463,7.10651389 20.9455507,6.91162065 20.8764649,6.71188375 L17.7171295,6.71188375 Z" id="Shape" fill="#2D4552" fill-rule="nonzero"></path>
            <path d="M21.8367825,11.7434179 C23.351061,12.1734832 24.1519205,13.2351351 24.5752301,14.1746761 L26.2636251,14.6541976 C26.2636251,14.6541976 26.0332967,11.3659955 23.0590398,10.5211607 C20.2766169,9.73062582 18.5643861,12.0671778 18.3561091,12.3695236 C19.1655087,11.7928742 20.3474872,11.3207456 21.8367825,11.7434179 Z M35.2767683,14.1898443 C32.4917961,13.3957404 30.7802026,15.7371361 30.5749848,16.0352756 C31.3850218,15.4592634 32.5663629,14.9870074 34.0550209,15.4115917 C35.5668775,15.8422943 36.3670997,16.9026716 36.791684,17.8428498 L38.4825008,18.3241558 C38.4825008,18.3241558 38.2484759,15.0353165 35.2767683,14.1898443 Z M33.5993353,22.8597256 L19.5540206,18.9331813 C19.5540206,18.9331813 19.7060857,19.7040867 20.2894908,20.7022613 L32.115011,24.0081809 C33.088585,23.4449152 33.5993353,22.8597256 33.5993353,22.8597256 Z M23.8616838,31.3115151 C12.7405325,28.3298652 14.0850282,14.1600177 15.8845722,7.44544203 C16.6255234,4.67831491 17.3872513,2.62158577 18.0189654,1.24289135 C17.6420529,1.1653037 17.3298923,1.36384243 17.0214282,1.99118452 C16.3507099,3.35153679 15.4930012,5.56648764 14.6629523,8.66718939 C12.8639181,15.3816375 11.5194224,29.5509752 22.6400639,32.5326251 C27.8817871,33.9369017 31.9652402,31.8026359 35.0092203,28.450829 C32.1198547,31.0678029 28.4309042,32.5350469 23.8616838,31.3115151 Z" id="Shape" fill="#2D4552" fill-rule="nonzero"></path>
            <path d="M17.7171295,23.8158369 L17.7171295,20.9564255 L9.77244482,23.2092333 C9.77244482,23.2092333 10.3594954,19.7982829 14.5028568,18.6229327 C15.759402,18.2667968 16.831506,18.2692186 17.7171295,18.440276 L17.7171295,6.71188375 L21.695042,6.71188375 C21.2619176,5.37350637 20.8429417,4.34308324 20.4910122,3.62711507 C19.9088818,2.44207749 19.3120929,3.22764129 17.9572726,4.36080081 C17.0030733,5.15796387 14.5914447,6.85859541 10.9624025,7.83650315 C7.33330938,8.81504822 4.39938221,8.55553047 3.17523851,8.34355699 C1.43979642,8.04414285 0.532070636,7.66302395 0.616987494,8.98304645 C0.690891419,10.1473073 0.968228707,11.9524597 1.60351184,14.336556 C2.97792345,19.4995061 7.52022335,29.4478564 16.1045759,27.1357776 C18.3469316,26.5315958 19.9296585,25.3373808 21.0267456,23.8151996 L17.7171295,23.8151996 L17.7171295,23.8158369 Z M4.8972331,14.4074263 L10.9978377,12.8003537 C10.9978377,12.8003537 10.8200247,15.1472303 8.53301813,15.7501375 C6.24537427,16.3524073 4.8972331,14.4074263 4.8972331,14.4074263 Z" id="Shape" fill="#E2574C" fill-rule="nonzero"></path>
            <path d="M40.6766749,6.847506 C39.0908889,7.1255061 35.2864556,7.47182718 30.5847995,6.21158554 C25.8818689,4.95210868 22.7615376,2.74931795 21.5252593,1.71392371 C19.7727497,0.246042379 19.0018443,-0.774081613 18.2431755,0.768940052 C17.5724573,2.1299169 16.7147485,4.34486774 15.8845722,7.44556949 C14.0856655,14.1600177 12.7411698,28.3293553 23.8616838,31.3110052 C34.9799034,34.2901058 40.898973,21.3460845 42.6980072,14.630999 C43.5281835,11.5309346 43.8922222,9.18342066 43.9924093,7.66977957 C44.1066175,5.95512694 42.9288454,6.45287586 40.6766749,6.847506 Z M18.3335479,12.4026644 C18.3335479,12.4026644 20.0860575,9.67696326 23.0584024,10.5217981 C26.0326594,11.3666328 26.2629878,14.6548349 26.2629878,14.6548349 L18.3335479,12.4026644 Z M25.5892103,24.6337767 C20.3609984,23.1022906 19.5546579,18.9331813 19.5546579,18.9331813 L33.5993353,22.8598531 C33.5993353,22.8592157 30.764397,26.1461432 25.5892103,24.6337767 Z M30.5548454,16.0658671 C30.5548454,16.0658671 32.3049331,13.3420779 35.2767683,14.1893345 C38.2484759,15.0354439 38.4825008,18.323646 38.4825008,18.323646 L30.5548454,16.0658671 Z" id="Shape" fill="#2EAD33" fill-rule="nonzero"></path>
            <path d="M14.9408249,21.7437738 L9.77244482,23.208596 C9.77244482,23.208596 10.333875,20.0102564 14.14124,18.7427493 L11.2146548,7.75964205 L10.9617652,7.83650315 C7.33269755,8.81517569 4.39877038,8.55553047 3.17462668,8.34355699 C1.43919734,8.04427031 0.531471552,7.66302395 0.616375665,8.98317391 C0.690292336,10.1474348 0.967616877,11.9524597 1.60290001,14.3366835 C2.97732436,19.4995061 7.51962426,29.4478564 16.1039386,27.1357776 L16.3568282,27.0563672 L14.9408249,21.7437738 Z M4.8972331,14.4075537 L10.9978377,12.8003537 C10.9978377,12.8003537 10.8200247,15.1472303 8.53301813,15.7501375 C6.24538702,16.3524073 4.8972331,14.4075537 4.8972331,14.4075537 Z" id="Shape" fill="#D65348" fill-rule="nonzero"></path>
            <path d="M25.8250197,24.6911357 L25.588573,24.6336492 C20.3603611,23.1022906 19.5540206,18.9331813 19.5540206,18.9331813 L26.7962993,20.9575727 L30.6305593,6.22382213 L30.5841622,6.21158554 C25.8812315,4.95210868 22.7610277,2.74931795 21.5246219,1.71392371 C19.7721124,0.246042379 19.001207,-0.774081613 18.2425382,0.768940052 C17.5724573,2.1299169 16.7147485,4.34486774 15.8845722,7.44556949 C14.0856655,14.1600177 12.7411698,28.3293553 23.8616838,31.3108778 L24.0895903,31.362246 L25.8250197,24.6911357 Z M18.3335479,12.4026644 C18.3335479,12.4026644 20.0860575,9.67696326 23.0584024,10.5217981 C26.0326594,11.3666328 26.2629878,14.6548349 26.2629878,14.6548349 L18.3335479,12.4026644 Z" id="Shape" fill="#1D8D22" fill-rule="nonzero"></path>
            <path d="M15.2041666,21.6686972 L13.8181175,22.0620527 C14.1455738,23.9079938 14.7227331,25.6794956 15.6286234,27.2445049 C15.786297,27.209707 15.942696,27.1797529 16.1033013,27.1357776 C16.5241891,27.0222068 16.9144854,26.8816134 17.2902508,26.7282736 C16.2780551,25.2262318 15.608484,23.4962834 15.2041666,21.6686972 Z M14.6629523,8.66731685 C13.9506806,11.3257167 13.3134855,15.152074 13.4888766,18.9900305 C13.8028217,18.8537709 14.1344844,18.7268162 14.5028568,18.6222953 L14.7594429,18.5649363 C14.446645,14.4654226 15.1228442,10.2879007 15.8845722,7.44556949 C16.0776809,6.72654217 16.2712995,6.05773587 16.4642808,5.43405201 C16.1533948,5.63187693 15.818673,5.83467297 15.4374267,6.04358731 C15.1803307,6.83718137 14.9206855,7.70457738 14.6629523,8.66731685 Z" id="Shape" fill="#C04B41" fill-rule="nonzero"></path>
        </g>
    </g>
</svg>