<?xml version="1.0" encoding="UTF-8"?>
<svg width="41px" height="43px" viewBox="0 0 41 43" version="1.1" xmlns="http://www.w3.org/2000/svg" xmlns:xlink="http://www.w3.org/1999/xlink">
    <title>logo-atlassian</title>
    <defs>
        <linearGradient x1="80.4671116%" y1="15.9703357%" x2="43.7683994%" y2="97.2001634%" id="linearGradient-1">
            <stop stop-color="#0050D3" offset="0%"></stop>
            <stop stop-color="#0082FF" offset="92.3%"></stop>
        </linearGradient>
    </defs>
    <g id="logo-atlassian" stroke="none" stroke-width="1" fill="none" fill-rule="evenodd">
        <g id="Group" transform="translate(1.2821, 2.2617)" fill-rule="nonzero">
            <path d="M11.4331949,17.6965684 C10.8776352,17.0298301 9.98865082,17.1409532 9.54415861,17.9188145 L0.0986968794,36.8097335 C-0.23467228,37.5875949 0.320942985,38.4765793 1.09880658,38.4765793 L14.2112713,38.4765793 C14.6557635,38.4765793 14.9891326,38.2543332 15.2113787,37.809841 C18.1005781,31.9203192 16.3226093,23.030475 11.4331949,17.6965684 Z" id="Path" fill="url(#linearGradient-1)"></path>
            <path d="M18.3229354,0.583396028 C13.1001519,8.917625 13.433521,18.1408384 16.8783357,25.1415907 C20.3231503,32.1423431 22.9901036,37.3651266 23.2123497,37.8096188 C23.4345958,38.254111 23.7679649,38.4763571 24.2124572,38.4763571 L37.3249774,38.4763571 C38.2139618,38.4763571 38.658454,37.5873727 38.3250849,36.8095113 C38.3250849,36.8095113 20.6565195,1.47238045 20.2120273,0.583396028 C19.8786581,-0.194465343 18.7674276,-0.194465343 18.3229354,0.583396028 Z" id="Path" fill="#0082FF"></path>
        </g>
    </g>
</svg>