<?xml version="1.0" encoding="UTF-8"?>
<svg width="44px" height="44px" viewBox="0 0 44 44" version="1.1" xmlns="http://www.w3.org/2000/svg" xmlns:xlink="http://www.w3.org/1999/xlink">
    <title>logo-billdotcom</title>
    <g id="logo-billdotcom" stroke="none" fill="none" transform="translate(0, 0.5)" fill-rule="evenodd">
        <path d="M6.047431,-0.063938326 L37.8578431,-0.063938326 C39.9936049,-0.063938326 40.7680837,0.153779926 41.5488863,0.562609288 C42.3296888,0.971438651 42.9424673,1.57137912 43.3600451,2.33582357 L43.4149611,2.4385931 C43.7970914,3.17084334 44,3.9521488 44,5.94953787 L44,36.9225855 C44,39.0136022 43.7776229,39.7718553 43.3600451,40.5362998 C42.9424673,41.3007442 42.3296888,41.9006847 41.5488863,42.3095141 L41.4439176,42.3632796 C40.6959981,42.7374041 39.8979737,42.9360617 37.8578431,42.9360617 L6.14215692,42.9360617 C4.00639515,42.9360617 3.23191632,42.7183434 2.45111374,42.3095141 C1.67031116,41.9006847 1.05753272,41.3007442 0.639954935,40.5362998 L0.585038909,40.4335302 C0.208879403,39.7127214 0.00638464959,38.9443784 0,37.0153269 L0,5.94953787 C0,3.85852119 0.222377145,3.10026801 0.639954935,2.33582357 C1.05753272,1.57137912 1.67031116,0.971438651 2.45111374,0.562609288 L2.55608241,0.508843776 C3.29231563,0.140564968 4.07710024,-0.0576874375 6.047431,-0.063938326 L6.047431,-0.063938326 Z" id="Rectangle-Copy" fill="#FF5A0A"></path>
        <g id="Group" stroke-width="1" transform="translate(8.2299, 13.0622)" fill="#FFFFFF">
            <path d="M4.01777215,4.6982 L4.01777215,0.486150943 L8.26470886,3.67031698 C9.73544304,4.78748302 10.0144304,6.41366038 9.97994937,6.37299245 C9.02243038,5.22035849 7.74364557,4.71453585 6.86329114,4.70099623 L4.01777215,4.6982 Z" id="Path" fill-opacity="0.6" fill-rule="nonzero"></path>
            <polygon id="Path" fill-rule="nonzero" points="15.4607595 5.60721887 12.2829873 5.60721887 12.2829873 16.7475811 15.4607595 16.7475811"></polygon>
            <polygon id="Path" fill-rule="nonzero" points="21.0317468 0.347811321 17.8539747 0.347811321 17.8539747 16.7476302 21.0317468 16.7476302"></polygon>
            <polygon id="Path" fill-rule="nonzero" points="26.6006582 0.347811321 23.4229367 0.347811321 23.4229367 16.7476302 26.6006582 16.7476302"></polygon>
            <path d="M6.79944304,12.8989925 C6.79944304,13.3952491 6.35513924,13.802566 5.85286076,13.802566 L3.14055696,13.802566 L3.14055696,8.50003774 L5.85286076,8.50003774 C6.35827848,8.50003774 6.79944304,8.90259623 6.79944304,9.40356226 L6.79944304,12.8989925 Z M3.16172152,5.6108 L3.16172152,0.354532075 L0,0.354532075 L0,16.7460113 L6.6164557,16.7460113 C8.47782278,16.7460113 9.98582278,15.2119132 9.98582278,13.3183283 L9.98582278,9.03848302 C9.98582278,7.14489811 8.47782278,5.6108 6.6164557,5.6108 L3.16172152,5.6108 Z" id="Shape" fill-rule="nonzero"></path>
            <ellipse id="Oval" fill-rule="nonzero" cx="13.8524051" cy="2.01132075" rx="2.07594937" ry="2.01132075"></ellipse>
        </g>
    </g>
</svg>