<?xml version="1.0" encoding="UTF-8"?>
<svg width="287px" height="50px" viewBox="0 0 287 50" version="1.1" xmlns="http://www.w3.org/2000/svg" xmlns:xlink="http://www.w3.org/1999/xlink">
    <title>logo-wordpress-v2</title>
    <g id="logo-wordpress-v2" stroke="none" stroke-width="1" fill="none" fill-rule="evenodd">
        <path d="M159.885754,34.9821588 L159.51,34.9821588 C157.578106,34.9821588 157.309827,34.4991343 157.309827,32.0304785 L157.309827,20.3851728 L159.885754,20.3851728 C165.466691,20.3851728 166.486477,24.4632994 166.486477,27.629725 C166.486477,30.9034215 165.466691,34.9821588 159.885754,34.9821588 L159.885754,34.9821588 Z M137.239175,27.522047 L137.239175,20.3851728 L139.439145,20.3851728 C141.854063,20.3851728 142.92779,22.0483808 142.92779,23.980275 C142.92779,25.858839 141.854063,27.522047 139.439145,27.522047 L137.239175,27.522047 Z M159.724746,18.775295 L150.118605,18.775295 L150.118605,19.7944704 C153.123615,19.7944704 153.606436,20.438503 153.606436,24.2489611 L153.606436,31.1183705 C153.606436,34.9284215 153.123615,35.6261913 150.118605,35.6261913 C147.811364,35.3041751 146.254817,34.06944 144.107974,31.7084622 L141.639929,29.0254682 C144.966752,28.4347657 146.737638,26.3418634 146.737638,23.980275 C146.737638,21.0292054 144.215652,18.775295 139.493085,18.775295 L130.047749,18.775295 L130.047749,19.7944704 C133.05276,19.7944704 133.535784,20.438503 133.535784,24.2489611 L133.535784,31.1183705 C133.535784,34.9284215 133.05276,35.6261913 130.047749,35.6261913 L130.047749,36.6453668 L140.72721,36.6453668 L140.72721,35.6261913 C137.722199,35.6261913 137.239175,34.9284215 137.239175,31.1183705 L137.239175,29.1864763 L138.151283,29.1864763 L144.107974,36.6453668 L159.724746,36.6453668 C167.399196,36.6453668 170.726019,32.5672402 170.726019,27.6830551 C170.726019,22.8000914 167.399196,18.775295 159.724746,18.775295 L159.724746,18.775295 Z M87.7070454,13.4080244 L87.7070454,14.4817513 C84.5404163,14.4817513 83.6816383,15.2328512 84.8091024,18.5596743 L88.4042046,29.5084315 L93.8245406,13.4080244 L94.8445303,13.4080244 L100.157188,29.5084315 L103.859968,18.5596743 C104.933695,15.3938594 104.450671,14.4817513 101.015966,14.4817513 L101.015966,13.4080244 L111.105335,13.4080244 L111.105335,14.4817513 C107.724367,14.4817513 106.91953,15.2865884 105.577728,19.2043175 L99.4594185,37.5580244 L98.7620558,37.5580244 L93.287779,20.7604582 L87.7070454,37.5580244 L87.0090721,37.5580244 L81.0523815,19.2043175 C79.7645199,15.2865884 78.9057419,14.4817513 75.7930536,14.4817513 L75.7930536,13.4080244 L87.7070454,13.4080244 Z M118.402525,18.0767517 C124.306089,18.0767517 129.135723,22.4241751 129.135723,27.6830959 C129.135723,32.9963645 124.306089,37.3431773 118.402525,37.3431773 C112.499775,37.3431773 107.669327,32.9963645 107.669327,27.6830959 C107.669327,22.4241751 112.499775,18.0767517 118.402525,18.0767517 Z M118.402525,19.741181 C113.465621,19.741181 111.748065,24.1950611 111.748065,27.6830959 C111.748065,31.2254785 113.465621,35.6260285 118.402525,35.6260285 C123.393981,35.6260285 125.110926,31.2254785 125.110926,27.6830959 C125.110926,24.1950611 123.393981,19.741181 118.402525,19.741181 Z M182.799859,15.3399186 L179.741111,15.3399186 L179.741111,24.6779837 L182.799859,24.6779837 C185.80548,24.6779837 187.200409,22.585285 187.200409,20.0630955 C187.200409,17.4873723 185.80548,15.3399186 182.799859,15.3399186 M183.980653,35.5721895 L183.980653,36.6453057 L171.691518,36.6453057 L171.691518,35.5721895 C175.287231,35.5721895 175.93106,34.6600814 175.93106,29.2930755 L175.93106,20.707128 C175.93106,15.3399186 175.287231,14.4817513 171.691518,14.4817513 L171.691518,13.4080244 L182.799859,13.4080244 C188.327466,13.4080244 191.387027,16.2526373 191.387027,20.0630955 C191.387027,23.7660792 188.327466,26.6638187 182.799859,26.6638187 L179.741111,26.6638187 L179.741111,29.2930755 C179.741111,34.6600814 180.38494,35.5721895 183.980653,35.5721895 M199.812394,27.522047 L199.812394,20.3851728 L202.012364,20.3851728 C204.427282,20.3851728 205.501009,22.0483808 205.501009,23.980275 C205.501009,25.858839 204.427282,27.522047 202.012364,27.522047 L199.812394,27.522047 Z M228.254045,31.6013949 L227.985969,32.5672402 C227.502945,34.3381262 226.912242,34.9821588 223.102395,34.9821588 L222.350684,34.9821588 C219.560419,34.9821588 219.077598,34.3381262 219.077598,30.527668 L219.077598,28.0594193 C223.263199,28.0594193 223.585216,28.4347657 223.585216,31.2254378 L224.605205,31.2254378 L224.605205,23.2291751 L223.585216,23.2291751 C223.585216,26.0198471 223.263199,26.39499 219.077598,26.39499 L219.077598,20.3851728 L222.028668,20.3851728 C225.839126,20.3851728 226.429218,21.0292054 226.912242,22.8000914 L227.180929,23.8192668 L228.039096,23.8192668 L227.663953,18.775295 L211.886173,18.775295 L211.886173,19.7944704 C214.891183,19.7944704 215.374004,20.4382994 215.374004,24.2489611 L215.374004,31.1183705 C215.374004,34.6037591 214.963647,35.4818743 212.594527,35.6068541 C210.342449,35.2632615 208.796282,34.0348365 206.681193,31.7084622 L204.212333,29.0254682 C207.539971,28.4347657 209.310857,26.3418634 209.310857,23.980275 C209.310857,21.0292054 206.788871,18.775295 202.066305,18.775295 L192.620969,18.775295 L192.620969,19.7944704 C195.625979,19.7944704 196.109003,20.4382994 196.109003,24.2489611 L196.109003,31.1183705 C196.109003,34.928218 195.625979,35.6261913 192.620969,35.6261913 L192.620969,36.6453668 L203.300225,36.6453668 L203.300225,35.6261913 C200.295419,35.6261913 199.812394,34.928218 199.812394,31.1183705 L199.812394,29.1864763 L200.724502,29.1864763 L206.681193,36.6453668 L228.737069,36.6453668 L229.058882,31.6013949 L228.254045,31.6013949 Z M239.148189,37.3431976 C237.001346,37.3431976 235.122782,36.2161406 234.317945,35.5183708 C234.049666,35.787057 233.566845,36.5920977 233.459574,37.3431976 L232.439788,37.3431976 L232.439788,29.9376373 L233.512905,29.9376373 C233.942599,33.4794093 236.410848,35.5723116 239.577273,35.5723116 C241.294422,35.5723116 242.690165,34.6062628 242.690165,32.9963849 C242.690165,31.6012524 241.45543,30.5275255 239.255257,29.5083501 L236.196509,28.0594804 C234.049666,27.0390836 232.439788,25.2681976 232.439788,22.9072198 C232.439788,20.3312931 234.854707,18.1313235 238.182344,18.1313235 C239.95323,18.1313235 241.45543,18.775356 242.368149,19.5262524 C242.636224,19.311507 242.9043,18.7208046 243.065919,18.076772 L244.085094,18.076772 L244.085094,24.4100303 L242.958241,24.4100303 C242.582283,21.8874338 241.187355,19.7945315 238.343352,19.7945315 C236.840542,19.7945315 235.444799,20.6533094 235.444799,21.9951118 C235.444799,23.3900407 236.571856,24.1413442 239.148189,25.3221384 L242.099259,26.7710081 C244.675796,28.0049289 245.694972,29.9913745 245.694972,31.6012524 C245.694972,34.9822198 242.743292,37.3431976 239.148189,37.3431976 M255.375266,37.3431976 C253.228423,37.3431976 251.349859,36.2161406 250.545022,35.5183708 C250.276743,35.787057 249.793718,36.5920977 249.686651,37.3431976 L248.666865,37.3431976 L248.666865,29.9376373 L249.739981,29.9376373 C250.169675,33.4794093 252.63772,35.5723116 255.804349,35.5723116 C257.521498,35.5723116 258.917038,34.6062628 258.917038,32.9963849 C258.917038,31.6012524 257.682303,30.5275255 255.482333,29.5083501 L252.423586,28.0594804 C250.276743,27.0390836 248.666865,25.2681976 248.666865,22.9072198 C248.666865,20.3312931 251.081783,18.1313235 254.409421,18.1313235 C256.180307,18.1313235 257.682303,18.775356 258.595022,19.5262524 C258.863301,19.311507 259.131376,18.7208046 259.292384,18.076772 L260.31217,18.076772 L260.31217,24.4100303 L259.185113,24.4100303 C258.80936,21.8874338 257.414227,19.7945315 254.570225,19.7945315 C253.067618,19.7945315 251.671875,20.6533094 251.671875,21.9951118 C251.671875,23.3900407 252.798728,24.1413442 255.375266,25.3221384 L258.326335,26.7710081 C260.902873,28.0049289 261.922048,29.9913745 261.922048,31.6012524 C261.922048,34.9822198 258.970368,37.3431976 255.375266,37.3431976 M49.2279518,0.85 C62.5655732,0.85 73.3779518,11.6623786 73.3779518,25 C73.3779518,38.3376214 62.5655732,49.15 49.2279518,49.15 C35.8903304,49.15 25.0779518,38.3376214 25.0779518,25 C25.0779518,11.6623786 35.8903304,0.85 49.2279518,0.85 Z M49.2279518,2.29907328 C46.1626906,2.29907328 43.1898411,2.89893547 40.3922483,4.08237585 C39.0473927,4.65109487 37.7501678,5.35517472 36.536602,6.17507459 C35.3342315,6.98744311 34.2035106,7.92031329 33.1759896,8.94803783 C32.1482651,9.97555881 31.2153949,11.1062797 30.4030264,12.3086502 C29.5833301,13.522216 28.8790467,14.8194409 28.3103276,16.164093 C27.1268873,18.9618893 26.5270251,21.9347388 26.5270251,25 C26.5270251,28.0652612 27.1268873,31.0381107 28.3103276,33.835907 C28.8790467,35.1805591 29.5833301,36.477784 30.4030264,37.6913498 C31.2153949,38.8937203 32.1482651,40.0244412 33.1759896,41.0519622 C34.2035106,42.0796867 35.3342315,43.0125569 36.536602,43.8249254 C37.7501678,44.6448253 39.0473927,45.3489051 40.3922483,45.9176242 C43.1898411,47.1010645 46.1626906,47.7009267 49.2279518,47.7009267 C52.293213,47.7009267 55.2660624,47.1010645 58.0638588,45.9176242 C59.4085109,45.3489051 60.7057358,44.6448253 61.9193015,43.8249254 C63.1216721,43.0125569 64.252393,42.0796867 65.279914,41.0519622 C66.3076385,40.0244412 67.2405087,38.8937203 68.0528772,37.6913498 C68.8727771,36.477784 69.5768569,35.1805591 70.1455759,33.835907 C71.3290163,31.0381107 71.9288785,28.0652612 71.9288785,25 C71.9288785,21.9347388 71.3290163,18.9618893 70.1455759,16.164093 C69.5768569,14.8194409 68.8727771,13.522216 68.0528772,12.3086502 C67.2405087,11.1062797 66.3076385,9.97555881 65.279914,8.94803783 C64.252393,7.92031329 63.1216721,6.98744311 61.9193015,6.17507459 C60.7057358,5.35517472 59.4085109,4.65109487 58.0638588,4.08237585 C55.2660624,2.89893547 52.293213,2.29907328 49.2279518,2.29907328 Z M49.5814776,26.75965 L55.7669586,43.7066221 C55.8078721,43.8065652 55.8575384,43.8979592 55.9114792,43.9840609 C53.8197982,44.7205052 51.5715871,45.1249593 49.2279111,45.1249593 C47.2526608,45.1249593 45.3460068,44.835511 43.5423492,44.3050594 L49.5814776,26.75965 Z M30.8455036,16.8091026 L40.4457413,43.1108309 C33.7318443,39.8491438 29.1029111,32.9648753 29.1029111,24.9993486 C29.1029111,22.0814577 29.7288277,19.3117513 30.8455036,16.8091026 Z M66.8883263,15.3447631 C68.458919,18.2109523 69.3529111,21.5003221 69.3529111,24.9993486 C69.3529111,32.4236356 65.3293359,38.905689 59.3461838,42.3939274 L65.4927867,24.6219667 C66.6412164,21.7510959 67.0236871,19.4554577 67.0236871,17.4140536 C67.0236871,16.6733347 66.9746315,15.9857424 66.8883263,15.3447631 Z M49.2279111,4.87495929 C54.4672911,4.87495929 59.2376916,6.87809598 62.8181381,10.1587132 C62.7314258,10.1532174 62.6469525,10.1424292 62.557594,10.1424292 C60.5807153,10.1424292 59.1780514,11.8644632 59.1780514,13.7141231 C59.1780514,15.3726494 60.134737,16.7757204 61.1549301,18.4342467 C61.9202786,19.7744207 62.8140671,21.4962511 62.8140671,23.9842442 C62.8140671,25.7062782 62.2732345,27.7432042 61.3509489,30.6181461 L59.2747377,37.1968858 L52.0018921,15.563783 C53.2132188,15.5002754 54.3048581,15.3726494 54.3048581,15.3726494 C55.3891696,15.2444129 55.2615436,13.6506155 54.1768251,13.7141231 C54.1768251,13.7141231 50.9169699,13.9699856 48.8124653,13.9699856 L48.6170525,13.969204 C48.1520215,13.9655968 47.6260754,13.9497852 47.0929596,13.927661 L46.6355009,13.9072889 C45.0370247,13.8315376 43.5122238,13.7141231 43.5122238,13.7141231 C42.4268946,13.6506155 42.2996758,15.3085312 43.3845979,15.3726494 C43.3845979,15.3726494 44.4111011,15.5002754 45.4954126,15.563783 L48.630695,24.1544121 L44.2258705,37.3627792 L36.8974557,15.563783 C38.1100037,15.5002754 39.2006253,15.3726494 39.2006253,15.3726494 C40.2845296,15.2444129 40.156293,13.6506155 39.0719816,13.7141231 C39.0719816,13.7141231 37.5314793,13.8350581 35.8848041,13.9106425 L35.4341562,13.9300071 C34.832656,13.9539942 34.2343586,13.9699856 33.7082325,13.9699856 C33.330647,13.9699856 32.8854829,13.9604187 32.4128395,13.9455596 C36.0116056,8.48268155 42.1966794,4.87495929 49.2279111,4.87495929 Z" id="logo-wordpress" fill="#FFFFFF"></path>
    </g>
</svg>